<svg width="65" height="64" viewBox="0 0 65 64" fill="none" xmlns="http://www.w3.org/2000/svg">
<mask id="mask0_103_16909" style="mask-type:luminance" maskUnits="userSpaceOnUse" x="0" y="0" width="65" height="64">
<path d="M32.4004 62C36.3408 62.0051 40.2434 61.2314 43.8838 59.7234C47.5242 58.2155 50.8308 56.0029 53.6134 53.213C56.4033 50.4304 58.6159 47.1238 60.1238 43.4834C61.6318 39.843 62.4055 35.9404 62.4004 32C62.4054 28.0596 61.6317 24.1571 60.1237 20.5167C58.6158 16.8762 56.4033 13.5697 53.6134 10.787C50.8308 7.99706 47.5242 5.78452 43.8838 4.27655C40.2434 2.76858 36.3408 1.99492 32.4004 2.00003C28.46 1.995 24.5575 2.7687 20.917 4.27667C17.2766 5.78463 13.9701 7.99713 11.1874 10.787C8.39752 13.5697 6.18502 16.8762 4.67706 20.5167C3.16909 24.1571 2.39539 28.0596 2.40042 32C2.39531 35.9404 3.16897 39.843 4.67694 43.4834C6.18491 47.1238 8.39745 50.4304 11.1874 53.213C13.9701 56.0029 17.2766 58.2154 20.917 59.7233C24.5575 61.2313 28.46 62.005 32.4004 62Z" fill="white" stroke="white" stroke-width="4" stroke-linejoin="round"/>
<path d="M20.4004 32L29.4004 41L47.4004 23" stroke="black" stroke-width="4" stroke-linecap="round" stroke-linejoin="round"/>
</mask>
<g mask="url(#mask0_103_16909)">
<path d="M-3.59961 -4H68.4003V67.9999H-3.59961V-4Z" fill="#4CD964"/>
</g>
</svg>
