<svg width="34" height="35" viewBox="0 0 34 35" fill="none" xmlns="http://www.w3.org/2000/svg">
<path d="M25.5 2.7777C28.0843 4.26977 30.2304 6.41583 31.7225 9.00018C33.2145 11.5845 34 14.5161 34 17.5002C34 20.4844 33.2144 23.4159 31.7224 26.0003C30.2303 28.5846 28.0842 30.7306 25.4998 32.2227C22.9155 33.7147 19.9839 34.5002 16.9997 34.5001C14.0156 34.5001 11.084 33.7145 8.49972 32.2224C5.91541 30.7303 3.76939 28.5842 2.27738 25.9998C0.785366 23.4154 -7.58025e-05 20.4838 5.48701e-09 17.4997L0.0085002 16.9489C0.103705 14.013 0.958031 11.1518 2.48819 8.64438C4.01834 6.13694 6.17211 4.06876 8.73952 2.6415C11.3069 1.21423 14.2003 0.47657 17.1377 0.500439C20.0751 0.524309 22.9561 1.30889 25.5 2.7777ZM17 7.2997C16.5491 7.2997 16.1167 7.4788 15.7979 7.79762C15.4791 8.11643 15.3 8.54883 15.3 8.9997C13.9474 8.9997 12.6502 9.53702 11.6938 10.4935C10.7373 11.4499 10.2 12.7471 10.2 14.0997C10.2 15.4523 10.7373 16.7495 11.6938 17.7059C12.6502 18.6624 13.9474 19.1997 15.3 19.1997V22.5997C15.0181 22.6153 14.7366 22.5618 14.48 22.4439C14.2234 22.326 13.9996 22.1472 13.8278 21.9231L13.7122 21.7514C13.4796 21.3763 13.1103 21.1064 12.6822 20.9987C12.2542 20.891 11.8011 20.9539 11.4187 21.1743C11.0363 21.3947 10.7545 21.7551 10.6331 22.1794C10.5116 22.6037 10.5599 23.0587 10.7678 23.448C11.2017 24.2005 11.8206 24.8298 12.5659 25.276C13.3112 25.7223 14.1581 25.9708 15.0263 25.998H15.3C15.2996 26.4147 15.4523 26.817 15.7291 27.1285C16.0058 27.44 16.3873 27.639 16.8011 27.6878L17 27.6997C17.4509 27.6997 17.8833 27.5206 18.2021 27.2018C18.5209 26.883 18.7 26.4506 18.7 25.9997L18.9992 25.9912C20.3245 25.9146 21.5678 25.3242 22.4647 24.3455C23.3617 23.3669 23.8417 22.077 23.8027 20.75C23.7638 19.4231 23.2089 18.1636 22.2561 17.2392C21.3033 16.3148 20.0275 15.7984 18.7 15.7997V12.3997C19.3086 12.3793 19.8407 12.6377 20.1722 13.0763L20.2878 13.248C20.5204 13.6231 20.8897 13.893 21.3178 14.0007C21.7458 14.1084 22.1989 14.0455 22.5813 13.8251C22.9638 13.6047 23.2455 13.2443 23.3669 12.82C23.4884 12.3957 23.4401 11.9407 23.2322 11.5514C22.7985 10.7986 22.1797 10.169 21.4344 9.72241C20.6891 9.27584 19.8421 9.02707 18.9737 8.9997H18.7C18.7 8.54883 18.5209 8.11643 18.2021 7.79762C17.8833 7.4788 17.4509 7.2997 17 7.2997ZM18.7 19.1997C19.1509 19.1997 19.5833 19.3788 19.9021 19.6976C20.2209 20.0164 20.4 20.4488 20.4 20.8997C20.4 21.3506 20.2209 21.783 19.9021 22.1018C19.5833 22.4206 19.1509 22.5997 18.7 22.5997V19.1997ZM15.3 12.3997V15.7997C14.8491 15.7997 14.4167 15.6206 14.0979 15.3018C13.7791 14.983 13.6 14.5506 13.6 14.0997C13.6 13.6488 13.7791 13.2164 14.0979 12.8976C14.4167 12.5788 14.8491 12.3997 15.3 12.3997Z" fill="#4055E2"/>
</svg>
