<svg width="1683" height="59" viewBox="0 0 1683 59" fill="none" xmlns="http://www.w3.org/2000/svg">
<rect y="10" width="101" height="39" rx="19.5" fill="#292929"/>
<path d="M22.592 30.808L23.152 28.104H20.944L20.4 30.808H22.592ZM21.776 35L22.336 32.2H20.128L19.584 35H18.048L18.592 32.2H16.56V30.808H18.848L19.408 28.104H17.344V26.712H19.648L20.272 23.656H21.808L21.184 26.712H23.392L24 23.656H25.568L24.96 26.712H27.12V28.104H24.688L24.16 30.808H26.32V32.2H23.888L23.344 35H21.776ZM30.5305 30.424V35H28.6745V23.416H30.5305V27.96C31.0585 27.272 31.9385 26.984 32.7545 26.984C34.6745 26.984 35.6025 28.36 35.6025 30.072V35H33.7465V30.392C33.7465 29.432 33.3145 28.664 32.1465 28.664C31.1225 28.664 30.5625 29.432 30.5305 30.424ZM37.1698 32.888C37.1698 31.496 38.1938 30.728 39.5218 30.536L41.5218 30.232C41.9698 30.168 42.0978 29.944 42.0978 29.672C42.0978 29.016 41.6498 28.488 40.6258 28.488C39.6498 28.488 39.1058 29.112 39.0258 29.896L37.3298 29.512C37.4738 28.168 38.6898 26.968 40.6098 26.968C43.0098 26.968 43.9218 28.328 43.9218 29.88V33.752C43.9218 34.456 44.0018 34.92 44.0178 35H42.2898C42.2738 34.952 42.2098 34.632 42.2098 34.008C41.8418 34.6 41.0738 35.24 39.8098 35.24C38.1778 35.24 37.1698 34.12 37.1698 32.888ZM40.1618 33.784C41.2018 33.784 42.0978 33.288 42.0978 31.768V31.416L40.0658 31.72C39.4898 31.816 39.0258 32.136 39.0258 32.776C39.0258 33.304 39.4258 33.784 40.1618 33.784ZM45.4567 32.888L47.0727 32.44C47.1367 33.144 47.6647 33.768 48.6567 33.768C49.4247 33.768 49.8247 33.352 49.8247 32.872C49.8247 32.456 49.5367 32.136 48.9127 32.008L47.7607 31.752C46.3847 31.448 45.6647 30.552 45.6647 29.48C45.6647 28.12 46.9127 26.968 48.5287 26.968C50.7047 26.968 51.4087 28.376 51.5367 29.144L49.9687 29.592C49.9047 29.144 49.5687 28.424 48.5287 28.424C47.8727 28.424 47.4087 28.84 47.4087 29.32C47.4087 29.736 47.7127 30.04 48.1927 30.136L49.3767 30.376C50.8487 30.696 51.6167 31.592 51.6167 32.744C51.6167 33.928 50.6567 35.24 48.6727 35.24C46.4167 35.24 45.5527 33.768 45.4567 32.888ZM55.1293 30.424V35H53.2733V23.416H55.1293V27.96C55.6573 27.272 56.5373 26.984 57.3533 26.984C59.2733 26.984 60.2013 28.36 60.2013 30.072V35H58.3453V30.392C58.3453 29.432 57.9133 28.664 56.7453 28.664C55.7213 28.664 55.1613 29.432 55.1293 30.424ZM64.6344 24.824V27.208H66.2504V28.856H64.6344V32.472C64.6344 33.16 64.9384 33.448 65.6264 33.448C65.8824 33.448 66.1864 33.4 66.2664 33.384V34.92C66.1544 34.968 65.8024 35.096 65.1304 35.096C63.6904 35.096 62.7944 34.232 62.7944 32.776V28.856H61.3544V27.208H61.7544C62.5864 27.208 62.9544 26.68 62.9544 25.992V24.824H64.6344ZM67.3691 32.888C67.3691 31.496 68.3931 30.728 69.7211 30.536L71.7211 30.232C72.1691 30.168 72.2971 29.944 72.2971 29.672C72.2971 29.016 71.8491 28.488 70.8251 28.488C69.8491 28.488 69.3051 29.112 69.2251 29.896L67.5291 29.512C67.6731 28.168 68.8891 26.968 70.8091 26.968C73.2091 26.968 74.1211 28.328 74.1211 29.88V33.752C74.1211 34.456 74.2011 34.92 74.2171 35H72.4891C72.4731 34.952 72.4091 34.632 72.4091 34.008C72.0411 34.6 71.2731 35.24 70.0091 35.24C68.3771 35.24 67.3691 34.12 67.3691 32.888ZM70.3611 33.784C71.4011 33.784 72.2971 33.288 72.2971 31.768V31.416L70.2651 31.72C69.6891 31.816 69.2251 32.136 69.2251 32.776C69.2251 33.304 69.6251 33.784 70.3611 33.784ZM75.7041 35.432L77.4161 34.984C77.5441 35.944 78.2961 36.664 79.3681 36.664C80.8401 36.664 81.5761 35.912 81.5761 34.328V33.512C81.2401 34.12 80.4561 34.648 79.3201 34.648C77.2401 34.648 75.7201 33.048 75.7201 30.856C75.7201 28.776 77.1761 27.064 79.3201 27.064C80.5361 27.064 81.2881 27.56 81.6241 28.2V27.208H83.4161V34.264C83.4161 36.344 82.3441 38.28 79.4161 38.28C77.3521 38.28 75.9121 37 75.7041 35.432ZM79.6241 33.064C80.8081 33.064 81.6241 32.2 81.6241 30.856C81.6241 29.528 80.7761 28.664 79.6241 28.664C78.4401 28.664 77.5921 29.528 77.5921 30.856C77.5921 32.216 78.4081 33.064 79.6241 33.064Z" fill="white"/>
<rect x="111" y="10" width="101" height="39" rx="19.5" fill="#292929"/>
<path d="M133.592 30.808L134.152 28.104H131.944L131.4 30.808H133.592ZM132.776 35L133.336 32.2H131.128L130.584 35H129.048L129.592 32.2H127.56V30.808H129.848L130.408 28.104H128.344V26.712H130.648L131.272 23.656H132.808L132.184 26.712H134.392L135 23.656H136.568L135.96 26.712H138.12V28.104H135.688L135.16 30.808H137.32V32.2H134.888L134.344 35H132.776ZM141.531 30.424V35H139.675V23.416H141.531V27.96C142.059 27.272 142.939 26.984 143.755 26.984C145.675 26.984 146.602 28.36 146.602 30.072V35H144.747V30.392C144.747 29.432 144.315 28.664 143.147 28.664C142.123 28.664 141.563 29.432 141.531 30.424ZM148.17 32.888C148.17 31.496 149.194 30.728 150.522 30.536L152.522 30.232C152.97 30.168 153.098 29.944 153.098 29.672C153.098 29.016 152.65 28.488 151.626 28.488C150.65 28.488 150.106 29.112 150.026 29.896L148.33 29.512C148.474 28.168 149.69 26.968 151.61 26.968C154.01 26.968 154.922 28.328 154.922 29.88V33.752C154.922 34.456 155.002 34.92 155.018 35H153.29C153.274 34.952 153.21 34.632 153.21 34.008C152.842 34.6 152.074 35.24 150.81 35.24C149.178 35.24 148.17 34.12 148.17 32.888ZM151.162 33.784C152.202 33.784 153.098 33.288 153.098 31.768V31.416L151.066 31.72C150.49 31.816 150.026 32.136 150.026 32.776C150.026 33.304 150.426 33.784 151.162 33.784ZM156.457 32.888L158.073 32.44C158.137 33.144 158.665 33.768 159.657 33.768C160.425 33.768 160.825 33.352 160.825 32.872C160.825 32.456 160.537 32.136 159.913 32.008L158.761 31.752C157.385 31.448 156.665 30.552 156.665 29.48C156.665 28.12 157.913 26.968 159.529 26.968C161.705 26.968 162.409 28.376 162.537 29.144L160.969 29.592C160.905 29.144 160.569 28.424 159.529 28.424C158.873 28.424 158.409 28.84 158.409 29.32C158.409 29.736 158.713 30.04 159.193 30.136L160.377 30.376C161.849 30.696 162.617 31.592 162.617 32.744C162.617 33.928 161.657 35.24 159.673 35.24C157.417 35.24 156.553 33.768 156.457 32.888ZM166.129 30.424V35H164.273V23.416H166.129V27.96C166.657 27.272 167.537 26.984 168.353 26.984C170.273 26.984 171.201 28.36 171.201 30.072V35H169.345V30.392C169.345 29.432 168.913 28.664 167.745 28.664C166.721 28.664 166.161 29.432 166.129 30.424ZM175.634 24.824V27.208H177.25V28.856H175.634V32.472C175.634 33.16 175.938 33.448 176.626 33.448C176.882 33.448 177.186 33.4 177.266 33.384V34.92C177.154 34.968 176.802 35.096 176.13 35.096C174.69 35.096 173.794 34.232 173.794 32.776V28.856H172.354V27.208H172.754C173.586 27.208 173.954 26.68 173.954 25.992V24.824H175.634ZM178.369 32.888C178.369 31.496 179.393 30.728 180.721 30.536L182.721 30.232C183.169 30.168 183.297 29.944 183.297 29.672C183.297 29.016 182.849 28.488 181.825 28.488C180.849 28.488 180.305 29.112 180.225 29.896L178.529 29.512C178.673 28.168 179.889 26.968 181.809 26.968C184.209 26.968 185.121 28.328 185.121 29.88V33.752C185.121 34.456 185.201 34.92 185.217 35H183.489C183.473 34.952 183.409 34.632 183.409 34.008C183.041 34.6 182.273 35.24 181.009 35.24C179.377 35.24 178.369 34.12 178.369 32.888ZM181.361 33.784C182.401 33.784 183.297 33.288 183.297 31.768V31.416L181.265 31.72C180.689 31.816 180.225 32.136 180.225 32.776C180.225 33.304 180.625 33.784 181.361 33.784ZM186.704 35.432L188.416 34.984C188.544 35.944 189.296 36.664 190.368 36.664C191.84 36.664 192.576 35.912 192.576 34.328V33.512C192.24 34.12 191.456 34.648 190.32 34.648C188.24 34.648 186.72 33.048 186.72 30.856C186.72 28.776 188.176 27.064 190.32 27.064C191.536 27.064 192.288 27.56 192.624 28.2V27.208H194.416V34.264C194.416 36.344 193.344 38.28 190.416 38.28C188.352 38.28 186.912 37 186.704 35.432ZM190.624 33.064C191.808 33.064 192.624 32.2 192.624 30.856C192.624 29.528 191.776 28.664 190.624 28.664C189.44 28.664 188.592 29.528 188.592 30.856C188.592 32.216 189.408 33.064 190.624 33.064Z" fill="white"/>
<rect x="222" y="10" width="101" height="39" rx="19.5" fill="#292929"/>
<path d="M244.592 30.808L245.152 28.104H242.944L242.4 30.808H244.592ZM243.776 35L244.336 32.2H242.128L241.584 35H240.048L240.592 32.2H238.56V30.808H240.848L241.408 28.104H239.344V26.712H241.648L242.272 23.656H243.808L243.184 26.712H245.392L246 23.656H247.568L246.96 26.712H249.12V28.104H246.688L246.16 30.808H248.32V32.2H245.888L245.344 35H243.776ZM252.531 30.424V35H250.675V23.416H252.531V27.96C253.059 27.272 253.939 26.984 254.755 26.984C256.675 26.984 257.602 28.36 257.602 30.072V35H255.747V30.392C255.747 29.432 255.315 28.664 254.147 28.664C253.123 28.664 252.563 29.432 252.531 30.424ZM259.17 32.888C259.17 31.496 260.194 30.728 261.522 30.536L263.522 30.232C263.97 30.168 264.098 29.944 264.098 29.672C264.098 29.016 263.65 28.488 262.626 28.488C261.65 28.488 261.106 29.112 261.026 29.896L259.33 29.512C259.474 28.168 260.69 26.968 262.61 26.968C265.01 26.968 265.922 28.328 265.922 29.88V33.752C265.922 34.456 266.002 34.92 266.018 35H264.29C264.274 34.952 264.21 34.632 264.21 34.008C263.842 34.6 263.074 35.24 261.81 35.24C260.178 35.24 259.17 34.12 259.17 32.888ZM262.162 33.784C263.202 33.784 264.098 33.288 264.098 31.768V31.416L262.066 31.72C261.49 31.816 261.026 32.136 261.026 32.776C261.026 33.304 261.426 33.784 262.162 33.784ZM267.457 32.888L269.073 32.44C269.137 33.144 269.665 33.768 270.657 33.768C271.425 33.768 271.825 33.352 271.825 32.872C271.825 32.456 271.537 32.136 270.913 32.008L269.761 31.752C268.385 31.448 267.665 30.552 267.665 29.48C267.665 28.12 268.913 26.968 270.529 26.968C272.705 26.968 273.409 28.376 273.537 29.144L271.969 29.592C271.905 29.144 271.569 28.424 270.529 28.424C269.873 28.424 269.409 28.84 269.409 29.32C269.409 29.736 269.713 30.04 270.193 30.136L271.377 30.376C272.849 30.696 273.617 31.592 273.617 32.744C273.617 33.928 272.657 35.24 270.673 35.24C268.417 35.24 267.553 33.768 267.457 32.888ZM277.129 30.424V35H275.273V23.416H277.129V27.96C277.657 27.272 278.537 26.984 279.353 26.984C281.273 26.984 282.201 28.36 282.201 30.072V35H280.345V30.392C280.345 29.432 279.913 28.664 278.745 28.664C277.721 28.664 277.161 29.432 277.129 30.424ZM286.634 24.824V27.208H288.25V28.856H286.634V32.472C286.634 33.16 286.938 33.448 287.626 33.448C287.882 33.448 288.186 33.4 288.266 33.384V34.92C288.154 34.968 287.802 35.096 287.13 35.096C285.69 35.096 284.794 34.232 284.794 32.776V28.856H283.354V27.208H283.754C284.586 27.208 284.954 26.68 284.954 25.992V24.824H286.634ZM289.369 32.888C289.369 31.496 290.393 30.728 291.721 30.536L293.721 30.232C294.169 30.168 294.297 29.944 294.297 29.672C294.297 29.016 293.849 28.488 292.825 28.488C291.849 28.488 291.305 29.112 291.225 29.896L289.529 29.512C289.673 28.168 290.889 26.968 292.809 26.968C295.209 26.968 296.121 28.328 296.121 29.88V33.752C296.121 34.456 296.201 34.92 296.217 35H294.489C294.473 34.952 294.409 34.632 294.409 34.008C294.041 34.6 293.273 35.24 292.009 35.24C290.377 35.24 289.369 34.12 289.369 32.888ZM292.361 33.784C293.401 33.784 294.297 33.288 294.297 31.768V31.416L292.265 31.72C291.689 31.816 291.225 32.136 291.225 32.776C291.225 33.304 291.625 33.784 292.361 33.784ZM297.704 35.432L299.416 34.984C299.544 35.944 300.296 36.664 301.368 36.664C302.84 36.664 303.576 35.912 303.576 34.328V33.512C303.24 34.12 302.456 34.648 301.32 34.648C299.24 34.648 297.72 33.048 297.72 30.856C297.72 28.776 299.176 27.064 301.32 27.064C302.536 27.064 303.288 27.56 303.624 28.2V27.208H305.416V34.264C305.416 36.344 304.344 38.28 301.416 38.28C299.352 38.28 297.912 37 297.704 35.432ZM301.624 33.064C302.808 33.064 303.624 32.2 303.624 30.856C303.624 29.528 302.776 28.664 301.624 28.664C300.44 28.664 299.592 29.528 299.592 30.856C299.592 32.216 300.408 33.064 301.624 33.064Z" fill="white"/>
<rect x="333" y="10" width="101" height="39" rx="19.5" fill="#292929"/>
<path d="M355.592 30.808L356.152 28.104H353.944L353.4 30.808H355.592ZM354.776 35L355.336 32.2H353.128L352.584 35H351.048L351.592 32.2H349.56V30.808H351.848L352.408 28.104H350.344V26.712H352.648L353.272 23.656H354.808L354.184 26.712H356.392L357 23.656H358.568L357.96 26.712H360.12V28.104H357.688L357.16 30.808H359.32V32.2H356.888L356.344 35H354.776ZM363.531 30.424V35H361.675V23.416H363.531V27.96C364.059 27.272 364.939 26.984 365.755 26.984C367.675 26.984 368.602 28.36 368.602 30.072V35H366.747V30.392C366.747 29.432 366.315 28.664 365.147 28.664C364.123 28.664 363.563 29.432 363.531 30.424ZM370.17 32.888C370.17 31.496 371.194 30.728 372.522 30.536L374.522 30.232C374.97 30.168 375.098 29.944 375.098 29.672C375.098 29.016 374.65 28.488 373.626 28.488C372.65 28.488 372.106 29.112 372.026 29.896L370.33 29.512C370.474 28.168 371.69 26.968 373.61 26.968C376.01 26.968 376.922 28.328 376.922 29.88V33.752C376.922 34.456 377.002 34.92 377.018 35H375.29C375.274 34.952 375.21 34.632 375.21 34.008C374.842 34.6 374.074 35.24 372.81 35.24C371.178 35.24 370.17 34.12 370.17 32.888ZM373.162 33.784C374.202 33.784 375.098 33.288 375.098 31.768V31.416L373.066 31.72C372.49 31.816 372.026 32.136 372.026 32.776C372.026 33.304 372.426 33.784 373.162 33.784ZM378.457 32.888L380.073 32.44C380.137 33.144 380.665 33.768 381.657 33.768C382.425 33.768 382.825 33.352 382.825 32.872C382.825 32.456 382.537 32.136 381.913 32.008L380.761 31.752C379.385 31.448 378.665 30.552 378.665 29.48C378.665 28.12 379.913 26.968 381.529 26.968C383.705 26.968 384.409 28.376 384.537 29.144L382.969 29.592C382.905 29.144 382.569 28.424 381.529 28.424C380.873 28.424 380.409 28.84 380.409 29.32C380.409 29.736 380.713 30.04 381.193 30.136L382.377 30.376C383.849 30.696 384.617 31.592 384.617 32.744C384.617 33.928 383.657 35.24 381.673 35.24C379.417 35.24 378.553 33.768 378.457 32.888ZM388.129 30.424V35H386.273V23.416H388.129V27.96C388.657 27.272 389.537 26.984 390.353 26.984C392.273 26.984 393.201 28.36 393.201 30.072V35H391.345V30.392C391.345 29.432 390.913 28.664 389.745 28.664C388.721 28.664 388.161 29.432 388.129 30.424ZM397.634 24.824V27.208H399.25V28.856H397.634V32.472C397.634 33.16 397.938 33.448 398.626 33.448C398.882 33.448 399.186 33.4 399.266 33.384V34.92C399.154 34.968 398.802 35.096 398.13 35.096C396.69 35.096 395.794 34.232 395.794 32.776V28.856H394.354V27.208H394.754C395.586 27.208 395.954 26.68 395.954 25.992V24.824H397.634ZM400.369 32.888C400.369 31.496 401.393 30.728 402.721 30.536L404.721 30.232C405.169 30.168 405.297 29.944 405.297 29.672C405.297 29.016 404.849 28.488 403.825 28.488C402.849 28.488 402.305 29.112 402.225 29.896L400.529 29.512C400.673 28.168 401.889 26.968 403.809 26.968C406.209 26.968 407.121 28.328 407.121 29.88V33.752C407.121 34.456 407.201 34.92 407.217 35H405.489C405.473 34.952 405.409 34.632 405.409 34.008C405.041 34.6 404.273 35.24 403.009 35.24C401.377 35.24 400.369 34.12 400.369 32.888ZM403.361 33.784C404.401 33.784 405.297 33.288 405.297 31.768V31.416L403.265 31.72C402.689 31.816 402.225 32.136 402.225 32.776C402.225 33.304 402.625 33.784 403.361 33.784ZM408.704 35.432L410.416 34.984C410.544 35.944 411.296 36.664 412.368 36.664C413.84 36.664 414.576 35.912 414.576 34.328V33.512C414.24 34.12 413.456 34.648 412.32 34.648C410.24 34.648 408.72 33.048 408.72 30.856C408.72 28.776 410.176 27.064 412.32 27.064C413.536 27.064 414.288 27.56 414.624 28.2V27.208H416.416V34.264C416.416 36.344 415.344 38.28 412.416 38.28C410.352 38.28 408.912 37 408.704 35.432ZM412.624 33.064C413.808 33.064 414.624 32.2 414.624 30.856C414.624 29.528 413.776 28.664 412.624 28.664C411.44 28.664 410.592 29.528 410.592 30.856C410.592 32.216 411.408 33.064 412.624 33.064Z" fill="white"/>
<rect x="444" y="10" width="101" height="39" rx="19.5" fill="#292929"/>
<path d="M466.592 30.808L467.152 28.104H464.944L464.4 30.808H466.592ZM465.776 35L466.336 32.2H464.128L463.584 35H462.048L462.592 32.2H460.56V30.808H462.848L463.408 28.104H461.344V26.712H463.648L464.272 23.656H465.808L465.184 26.712H467.392L468 23.656H469.568L468.96 26.712H471.12V28.104H468.688L468.16 30.808H470.32V32.2H467.888L467.344 35H465.776ZM474.531 30.424V35H472.675V23.416H474.531V27.96C475.059 27.272 475.939 26.984 476.755 26.984C478.675 26.984 479.602 28.36 479.602 30.072V35H477.747V30.392C477.747 29.432 477.315 28.664 476.147 28.664C475.123 28.664 474.563 29.432 474.531 30.424ZM481.17 32.888C481.17 31.496 482.194 30.728 483.522 30.536L485.522 30.232C485.97 30.168 486.098 29.944 486.098 29.672C486.098 29.016 485.65 28.488 484.626 28.488C483.65 28.488 483.106 29.112 483.026 29.896L481.33 29.512C481.474 28.168 482.69 26.968 484.61 26.968C487.01 26.968 487.922 28.328 487.922 29.88V33.752C487.922 34.456 488.002 34.92 488.018 35H486.29C486.274 34.952 486.21 34.632 486.21 34.008C485.842 34.6 485.074 35.24 483.81 35.24C482.178 35.24 481.17 34.12 481.17 32.888ZM484.162 33.784C485.202 33.784 486.098 33.288 486.098 31.768V31.416L484.066 31.72C483.49 31.816 483.026 32.136 483.026 32.776C483.026 33.304 483.426 33.784 484.162 33.784ZM489.457 32.888L491.073 32.44C491.137 33.144 491.665 33.768 492.657 33.768C493.425 33.768 493.825 33.352 493.825 32.872C493.825 32.456 493.537 32.136 492.913 32.008L491.761 31.752C490.385 31.448 489.665 30.552 489.665 29.48C489.665 28.12 490.913 26.968 492.529 26.968C494.705 26.968 495.409 28.376 495.537 29.144L493.969 29.592C493.905 29.144 493.569 28.424 492.529 28.424C491.873 28.424 491.409 28.84 491.409 29.32C491.409 29.736 491.713 30.04 492.193 30.136L493.377 30.376C494.849 30.696 495.617 31.592 495.617 32.744C495.617 33.928 494.657 35.24 492.673 35.24C490.417 35.24 489.553 33.768 489.457 32.888ZM499.129 30.424V35H497.273V23.416H499.129V27.96C499.657 27.272 500.537 26.984 501.353 26.984C503.273 26.984 504.201 28.36 504.201 30.072V35H502.345V30.392C502.345 29.432 501.913 28.664 500.745 28.664C499.721 28.664 499.161 29.432 499.129 30.424ZM508.634 24.824V27.208H510.25V28.856H508.634V32.472C508.634 33.16 508.938 33.448 509.626 33.448C509.882 33.448 510.186 33.4 510.266 33.384V34.92C510.154 34.968 509.802 35.096 509.13 35.096C507.69 35.096 506.794 34.232 506.794 32.776V28.856H505.354V27.208H505.754C506.586 27.208 506.954 26.68 506.954 25.992V24.824H508.634ZM511.369 32.888C511.369 31.496 512.393 30.728 513.721 30.536L515.721 30.232C516.169 30.168 516.297 29.944 516.297 29.672C516.297 29.016 515.849 28.488 514.825 28.488C513.849 28.488 513.305 29.112 513.225 29.896L511.529 29.512C511.673 28.168 512.889 26.968 514.809 26.968C517.209 26.968 518.121 28.328 518.121 29.88V33.752C518.121 34.456 518.201 34.92 518.217 35H516.489C516.473 34.952 516.409 34.632 516.409 34.008C516.041 34.6 515.273 35.24 514.009 35.24C512.377 35.24 511.369 34.12 511.369 32.888ZM514.361 33.784C515.401 33.784 516.297 33.288 516.297 31.768V31.416L514.265 31.72C513.689 31.816 513.225 32.136 513.225 32.776C513.225 33.304 513.625 33.784 514.361 33.784ZM519.704 35.432L521.416 34.984C521.544 35.944 522.296 36.664 523.368 36.664C524.84 36.664 525.576 35.912 525.576 34.328V33.512C525.24 34.12 524.456 34.648 523.32 34.648C521.24 34.648 519.72 33.048 519.72 30.856C519.72 28.776 521.176 27.064 523.32 27.064C524.536 27.064 525.288 27.56 525.624 28.2V27.208H527.416V34.264C527.416 36.344 526.344 38.28 523.416 38.28C521.352 38.28 519.912 37 519.704 35.432ZM523.624 33.064C524.808 33.064 525.624 32.2 525.624 30.856C525.624 29.528 524.776 28.664 523.624 28.664C522.44 28.664 521.592 29.528 521.592 30.856C521.592 32.216 522.408 33.064 523.624 33.064Z" fill="white"/>
<rect x="555" y="10" width="101" height="39" rx="19.5" fill="#292929"/>
<path d="M577.592 30.808L578.152 28.104H575.944L575.4 30.808H577.592ZM576.776 35L577.336 32.2H575.128L574.584 35H573.048L573.592 32.2H571.56V30.808H573.848L574.408 28.104H572.344V26.712H574.648L575.272 23.656H576.808L576.184 26.712H578.392L579 23.656H580.568L579.96 26.712H582.12V28.104H579.688L579.16 30.808H581.32V32.2H578.888L578.344 35H576.776ZM585.531 30.424V35H583.675V23.416H585.531V27.96C586.059 27.272 586.939 26.984 587.755 26.984C589.675 26.984 590.602 28.36 590.602 30.072V35H588.747V30.392C588.747 29.432 588.315 28.664 587.147 28.664C586.123 28.664 585.563 29.432 585.531 30.424ZM592.17 32.888C592.17 31.496 593.194 30.728 594.522 30.536L596.522 30.232C596.97 30.168 597.098 29.944 597.098 29.672C597.098 29.016 596.65 28.488 595.626 28.488C594.65 28.488 594.106 29.112 594.026 29.896L592.33 29.512C592.474 28.168 593.69 26.968 595.61 26.968C598.01 26.968 598.922 28.328 598.922 29.88V33.752C598.922 34.456 599.002 34.92 599.018 35H597.29C597.274 34.952 597.21 34.632 597.21 34.008C596.842 34.6 596.074 35.24 594.81 35.24C593.178 35.24 592.17 34.12 592.17 32.888ZM595.162 33.784C596.202 33.784 597.098 33.288 597.098 31.768V31.416L595.066 31.72C594.49 31.816 594.026 32.136 594.026 32.776C594.026 33.304 594.426 33.784 595.162 33.784ZM600.457 32.888L602.073 32.44C602.137 33.144 602.665 33.768 603.657 33.768C604.425 33.768 604.825 33.352 604.825 32.872C604.825 32.456 604.537 32.136 603.913 32.008L602.761 31.752C601.385 31.448 600.665 30.552 600.665 29.48C600.665 28.12 601.913 26.968 603.529 26.968C605.705 26.968 606.409 28.376 606.537 29.144L604.969 29.592C604.905 29.144 604.569 28.424 603.529 28.424C602.873 28.424 602.409 28.84 602.409 29.32C602.409 29.736 602.713 30.04 603.193 30.136L604.377 30.376C605.849 30.696 606.617 31.592 606.617 32.744C606.617 33.928 605.657 35.24 603.673 35.24C601.417 35.24 600.553 33.768 600.457 32.888ZM610.129 30.424V35H608.273V23.416H610.129V27.96C610.657 27.272 611.537 26.984 612.353 26.984C614.273 26.984 615.201 28.36 615.201 30.072V35H613.345V30.392C613.345 29.432 612.913 28.664 611.745 28.664C610.721 28.664 610.161 29.432 610.129 30.424ZM619.634 24.824V27.208H621.25V28.856H619.634V32.472C619.634 33.16 619.938 33.448 620.626 33.448C620.882 33.448 621.186 33.4 621.266 33.384V34.92C621.154 34.968 620.802 35.096 620.13 35.096C618.69 35.096 617.794 34.232 617.794 32.776V28.856H616.354V27.208H616.754C617.586 27.208 617.954 26.68 617.954 25.992V24.824H619.634ZM622.369 32.888C622.369 31.496 623.393 30.728 624.721 30.536L626.721 30.232C627.169 30.168 627.297 29.944 627.297 29.672C627.297 29.016 626.849 28.488 625.825 28.488C624.849 28.488 624.305 29.112 624.225 29.896L622.529 29.512C622.673 28.168 623.889 26.968 625.809 26.968C628.209 26.968 629.121 28.328 629.121 29.88V33.752C629.121 34.456 629.201 34.92 629.217 35H627.489C627.473 34.952 627.409 34.632 627.409 34.008C627.041 34.6 626.273 35.24 625.009 35.24C623.377 35.24 622.369 34.12 622.369 32.888ZM625.361 33.784C626.401 33.784 627.297 33.288 627.297 31.768V31.416L625.265 31.72C624.689 31.816 624.225 32.136 624.225 32.776C624.225 33.304 624.625 33.784 625.361 33.784ZM630.704 35.432L632.416 34.984C632.544 35.944 633.296 36.664 634.368 36.664C635.84 36.664 636.576 35.912 636.576 34.328V33.512C636.24 34.12 635.456 34.648 634.32 34.648C632.24 34.648 630.72 33.048 630.72 30.856C630.72 28.776 632.176 27.064 634.32 27.064C635.536 27.064 636.288 27.56 636.624 28.2V27.208H638.416V34.264C638.416 36.344 637.344 38.28 634.416 38.28C632.352 38.28 630.912 37 630.704 35.432ZM634.624 33.064C635.808 33.064 636.624 32.2 636.624 30.856C636.624 29.528 635.776 28.664 634.624 28.664C633.44 28.664 632.592 29.528 632.592 30.856C632.592 32.216 633.408 33.064 634.624 33.064Z" fill="white"/>
<g filter="url(#filter0_b_148_1733)">
<rect x="776.301" y="10" width="133" height="39" rx="19.5" fill="#1D1D1F" fill-opacity="0.2"/>
<rect x="780.301" y="14" width="70" height="31" rx="15.5" fill="#E83144"/>
<circle cx="795.301" cy="29.5" r="3" fill="white"/>
<path d="M816.845 35H809.725V23.656H811.645V33.176H816.845V35ZM819.94 35H818.1V27.208H819.94V35ZM817.812 24.472C817.812 23.8 818.356 23.256 819.012 23.256C819.684 23.256 820.228 23.8 820.228 24.472C820.228 25.144 819.684 25.672 819.012 25.672C818.356 25.672 817.812 25.144 817.812 24.472ZM829.26 27.208L826.204 35H824.348L821.18 27.208H823.228L825.292 32.776L827.308 27.208H829.26ZM831.694 30.248H835.518C835.486 29.336 834.878 28.52 833.598 28.52C832.43 28.52 831.758 29.416 831.694 30.248ZM835.726 32.28L837.294 32.776C836.878 34.136 835.646 35.24 833.774 35.24C831.662 35.24 829.79 33.704 829.79 31.064C829.79 28.6 831.614 26.968 833.582 26.968C835.982 26.968 837.39 28.552 837.39 31.016C837.39 31.32 837.358 31.576 837.342 31.608H831.646C831.694 32.792 832.622 33.64 833.774 33.64C834.894 33.64 835.47 33.048 835.726 32.28Z" fill="white"/>
<path d="M865.301 25.5C862.762 25.5 860.571 27.1837 859.345 28.3663C858.691 28.9976 858.691 30.0019 859.345 30.6333C860.571 31.8161 862.762 33.5 865.301 33.5C867.139 33.5 869.36 31.9901 870.8 30.8256C871.661 30.13 871.661 28.8695 870.8 28.174C869.36 27.0097 867.139 25.5 865.301 25.5ZM865.301 31.9917C863.927 31.9917 862.808 30.8738 862.808 29.4997C862.808 28.1257 863.927 27.0073 865.301 27.0073C866.675 27.0073 867.793 28.1257 867.793 29.4997C867.793 30.8738 866.675 31.9917 865.301 31.9917ZM865.301 28.0448C865.107 28.0412 864.915 28.0761 864.735 28.1476C864.556 28.219 864.392 28.3256 864.254 28.461C864.116 28.5965 864.006 28.7581 863.932 28.9364C863.857 29.1147 863.818 29.3061 863.818 29.4995C863.818 29.6929 863.857 29.8843 863.932 30.0626C864.006 30.2409 864.116 30.4025 864.254 30.5379C864.392 30.6734 864.556 30.7799 864.735 30.8514C864.915 30.9229 865.107 30.9578 865.301 30.9541C865.682 30.947 866.045 30.7905 866.312 30.5185C866.579 30.2465 866.728 29.8806 866.728 29.4995C866.728 29.1184 866.579 28.7525 866.312 28.4805C866.045 28.2084 865.682 28.052 865.301 28.0448Z" fill="white"/>
<path d="M879.037 27.848L877.165 27.672C877.133 27.512 877.117 27.304 877.117 27.112C877.117 25.16 878.573 23.416 881.101 23.416C883.549 23.416 884.989 25.032 884.989 26.936C884.989 28.424 884.157 29.624 882.845 30.44L880.621 31.848C880.029 32.216 879.533 32.648 879.373 33.272H885.053V35H877.005C877.037 33.096 877.741 31.64 879.693 30.408L881.565 29.208C882.589 28.568 883.053 27.816 883.053 26.968C883.053 25.992 882.397 25.096 881.053 25.096C879.645 25.096 878.989 26.072 878.989 27.288C878.989 27.464 879.021 27.656 879.037 27.848ZM894.082 35L890.546 30.088L889.042 31.736V35H887.122V23.656H889.042V29.096L893.922 23.656H896.45L891.858 28.664L896.498 35H894.082Z" fill="white"/>
</g>
<rect x="953.301" y="3.5" width="181" height="52" rx="12" fill="#292929"/>
<path d="M991.154 31.4424L991.064 30.5378L991.034 30.5405L991.005 30.546L991.154 31.4424ZM991.154 31.4424L991.245 32.347L991.275 32.3442L991.304 32.3397L991.154 31.4424ZM987.481 36.4262L988.057 35.7226L988.05 35.7171L987.481 36.4262ZM987.481 36.4262L986.906 37.1299L986.913 37.1363L987.481 36.4262ZM979.121 36.4262L978.546 35.7235L978.531 35.7353L978.517 35.7471L979.121 36.4262ZM979.121 36.4262L979.697 37.1308L979.711 37.119L979.725 37.1063L979.121 36.4262ZM975.447 27.5586V26.6494H975.402L975.357 26.654L975.447 27.5586ZM975.447 27.5586V28.4677H975.493L975.538 28.4631L975.447 27.5586ZM986.148 21.5556C986.133 21.3807 986.111 21.2064 986.085 21.0328C986.057 20.8418 985.999 20.6564 985.912 20.4837L984.297 21.3183C984.276 21.2774 984.28 21.2628 984.292 21.3346C984.306 21.4156 984.318 21.5283 984.339 21.7374L986.148 21.5556ZM986.234 22.4192C986.291 22.4938 986.272 22.5274 986.24 22.3501C986.21 22.181 986.187 21.9438 986.148 21.5556L984.338 21.7365C984.374 22.0947 984.405 22.4165 984.451 22.6729C984.496 22.9184 984.574 23.2411 984.788 23.5211L986.234 22.4192ZM986.234 22.4192L984.788 23.5211C984.982 23.7764 985.241 23.9757 985.537 24.0987C985.834 24.2216 986.158 24.2639 986.476 24.2211L986.234 22.4192ZM986.905 21.8692C986.701 22.0414 986.492 22.2067 986.277 22.3647C986.129 22.4674 986.14 22.4311 986.234 22.4192L986.476 24.2211C986.825 24.1739 987.109 24.0011 987.314 23.8575C987.528 23.7102 987.778 23.5047 988.056 23.2766L986.905 21.8692ZM987.829 21.2783C987.646 21.3392 987.474 21.4288 987.319 21.5437C987.191 21.6347 987.049 21.7519 986.905 21.8692L988.056 23.2766C988.219 23.1438 988.307 23.072 988.374 23.0247C988.433 22.982 988.425 22.9965 988.382 23.0102L987.829 21.2783ZM989.105 21.3419C988.701 21.167 988.248 21.1443 987.829 21.2783L988.382 23.0102L989.105 21.3419ZM989.965 22.0219C989.843 21.8961 989.716 21.7742 989.586 21.6565C989.443 21.5267 989.281 21.4205 989.104 21.3419L988.382 23.0102C988.341 22.992 988.334 22.9774 988.389 23.0256C988.451 23.0802 988.531 23.1593 988.68 23.3075L989.965 22.0219ZM990.778 22.8347L989.965 22.0219L988.68 23.3075L989.492 24.1202L990.778 22.8347ZM991.458 23.6948C991.379 23.5185 991.273 23.3558 991.143 23.2129C991.026 23.083 990.904 22.9568 990.778 22.8347L989.492 24.1211C989.641 24.2693 989.72 24.3502 989.774 24.4121C989.822 24.4666 989.808 24.4602 989.79 24.4184L991.458 23.6948ZM991.522 24.9712C991.656 24.552 991.633 24.0985 991.458 23.6948L989.79 24.4184L991.522 24.9712ZM990.931 25.8948C991.044 25.7605 991.152 25.6225 991.256 25.4812C991.353 25.3466 991.456 25.1794 991.522 24.9712L989.79 24.4184C989.803 24.3757 989.817 24.3666 989.775 24.4266C989.728 24.493 989.657 24.5812 989.523 24.7439L990.931 25.8948ZM990.381 26.5667C990.369 26.6603 990.332 26.6712 990.435 26.5231C990.532 26.3821 990.683 26.1967 990.931 25.8948L989.523 24.7439C989.296 25.0221 989.09 25.2721 988.941 25.4857C988.799 25.6912 988.626 25.9749 988.579 26.324L990.381 26.5667ZM990.381 26.5667L988.579 26.324C988.536 26.6421 988.578 26.9659 988.701 27.2624C988.824 27.559 989.023 27.8177 989.279 28.0122L990.381 26.5667ZM991.244 26.6531C990.978 26.6308 990.713 26.5996 990.45 26.5594C990.272 26.5276 990.306 26.5094 990.381 26.5667L989.279 28.0122C989.559 28.2259 989.881 28.304 990.128 28.3486C990.383 28.394 990.705 28.4259 991.063 28.4622L991.244 26.6531ZM992.316 26.8876C992.143 26.8012 991.958 26.7429 991.767 26.7149C991.594 26.6887 991.419 26.6681 991.244 26.6531L991.063 28.4622C991.198 28.4741 991.332 28.4892 991.466 28.5077C991.539 28.5204 991.523 28.525 991.483 28.5041L992.316 26.8876ZM993.174 27.8358C993.012 27.4264 992.707 27.0895 992.316 26.8876L991.483 28.5059L993.174 27.8358ZM993.301 28.925C993.301 28.7395 993.301 28.555 993.291 28.3986C993.282 28.2056 993.242 28.0154 993.173 27.8349L991.483 28.5059C991.467 28.4631 991.473 28.4486 991.478 28.5213C991.483 28.6032 991.483 28.7168 991.483 28.9268L993.301 28.925ZM993.301 30.0741V28.925H991.483V30.0741H993.301ZM993.174 31.1633C993.254 30.9605 993.28 30.766 993.291 30.5996C993.301 30.4441 993.301 30.2596 993.301 30.0741H991.483C991.483 30.2841 991.483 30.3978 991.477 30.4796C991.472 30.5523 991.466 30.5378 991.483 30.4951L993.174 31.1633ZM992.316 32.1115C992.707 31.9096 993.012 31.5727 993.174 31.1633L991.483 30.496L992.316 32.1115ZM991.244 32.346C991.43 32.3279 991.613 32.3097 991.767 32.2842C991.931 32.2569 992.122 32.2115 992.316 32.1115L991.483 30.496C991.523 30.4751 991.539 30.4796 991.467 30.4914C991.333 30.5106 991.199 30.5261 991.064 30.5378L991.244 32.346ZM990.382 32.4324C990.306 32.4897 990.272 32.4715 990.45 32.4397C990.619 32.4097 990.856 32.3851 991.244 32.346L991.063 30.5369C990.706 30.5732 990.383 30.6041 990.128 30.6505C989.882 30.6951 989.559 30.7732 989.279 30.9869L990.382 32.4324ZM990.382 32.4324L989.279 30.9869C989.023 31.1815 988.824 31.4401 988.701 31.7367C988.578 32.0332 988.536 32.357 988.579 32.6751L990.382 32.4324ZM990.931 33.1034C990.758 32.8999 990.593 32.6907 990.435 32.476C990.332 32.3279 990.37 32.3388 990.382 32.4324L988.579 32.6751C988.626 33.0243 988.799 33.3079 988.942 33.5134C989.091 33.727 989.296 33.977 989.523 34.2552L990.931 33.1034ZM991.522 34.027C991.461 33.8443 991.371 33.6725 991.256 33.5179C991.165 33.3897 991.048 33.2479 990.931 33.1034L989.523 34.2552C989.656 34.418 989.728 34.5052 989.775 34.5725C989.818 34.6316 989.804 34.6243 989.79 34.5816L991.522 34.027ZM991.458 35.3044C991.633 34.9003 991.656 34.4465 991.522 34.027L989.79 34.5816L991.458 35.3044ZM990.778 36.1644C990.91 36.0326 991.04 35.9035 991.143 35.7853C991.253 35.6598 991.371 35.5044 991.458 35.3034L989.79 34.5807C989.808 34.5389 989.822 34.5334 989.774 34.588C989.72 34.6498 989.641 34.7298 989.492 34.8789L990.778 36.1644ZM989.965 36.9762L990.778 36.1644L989.492 34.8789L988.68 35.6907L989.965 36.9762ZM989.105 37.6572C989.281 37.5783 989.444 37.4718 989.587 37.3417C989.704 37.239 989.834 37.1081 989.965 36.9762L988.68 35.6907C988.585 35.7874 988.488 35.8813 988.389 35.9726C988.334 36.0217 988.341 36.0071 988.382 35.9889L989.105 37.6572ZM987.829 37.7208C988.248 37.8548 988.701 37.8322 989.105 37.6572L988.382 35.9889L987.829 37.7208ZM986.905 37.1299C987.049 37.2472 987.191 37.3645 987.319 37.4554C987.453 37.5508 987.621 37.6545 987.829 37.7208L988.382 35.9889C988.425 36.0026 988.433 36.0162 988.373 35.9744C988.265 35.8934 988.159 35.8094 988.056 35.7226L986.905 37.1299ZM986.234 36.5808C986.14 36.5671 986.129 36.5308 986.277 36.6335C986.418 36.7317 986.602 36.8817 986.904 37.129L988.056 35.7226C987.778 35.4944 987.528 35.2889 987.314 35.1407C987.109 34.9971 986.825 34.8252 986.476 34.778L986.234 36.5808ZM986.234 36.5808L986.476 34.778C986.158 34.7352 985.834 34.7775 985.537 34.9005C985.241 35.0234 984.982 35.2227 984.788 35.478L986.234 36.5808ZM986.147 37.4435C986.186 37.0553 986.21 36.8172 986.24 36.649C986.272 36.4717 986.29 36.5044 986.233 36.5799L984.788 35.4771C984.574 35.7571 984.496 36.0798 984.451 36.3262C984.406 36.5826 984.375 36.9044 984.339 37.2626L986.147 37.4435ZM985.911 38.5154C986.011 38.3209 986.057 38.1299 986.084 37.9663C986.111 37.8117 986.128 37.629 986.147 37.4435L984.339 37.2626C984.327 37.3976 984.311 37.5313 984.291 37.6654C984.279 37.7381 984.275 37.7226 984.296 37.6817L985.911 38.5154ZM984.965 39.3727C985.374 39.2108 985.71 38.9062 985.911 38.5154L984.297 37.6826L984.965 39.3727ZM983.874 39.5C984.06 39.5 984.245 39.5 984.401 39.49C984.567 39.4791 984.761 39.4545 984.965 39.3727L984.297 37.6826C984.339 37.6663 984.354 37.6717 984.281 37.6772C984.146 37.6828 984.011 37.6846 983.876 37.6826L983.874 39.5ZM982.726 39.5H983.874L983.875 37.6817H982.726V39.5ZM981.637 39.3727C981.839 39.4527 982.034 39.4791 982.2 39.49C982.356 39.5 982.54 39.5 982.726 39.5V37.6817C982.516 37.6817 982.402 37.6817 982.32 37.6763C982.248 37.6708 982.262 37.6654 982.305 37.6817L981.637 39.3727ZM980.688 38.5154C980.89 38.9065 981.227 39.2111 981.637 39.3727L982.305 37.6817L980.688 38.5154ZM980.454 37.4435C980.472 37.629 980.49 37.8117 980.516 37.9663C980.543 38.1299 980.588 38.3209 980.688 38.5154L982.307 37.6826C982.328 37.7226 982.323 37.7381 982.311 37.6663C982.292 37.5325 982.277 37.3982 982.265 37.2635L980.454 37.4435ZM980.367 36.5799C980.31 36.5053 980.328 36.4708 980.36 36.649C980.39 36.8172 980.415 37.0553 980.454 37.4435L982.263 37.2626C982.227 36.9044 982.196 36.5826 982.149 36.3262C982.105 36.0808 982.027 35.758 981.813 35.478L980.367 36.5799ZM980.367 36.5799L981.813 35.478C981.618 35.2227 981.36 35.0234 981.063 34.9005C980.767 34.7775 980.443 34.7352 980.125 34.778L980.367 36.5799ZM979.696 37.1299C979.998 36.8826 980.183 36.7317 980.324 36.6344C980.472 36.5317 980.461 36.5681 980.367 36.5799L980.125 34.778C979.776 34.8252 979.492 34.998 979.287 35.1416C979.073 35.2889 978.823 35.4944 978.545 35.7226L979.696 37.1299ZM978.772 37.7208C978.955 37.66 979.127 37.5703 979.282 37.4554C979.409 37.3645 979.552 37.2472 979.696 37.1299L978.546 35.7235C978.442 35.8104 978.337 35.8943 978.228 35.9753C978.169 36.018 978.177 36.0044 978.22 35.9898L978.772 37.7208ZM977.496 37.6572C977.899 37.8322 978.353 37.8548 978.772 37.7208L978.218 35.9889L977.496 37.6572ZM976.635 36.9772C976.766 37.109 976.896 37.239 977.015 37.3426C977.139 37.4517 977.295 37.5708 977.496 37.6581L978.218 35.9889C978.26 36.0071 978.266 36.0217 978.212 35.9735C978.112 35.8823 978.015 35.7883 977.921 35.6916L976.635 36.9772ZM975.823 36.1644L976.635 36.9772L977.921 35.6916L977.108 34.8789L975.823 36.1644ZM975.143 35.3044C975.229 35.5044 975.348 35.6607 975.457 35.7862C975.561 35.9035 975.691 36.0335 975.823 36.1644L977.108 34.8789C977.012 34.7845 976.918 34.6875 976.826 34.588C976.778 34.5334 976.793 34.5398 976.811 34.5816L975.143 35.3044ZM975.079 34.0279C974.945 34.4471 974.968 34.9006 975.143 35.3044L976.811 34.5816L975.079 34.0279ZM975.67 33.1043C975.557 33.2386 975.449 33.3766 975.345 33.5179C975.23 33.6728 975.14 33.8449 975.079 34.0279L976.811 34.5816C976.796 34.6243 976.784 34.6325 976.826 34.5725C976.873 34.5061 976.944 34.418 977.077 34.2552L975.67 33.1043ZM976.219 32.4324C976.232 32.3388 976.268 32.3279 976.165 32.476C976.068 32.617 975.917 32.8024 975.67 33.1043L977.077 34.2552C977.305 33.977 977.511 33.727 977.659 33.5134C977.802 33.3079 977.975 33.0243 978.022 32.6751L976.219 32.4324ZM976.219 32.4324L978.022 32.6751C978.065 32.357 978.022 32.0332 977.899 31.7367C977.776 31.4401 977.577 31.1815 977.322 30.9869L976.219 32.4324ZM975.355 32.346C975.745 32.3851 975.983 32.4097 976.151 32.4397C976.328 32.4715 976.295 32.4897 976.219 32.4324L977.322 30.9869C977.042 30.7732 976.72 30.6951 976.473 30.6505C976.217 30.6051 975.895 30.5732 975.536 30.5369L975.355 32.346ZM974.284 32.1115C974.479 32.2115 974.67 32.2569 974.834 32.2842C974.988 32.3097 975.171 32.3288 975.356 32.347L975.536 30.5369C975.402 30.5255 975.268 30.5103 975.135 30.4914C975.062 30.4787 975.077 30.4741 975.118 30.4951L974.284 32.1115ZM973.428 31.1642C973.59 31.5736 973.894 31.9105 974.285 32.1124L975.119 30.496L973.428 31.1642ZM973.301 30.075C973.301 30.2605 973.301 30.4451 973.311 30.6014C973.322 30.7669 973.347 30.9614 973.429 31.1651L975.119 30.4951C975.135 30.5378 975.13 30.5523 975.125 30.4796C975.12 30.3448 975.117 30.2099 975.119 30.075H973.301ZM973.301 28.9259V30.075H975.119V28.9259H973.301ZM973.428 27.8358C973.359 28.0163 973.32 28.2066 973.311 28.3995C973.3 28.5559 973.301 28.7404 973.301 28.9268H975.119C975.119 28.7159 975.119 28.6022 975.125 28.5204C975.13 28.4477 975.135 28.4622 975.119 28.505L973.428 27.8358ZM974.285 26.8894C973.895 27.0909 973.59 27.4271 973.428 27.8358L975.119 28.505L974.285 26.8894ZM975.357 26.6531C975.172 26.6722 974.989 26.6894 974.835 26.7167C974.671 26.744 974.48 26.7894 974.285 26.8894L975.119 28.505C975.078 28.5259 975.064 28.5213 975.135 28.5095C975.269 28.4903 975.404 28.4749 975.538 28.4631L975.357 26.6531ZM976.221 26.5676C976.296 26.5103 976.33 26.5285 976.152 26.5603C975.984 26.5903 975.745 26.6149 975.357 26.654L975.538 28.4631C975.895 28.4268 976.218 28.3959 976.475 28.3495C976.721 28.305 977.044 28.2268 977.324 28.0131L976.221 26.5676ZM976.221 26.5676L977.324 28.0131C977.579 27.8185 977.778 27.5597 977.901 27.2632C978.024 26.9667 978.066 26.6429 978.023 26.3249L976.221 26.5676ZM975.671 25.8958C975.918 26.1976 976.069 26.3831 976.167 26.524C976.27 26.6722 976.234 26.6612 976.221 26.5676L978.023 26.3249C977.976 25.9758 977.804 25.693 977.66 25.4866C977.512 25.273 977.306 25.023 977.078 24.7448L975.671 25.8958ZM975.08 24.9712C975.146 25.1803 975.249 25.3466 975.345 25.4821C975.436 25.6094 975.554 25.7521 975.671 25.8958L977.078 24.7448C976.991 24.6411 976.907 24.5359 976.826 24.4275C976.784 24.3684 976.798 24.3757 976.812 24.4184L975.08 24.9712ZM975.144 23.6957C974.969 24.0991 974.946 24.5523 975.08 24.9712L976.812 24.4184L975.144 23.6957ZM975.824 22.8347C975.692 22.9665 975.562 23.0956 975.458 23.2138C975.328 23.3567 975.222 23.5194 975.144 23.6957L976.812 24.4184C976.794 24.4602 976.779 24.4666 976.827 24.4111C976.882 24.3493 976.961 24.2693 977.109 24.1202L975.824 22.8347ZM976.636 22.0229L975.824 22.8347L977.109 24.1202L977.923 23.3084L976.636 22.0229ZM977.496 21.3419C977.32 21.4208 977.157 21.5273 977.015 21.6574C976.885 21.7751 976.759 21.897 976.636 22.0229L977.923 23.3084C978.071 23.1593 978.151 23.0802 978.213 23.0265C978.267 22.9774 978.261 22.992 978.219 23.0102L977.496 21.3419ZM978.773 21.2783C978.354 21.1443 977.9 21.167 977.496 21.3419L978.219 23.0102L978.773 21.2783ZM979.696 21.8692C979.552 21.7519 979.411 21.6356 979.283 21.5447C979.128 21.4294 978.956 21.3394 978.773 21.2783L978.219 23.0102C978.176 22.9965 978.168 22.9829 978.228 23.0247C978.295 23.0729 978.383 23.1438 978.546 23.2775L979.696 21.8692ZM980.368 22.4192C980.462 22.432 980.473 22.4683 980.325 22.3656C980.11 22.2076 979.901 22.0423 979.697 21.8701L978.546 23.2775C978.824 23.5047 979.073 23.7102 979.287 23.8593C979.492 24.002 979.776 24.1739 980.125 24.2211L980.368 22.4192ZM980.368 22.4192L980.126 24.2211C980.444 24.2639 980.768 24.2216 981.064 24.0987C981.361 23.9757 981.619 23.7764 981.814 23.5211L980.368 22.4192ZM980.455 21.5556C980.416 21.9447 980.391 22.1829 980.361 22.3511C980.329 22.5283 980.311 22.4947 980.368 22.4192L981.814 23.5211C982.028 23.2411 982.106 22.9193 982.15 22.6729C982.196 22.4174 982.228 22.0947 982.264 21.7365L980.455 21.5556ZM980.689 20.4846C980.603 20.6573 980.545 20.8427 980.517 21.0337C980.491 21.1883 980.473 21.371 980.455 21.5565L982.264 21.7365C982.276 21.6019 982.291 21.4685 982.309 21.3346C982.322 21.2619 982.327 21.2783 982.306 21.3183L980.689 20.4846ZM981.638 19.6273C981.228 19.7889 980.891 20.0935 980.689 20.4846L982.306 21.3183L981.638 19.6273ZM982.727 19.5C982.541 19.5 982.357 19.5 982.2 19.51C982.007 19.5189 981.817 19.5585 981.637 19.6273L982.307 21.3183C982.264 21.3346 982.249 21.3292 982.322 21.3246C982.404 21.3192 982.518 21.3183 982.728 21.3183L982.727 19.5ZM983.876 19.5H982.727V21.3183H983.876V19.5ZM984.965 19.6273C984.784 19.5585 984.594 19.5189 984.401 19.51C984.247 19.4991 984.062 19.5 983.877 19.5V21.3183C984.087 21.3183 984.2 21.3183 984.282 21.3246C984.355 21.3292 984.339 21.3346 984.297 21.3183L984.965 19.6273ZM985.913 20.4846C985.711 20.0935 985.374 19.7889 984.965 19.6273L984.297 21.3183L985.913 20.4846ZM986.029 29.5005C986.029 30.2238 985.741 30.9175 985.23 31.429C984.718 31.9405 984.025 32.2279 983.301 32.2279V34.0461C984.507 34.0461 985.663 33.5672 986.516 32.7147C987.368 31.8623 987.847 30.706 987.847 29.5005H986.029ZM983.301 26.7731C984.025 26.7731 984.718 27.0604 985.23 27.5719C985.741 28.0834 986.029 28.7771 986.029 29.5005H987.847C987.847 28.2949 987.368 27.1387 986.516 26.2862C985.663 25.4337 984.507 24.9548 983.301 24.9548V26.7731ZM980.574 29.5005C980.574 28.7771 980.861 28.0834 981.373 27.5719C981.884 27.0604 982.578 26.7731 983.301 26.7731V24.9548C982.096 24.9548 980.939 25.4337 980.087 26.2862C979.235 27.1387 978.756 28.2949 978.756 29.5005H980.574ZM983.301 32.2279C982.578 32.2279 981.884 31.9405 981.373 31.429C980.861 30.9175 980.574 30.2238 980.574 29.5005H978.756C978.756 30.706 979.235 31.8623 980.087 32.7147C980.939 33.5672 982.096 34.0461 983.301 34.0461V32.2279Z" fill="white"/>
<path d="M1013.86 36.5H1005.2V22.32H1007.16V34.66H1013.86V36.5ZM1017.45 36.5H1015.59V26.88H1017.45V36.5ZM1015.17 23.24C1015.17 22.48 1015.77 21.88 1016.51 21.88C1017.27 21.88 1017.87 22.48 1017.87 23.24C1017.87 23.98 1017.27 24.58 1016.51 24.58C1015.77 24.58 1015.17 23.98 1015.17 23.24ZM1028.89 26.88L1025.05 36.5H1023.15L1019.25 26.88H1021.37L1024.11 34.3L1026.87 26.88H1028.89ZM1031.76 30.7H1037.02C1036.98 29.32 1036.08 28.24 1034.38 28.24C1032.8 28.24 1031.84 29.46 1031.76 30.7ZM1037.3 33.2L1038.92 33.76C1038.38 35.46 1036.84 36.8 1034.6 36.8C1032.02 36.8 1029.76 34.92 1029.76 31.66C1029.76 28.64 1031.94 26.58 1034.36 26.58C1037.32 26.58 1038.98 28.62 1038.98 31.62C1038.98 31.86 1038.96 32.1 1038.94 32.22H1031.7C1031.74 33.94 1032.98 35.14 1034.6 35.14C1036.16 35.14 1036.94 34.28 1037.3 33.2ZM1045.29 34L1046.99 33.4C1047.11 34.4 1047.87 35.2 1049.23 35.2C1050.29 35.2 1050.87 34.6 1050.87 33.92C1050.87 33.32 1050.43 32.86 1049.63 32.68L1047.99 32.32C1046.49 32 1045.59 30.98 1045.59 29.62C1045.59 27.98 1047.13 26.58 1049.01 26.58C1051.65 26.58 1052.47 28.3 1052.67 29.16L1051.01 29.78C1050.93 29.28 1050.53 28.18 1049.01 28.18C1048.05 28.18 1047.41 28.8 1047.41 29.46C1047.41 30.04 1047.77 30.46 1048.51 30.62L1050.07 30.96C1051.81 31.34 1052.73 32.4 1052.73 33.82C1052.73 35.18 1051.59 36.8 1049.21 36.8C1046.57 36.8 1045.45 35.1 1045.29 34ZM1056.34 30.7H1061.6C1061.56 29.32 1060.66 28.24 1058.96 28.24C1057.38 28.24 1056.42 29.46 1056.34 30.7ZM1061.88 33.2L1063.5 33.76C1062.96 35.46 1061.42 36.8 1059.18 36.8C1056.6 36.8 1054.34 34.92 1054.34 31.66C1054.34 28.64 1056.52 26.58 1058.94 26.58C1061.9 26.58 1063.56 28.62 1063.56 31.62C1063.56 31.86 1063.54 32.1 1063.52 32.22H1056.28C1056.32 33.94 1057.56 35.14 1059.18 35.14C1060.74 35.14 1061.52 34.28 1061.88 33.2ZM1068.28 23.84V26.88H1070.36V28.58H1068.28V33.58C1068.28 34.46 1068.64 34.9 1069.62 34.9C1069.86 34.9 1070.2 34.86 1070.36 34.82V36.42C1070.2 36.48 1069.72 36.6 1069.08 36.6C1067.44 36.6 1066.4 35.6 1066.4 33.86V28.58H1064.56V26.88H1065.08C1066.12 26.88 1066.56 26.24 1066.56 25.4V23.84H1068.28ZM1075.05 23.84V26.88H1077.13V28.58H1075.05V33.58C1075.05 34.46 1075.41 34.9 1076.39 34.9C1076.63 34.9 1076.97 34.86 1077.13 34.82V36.42C1076.97 36.48 1076.49 36.6 1075.85 36.6C1074.21 36.6 1073.17 35.6 1073.17 33.86V28.58H1071.33V26.88H1071.85C1072.89 26.88 1073.33 26.24 1073.33 25.4V23.84H1075.05ZM1081.06 36.5H1079.2V26.88H1081.06V36.5ZM1078.78 23.24C1078.78 22.48 1079.38 21.88 1080.12 21.88C1080.88 21.88 1081.48 22.48 1081.48 23.24C1081.48 23.98 1080.88 24.58 1080.12 24.58C1079.38 24.58 1078.78 23.98 1078.78 23.24ZM1085.81 30.94V36.5H1083.93V26.88H1085.77V28.26C1086.47 27.06 1087.61 26.6 1088.73 26.6C1091.03 26.6 1092.17 28.26 1092.17 30.4V36.5H1090.29V30.72C1090.29 29.38 1089.73 28.3 1088.05 28.3C1086.57 28.3 1085.81 29.48 1085.81 30.94ZM1094.3 37.02L1096.12 36.6C1096.26 37.94 1097.28 38.96 1098.74 38.96C1100.76 38.96 1101.68 37.92 1101.68 35.84V34.46C1101.22 35.34 1100.18 36.04 1098.74 36.04C1096.18 36.04 1094.32 34.1 1094.32 31.38C1094.32 28.78 1096.1 26.7 1098.74 26.7C1100.22 26.7 1101.22 27.26 1101.7 28.22V26.88H1103.56V35.78C1103.56 38.22 1102.36 40.6 1098.74 40.6C1096.34 40.6 1094.54 39.08 1094.3 37.02ZM1099.02 34.46C1100.64 34.46 1101.76 33.24 1101.76 31.38C1101.76 29.52 1100.64 28.3 1099.02 28.3C1097.36 28.3 1096.24 29.52 1096.24 31.38C1096.24 33.26 1097.32 34.46 1099.02 34.46ZM1105.67 34L1107.37 33.4C1107.49 34.4 1108.25 35.2 1109.61 35.2C1110.67 35.2 1111.25 34.6 1111.25 33.92C1111.25 33.32 1110.81 32.86 1110.01 32.68L1108.37 32.32C1106.87 32 1105.97 30.98 1105.97 29.62C1105.97 27.98 1107.51 26.58 1109.39 26.58C1112.03 26.58 1112.85 28.3 1113.05 29.16L1111.39 29.78C1111.31 29.28 1110.91 28.18 1109.39 28.18C1108.43 28.18 1107.79 28.8 1107.79 29.46C1107.79 30.04 1108.15 30.46 1108.89 30.62L1110.45 30.96C1112.19 31.34 1113.11 32.4 1113.11 33.82C1113.11 35.18 1111.97 36.8 1109.59 36.8C1106.95 36.8 1105.83 35.1 1105.67 34Z" fill="white"/>
<rect x="1254.6" y="3.5" width="167.429" height="52" rx="12" fill="white"/>
<path d="M1300.31 35.2143V37.5H1286.6V35.2143C1286.6 35.2143 1286.6 30.6429 1293.46 30.6429C1300.31 30.6429 1300.31 35.2143 1300.31 35.2143ZM1296.89 24.9286C1296.89 24.2505 1296.68 23.5876 1296.31 23.0238C1295.93 22.4599 1295.4 22.0205 1294.77 21.761C1294.14 21.5015 1293.45 21.4336 1292.79 21.5659C1292.12 21.6982 1291.51 22.0247 1291.03 22.5042C1290.55 22.9837 1290.23 23.5946 1290.09 24.2597C1289.96 24.9248 1290.03 25.6141 1290.29 26.2406C1290.55 26.8671 1290.99 27.4026 1291.55 27.7793C1292.12 28.1561 1292.78 28.3571 1293.46 28.3571C1294.37 28.3571 1295.24 27.9959 1295.88 27.3529C1296.52 26.71 1296.89 25.8379 1296.89 24.9286ZM1300.54 30.7114C1301.17 31.2878 1301.67 31.9828 1302.02 32.7559C1302.38 33.529 1302.57 34.3647 1302.6 35.2143V37.5H1306.03V35.2143C1306.03 35.2143 1306.03 31.2714 1300.54 30.7114ZM1299.17 21.5C1298.83 21.5 1298.48 21.554 1298.15 21.66C1298.82 22.6188 1299.18 23.7596 1299.18 24.9286C1299.18 26.0975 1298.82 27.2383 1298.15 28.1971C1298.48 28.3031 1298.83 28.3571 1299.17 28.3571C1300.08 28.3571 1300.95 27.9959 1301.6 27.3529C1302.24 26.71 1302.6 25.8379 1302.6 24.9286C1302.6 24.0193 1302.24 23.1472 1301.6 22.5042C1300.95 21.8612 1300.08 21.5 1299.17 21.5ZM1287.74 27.2143H1284.31V23.7857H1282.03V27.2143H1278.6V29.5H1282.03V32.9286H1284.31V29.5H1287.74V27.2143Z" fill="#1D1D1F"/>
<path d="M1319.12 36.5H1316.32V22.32H1319.12V36.5ZM1324.63 30.84V36.5H1321.97V26.66H1324.55V27.88C1325.15 26.86 1326.33 26.4 1327.39 26.4C1329.83 26.4 1330.95 28.14 1330.95 30.3V36.5H1328.29V30.76C1328.29 29.66 1327.75 28.8 1326.47 28.8C1325.31 28.8 1324.63 29.7 1324.63 30.84ZM1342.55 26.66L1338.73 36.5H1336.07L1332.05 26.66H1334.97L1337.41 33.26L1339.75 26.66H1342.55ZM1346.74 36.5H1344.08V26.66H1346.74V36.5ZM1343.76 23.44C1343.76 22.52 1344.5 21.78 1345.4 21.78C1346.32 21.78 1347.04 22.52 1347.04 23.44C1347.04 24.32 1346.32 25.06 1345.4 25.06C1344.5 25.06 1343.76 24.32 1343.76 23.44ZM1352.75 23.72V26.66H1354.73V29.02H1352.75V33.14C1352.75 34 1353.15 34.28 1353.91 34.28C1354.23 34.28 1354.59 34.24 1354.73 34.2V36.4C1354.49 36.5 1354.01 36.64 1353.23 36.64C1351.31 36.64 1350.11 35.5 1350.11 33.6V29.02H1348.33V26.66H1348.83C1349.87 26.66 1350.35 25.98 1350.35 25.1V23.72H1352.75ZM1358.68 30.46H1363.08C1363.04 29.48 1362.4 28.52 1360.88 28.52C1359.5 28.52 1358.74 29.56 1358.68 30.46ZM1363.34 33.02L1365.56 33.68C1365.06 35.38 1363.5 36.8 1361.08 36.8C1358.38 36.8 1356 34.86 1356 31.54C1356 28.4 1358.32 26.36 1360.84 26.36C1363.88 26.36 1365.7 28.3 1365.7 31.46C1365.7 31.84 1365.66 32.24 1365.66 32.28H1358.62C1358.68 33.58 1359.78 34.52 1361.1 34.52C1362.34 34.52 1363.02 33.9 1363.34 33.02Z" fill="#1D1D1F"/>
<path d="M1373.86 29.476L1371.74 29.364C1371.7 29.204 1371.67 28.916 1371.67 28.66C1371.67 26.692 1373.14 24.916 1375.74 24.916C1378.25 24.916 1379.75 26.564 1379.75 28.5C1379.75 29.988 1378.94 31.188 1377.58 32.02L1375.37 33.38C1374.89 33.7 1374.46 34.036 1374.3 34.564H1379.82V36.5H1371.58C1371.59 34.532 1372.26 32.98 1374.26 31.764L1376.12 30.612C1377.1 30.004 1377.51 29.364 1377.51 28.548C1377.51 27.668 1376.92 26.868 1375.69 26.868C1374.41 26.868 1373.8 27.748 1373.8 28.868C1373.8 29.076 1373.83 29.284 1373.86 29.476ZM1388.31 25.156L1382.76 36.5H1380.84L1386.38 25.156H1388.31ZM1388.85 33.316L1390.93 32.82C1391.01 33.956 1391.86 34.836 1393.14 34.836C1394.28 34.836 1395.2 34.084 1395.2 32.868C1395.2 31.524 1394.2 30.852 1393.11 30.852C1392.31 30.852 1391.65 31.188 1391.27 31.636C1390.93 31.508 1389.52 31.028 1389.2 30.9L1390.58 25.156H1396.84V27.076H1392.08L1391.43 29.78C1391.91 29.316 1392.79 29.06 1393.56 29.06C1395.83 29.06 1397.43 30.436 1397.43 32.836C1397.43 34.948 1395.81 36.74 1393.14 36.74C1390.68 36.74 1389.01 35.108 1388.85 33.316Z" fill="#4055E2"/>
<rect x="1478.53" y="6.5" width="203" height="46" rx="11.5" stroke="#E83144"/>
<path d="M1515.36 29.4999C1515.36 30.159 1515.17 30.8033 1514.8 31.3513C1514.43 31.8993 1513.91 32.3264 1513.31 32.5786C1512.7 32.8308 1512.03 32.8968 1511.38 32.7682C1510.73 32.6396 1510.14 32.3223 1509.67 31.8562C1509.21 31.3902 1508.89 30.7964 1508.76 30.15C1508.63 29.5036 1508.7 28.8336 1508.95 28.2247C1509.2 27.6158 1509.63 27.0953 1510.18 26.7292C1510.73 26.363 1511.37 26.1676 1512.03 26.1676C1512.91 26.1676 1513.76 26.5186 1514.39 27.1436C1515.01 27.7685 1515.36 28.6161 1515.36 29.4999ZM1518.69 29.4999C1518.7 27.8603 1518.09 26.2778 1517 25.0571C1516.94 24.9903 1516.87 24.9356 1516.79 24.8964C1516.71 24.8572 1516.62 24.8341 1516.54 24.8285C1516.45 24.8229 1516.36 24.8349 1516.28 24.8639C1516.19 24.8928 1516.12 24.9381 1516.05 24.997C1515.98 25.056 1515.93 25.1275 1515.89 25.2073C1515.85 25.2872 1515.83 25.3738 1515.83 25.4621C1515.82 25.5504 1515.84 25.6387 1515.87 25.7217C1515.9 25.8048 1515.94 25.881 1516 25.946C1516.88 26.9235 1517.36 28.1889 1517.36 29.5003C1517.36 30.8117 1516.88 32.0772 1516 33.0547C1515.89 33.1869 1515.83 33.3588 1515.84 33.5334C1515.85 33.7079 1515.93 33.8712 1516.06 33.9878C1516.19 34.1045 1516.36 34.1652 1516.54 34.157C1516.71 34.1487 1516.88 34.0721 1517 33.9436C1518.09 32.7223 1518.7 31.1397 1518.69 29.4999ZM1508.06 25.946C1508.12 25.881 1508.16 25.8048 1508.19 25.7217C1508.22 25.6387 1508.24 25.5504 1508.23 25.4621C1508.23 25.3738 1508.21 25.2872 1508.17 25.2073C1508.13 25.1275 1508.08 25.056 1508.01 24.997C1507.94 24.9381 1507.87 24.8928 1507.78 24.8639C1507.7 24.8349 1507.61 24.8229 1507.52 24.8285C1507.44 24.8341 1507.35 24.8572 1507.27 24.8964C1507.19 24.9356 1507.12 24.9903 1507.06 25.0571C1505.97 26.2785 1505.36 27.8606 1505.36 29.5003C1505.36 31.1401 1505.97 32.7222 1507.06 33.9436C1507.18 34.0721 1507.35 34.1487 1507.52 34.157C1507.69 34.1652 1507.87 34.1045 1508 33.9878C1508.13 33.8712 1508.21 33.7079 1508.22 33.5334C1508.23 33.3588 1508.17 33.1869 1508.06 33.0547C1507.18 32.0776 1506.7 30.812 1506.7 29.5003C1506.7 28.1886 1507.18 26.9231 1508.06 25.946ZM1521.24 25.6127C1520.75 24.4544 1520.05 23.3989 1519.17 22.502C1519.11 22.4371 1519.04 22.385 1518.96 22.3487C1518.87 22.3125 1518.79 22.2928 1518.7 22.2909C1518.61 22.289 1518.52 22.3049 1518.44 22.3376C1518.36 22.3703 1518.28 22.4192 1518.22 22.4814C1518.15 22.5436 1518.1 22.6179 1518.07 22.6999C1518.03 22.7818 1518.02 22.8698 1518.02 22.9587C1518.02 23.0475 1518.04 23.1354 1518.07 23.2172C1518.1 23.299 1518.16 23.3731 1518.22 23.435C1519.81 25.0534 1520.7 27.2305 1520.7 29.4982C1520.7 31.7659 1519.81 33.9431 1518.22 35.5614C1518.16 35.6239 1518.11 35.6979 1518.08 35.7791C1518.04 35.8604 1518.03 35.9473 1518.03 36.0349C1518.03 36.1226 1518.05 36.2092 1518.08 36.2899C1518.11 36.3707 1518.16 36.4438 1518.23 36.5053C1518.29 36.5668 1518.36 36.6154 1518.44 36.6483C1518.53 36.6812 1518.61 36.6978 1518.7 36.6971C1518.79 36.6964 1518.87 36.6784 1518.95 36.6442C1519.04 36.61 1519.11 36.5603 1519.17 36.4978C1520.55 35.0888 1521.48 33.3035 1521.85 31.3661C1522.22 29.4288 1522.01 27.4257 1521.24 25.6086V25.6127ZM1504.05 32.8722C1503.38 31.298 1503.2 29.5619 1503.51 27.8827C1503.83 26.2036 1504.64 24.6566 1505.84 23.4367C1505.96 23.3105 1506.03 23.1403 1506.03 22.9635C1506.03 22.7866 1505.96 22.6176 1505.83 22.4937C1505.71 22.3697 1505.54 22.3009 1505.36 22.3025C1505.18 22.3041 1505.01 22.3758 1504.89 22.502C1503.06 24.3694 1502.03 26.8823 1502.03 29.4999C1502.03 32.1175 1503.06 34.6304 1504.89 36.4978C1504.95 36.5627 1505.02 36.6148 1505.1 36.6511C1505.19 36.6873 1505.27 36.707 1505.36 36.7089C1505.45 36.7108 1505.54 36.6949 1505.62 36.6622C1505.7 36.6295 1505.78 36.5806 1505.84 36.5184C1505.91 36.4562 1505.96 36.3819 1505.99 36.3C1506.03 36.218 1506.04 36.13 1506.04 36.0412C1506.04 35.9523 1506.02 35.8644 1505.99 35.7826C1505.96 35.7008 1505.9 35.6267 1505.84 35.5648C1505.08 34.7884 1504.47 33.8749 1504.05 32.8722Z" fill="#E83144"/>
<path d="M1538.75 35H1531.64V23.656H1538.75V25.736H1533.85V28.328H1538.28V30.296H1533.85V32.92H1538.75V35ZM1542.54 30.472V35H1540.41V27.128H1542.47V28.104C1542.95 27.288 1543.9 26.92 1544.75 26.92C1546.7 26.92 1547.59 28.312 1547.59 30.04V35H1545.47V30.408C1545.47 29.528 1545.03 28.84 1544.01 28.84C1543.08 28.84 1542.54 29.56 1542.54 30.472ZM1557.14 23.416V33.576C1557.14 34.104 1557.17 34.68 1557.21 35H1555.17C1555.14 34.84 1555.09 34.456 1555.09 34.088C1554.74 34.712 1553.94 35.192 1552.89 35.192C1550.65 35.192 1549.05 33.432 1549.05 31.048C1549.05 28.744 1550.6 26.936 1552.82 26.936C1554.18 26.936 1554.82 27.496 1555.05 27.912V23.416H1557.14ZM1551.19 31.048C1551.19 32.456 1552.02 33.288 1553.14 33.288C1554.23 33.288 1555.08 32.456 1555.08 31.032C1555.08 29.624 1554.23 28.84 1553.14 28.84C1552.05 28.84 1551.19 29.64 1551.19 31.048ZM1564.85 35H1562.79V23.416H1564.89V27.992C1565.24 27.432 1566.1 26.92 1567.27 26.92C1569.57 26.92 1570.9 28.696 1570.9 31.032C1570.9 33.416 1569.43 35.192 1567.19 35.192C1566.1 35.192 1565.27 34.712 1564.85 34.04V35ZM1568.77 31.048C1568.77 29.608 1567.91 28.824 1566.82 28.824C1565.75 28.824 1564.85 29.608 1564.85 31.048C1564.85 32.472 1565.75 33.288 1566.82 33.288C1567.91 33.288 1568.77 32.488 1568.77 31.048ZM1577.25 27.096V29.24C1577.01 29.192 1576.8 29.176 1576.61 29.176C1575.52 29.176 1574.58 29.704 1574.58 31.4V35H1572.45V27.128H1574.52V28.296C1575 27.256 1576.08 27.064 1576.76 27.064C1576.93 27.064 1577.09 27.08 1577.25 27.096ZM1582.05 33.304C1583.09 33.304 1584.05 32.552 1584.05 31.064C1584.05 29.576 1583.09 28.824 1582.05 28.824C1581.01 28.824 1580.05 29.576 1580.05 31.064C1580.05 32.536 1581.01 33.304 1582.05 33.304ZM1582.05 26.888C1584.4 26.888 1586.17 28.632 1586.17 31.064C1586.17 33.48 1584.4 35.24 1582.05 35.24C1579.69 35.24 1577.92 33.48 1577.92 31.064C1577.92 28.632 1579.69 26.888 1582.05 26.888ZM1587.24 32.856C1587.24 31.448 1588.28 30.664 1589.59 30.472L1591.52 30.184C1591.97 30.12 1592.12 29.896 1592.12 29.624C1592.12 29.064 1591.68 28.6 1590.79 28.6C1589.86 28.6 1589.35 29.192 1589.28 29.88L1587.4 29.48C1587.52 28.248 1588.66 26.888 1590.77 26.888C1593.27 26.888 1594.2 28.296 1594.2 29.88V33.752C1594.2 34.168 1594.24 34.728 1594.29 35H1592.34C1592.29 34.792 1592.26 34.36 1592.26 34.056C1591.86 34.68 1591.11 35.224 1589.94 35.224C1588.26 35.224 1587.24 34.088 1587.24 32.856ZM1590.39 33.64C1591.28 33.64 1592.12 33.208 1592.12 31.816V31.464L1590.34 31.736C1589.8 31.816 1589.36 32.12 1589.36 32.728C1589.36 33.192 1589.7 33.64 1590.39 33.64ZM1603.76 23.416V33.576C1603.76 34.104 1603.79 34.68 1603.83 35H1601.79C1601.76 34.84 1601.71 34.456 1601.71 34.088C1601.36 34.712 1600.56 35.192 1599.51 35.192C1597.27 35.192 1595.67 33.432 1595.67 31.048C1595.67 28.744 1597.22 26.936 1599.44 26.936C1600.8 26.936 1601.44 27.496 1601.67 27.912V23.416H1603.76ZM1597.81 31.048C1597.81 32.456 1598.64 33.288 1599.76 33.288C1600.85 33.288 1601.7 32.456 1601.7 31.032C1601.7 29.624 1600.85 28.84 1599.76 28.84C1598.67 28.84 1597.81 29.64 1597.81 31.048ZM1609.43 28.856C1608.34 28.856 1607.43 29.64 1607.43 31.064C1607.43 32.488 1608.35 33.288 1609.44 33.288C1610.53 33.288 1611.07 32.568 1611.25 31.96L1613.12 32.584C1612.77 33.896 1611.54 35.24 1609.44 35.24C1607.12 35.24 1605.3 33.48 1605.3 31.064C1605.3 28.632 1607.09 26.888 1609.38 26.888C1611.52 26.888 1612.74 28.216 1613.07 29.544L1611.17 30.184C1610.98 29.528 1610.48 28.856 1609.43 28.856ZM1614.04 32.856C1614.04 31.448 1615.08 30.664 1616.39 30.472L1618.33 30.184C1618.77 30.12 1618.92 29.896 1618.92 29.624C1618.92 29.064 1618.49 28.6 1617.59 28.6C1616.66 28.6 1616.15 29.192 1616.09 29.88L1614.2 29.48C1614.33 28.248 1615.46 26.888 1617.57 26.888C1620.07 26.888 1621 28.296 1621 29.88V33.752C1621 34.168 1621.05 34.728 1621.09 35H1619.14C1619.09 34.792 1619.06 34.36 1619.06 34.056C1618.66 34.68 1617.91 35.224 1616.74 35.224C1615.06 35.224 1614.04 34.088 1614.04 32.856ZM1617.19 33.64C1618.09 33.64 1618.92 33.208 1618.92 31.816V31.464L1617.14 31.736C1616.6 31.816 1616.17 32.12 1616.17 32.728C1616.17 33.192 1616.5 33.64 1617.19 33.64ZM1622.42 32.808L1624.24 32.408C1624.29 33.032 1624.76 33.608 1625.68 33.608C1626.39 33.608 1626.72 33.24 1626.72 32.824C1626.72 32.472 1626.48 32.184 1625.88 32.056L1624.84 31.816C1623.32 31.48 1622.63 30.568 1622.63 29.464C1622.63 28.056 1623.88 26.888 1625.57 26.888C1627.81 26.888 1628.56 28.312 1628.66 29.16L1626.88 29.56C1626.82 29.096 1626.48 28.504 1625.59 28.504C1625.03 28.504 1624.58 28.84 1624.58 29.288C1624.58 29.672 1624.87 29.912 1625.3 29.992L1626.42 30.232C1627.97 30.552 1628.76 31.496 1628.76 32.648C1628.76 33.928 1627.76 35.24 1625.7 35.24C1623.33 35.24 1622.52 33.704 1622.42 32.808ZM1633.08 24.776V27.128H1634.67V29.016H1633.08V32.312C1633.08 33 1633.4 33.224 1634.01 33.224C1634.27 33.224 1634.55 33.192 1634.67 33.16V34.92C1634.47 35 1634.09 35.112 1633.47 35.112C1631.93 35.112 1630.97 34.2 1630.97 32.68V29.016H1629.55V27.128H1629.95C1630.78 27.128 1631.16 26.584 1631.16 25.88V24.776H1633.08ZM1638.34 35H1636.21V27.128H1638.34V35ZM1635.95 24.552C1635.95 23.816 1636.55 23.224 1637.27 23.224C1638 23.224 1638.58 23.816 1638.58 24.552C1638.58 25.256 1638 25.848 1637.27 25.848C1636.55 25.848 1635.95 25.256 1635.95 24.552ZM1642.47 30.472V35H1640.34V27.128H1642.41V28.104C1642.89 27.288 1643.83 26.92 1644.68 26.92C1646.63 26.92 1647.53 28.312 1647.53 30.04V35H1645.4V30.408C1645.4 29.528 1644.97 28.84 1643.94 28.84C1643.01 28.84 1642.47 29.56 1642.47 30.472ZM1649 35.432L1650.92 34.92C1651.06 35.784 1651.75 36.408 1652.76 36.408C1654.1 36.408 1654.85 35.736 1654.85 34.216V33.64C1654.53 34.152 1653.8 34.648 1652.66 34.648C1650.56 34.648 1649 33.032 1649 30.824C1649 28.744 1650.5 26.984 1652.66 26.984C1653.91 26.984 1654.63 27.528 1654.9 28.056V27.128H1656.95V34.152C1656.95 36.312 1655.78 38.28 1652.82 38.28C1650.66 38.28 1649.22 36.936 1649 35.432ZM1653.03 32.824C1654.12 32.824 1654.88 32.04 1654.88 30.824C1654.88 29.608 1654.05 28.84 1653.03 28.84C1651.97 28.84 1651.14 29.608 1651.14 30.824C1651.14 32.056 1651.92 32.824 1653.03 32.824Z" fill="#E83144"/>
<defs>
<filter id="filter0_b_148_1733" x="757.101" y="-9.2" width="171.4" height="77.4" filterUnits="userSpaceOnUse" color-interpolation-filters="sRGB">
<feFlood flood-opacity="0" result="BackgroundImageFix"/>
<feGaussianBlur in="BackgroundImageFix" stdDeviation="9.6"/>
<feComposite in2="SourceAlpha" operator="in" result="effect1_backgroundBlur_148_1733"/>
<feBlend mode="normal" in="SourceGraphic" in2="effect1_backgroundBlur_148_1733" result="shape"/>
</filter>
</defs>
</svg>
