<svg width="972" height="375" viewBox="0 0 972 375" fill="none" xmlns="http://www.w3.org/2000/svg">
<rect width="972" height="375" rx="20" fill="#1D1D1F"/>
<mask id="path-2-inside-1_150_1792" fill="white">
<path d="M40 38H932V109H40V38Z"/>
</mask>
<path d="M932 108H40V110H932V108Z" fill="#292929" mask="url(#path-2-inside-1_150_1792)"/>
<path d="M45.328 63H41.992V45.984H52.744V49.128H45.304V53.328H51.928V56.376H45.328V63ZM60.064 60.456C61.624 60.456 63.064 59.328 63.064 57.096C63.064 54.864 61.624 53.736 60.064 53.736C58.504 53.736 57.064 54.864 57.064 57.096C57.064 59.304 58.504 60.456 60.064 60.456ZM60.064 50.832C63.592 50.832 66.256 53.448 66.256 57.096C66.256 60.72 63.592 63.36 60.064 63.36C56.536 63.36 53.872 60.72 53.872 57.096C53.872 53.448 56.536 50.832 60.064 50.832ZM71.8221 63H68.6301V45.624H71.8221V63ZM78.1024 63H74.9104V45.624H78.1024V63ZM86.6628 60.456C88.2228 60.456 89.6628 59.328 89.6628 57.096C89.6628 54.864 88.2228 53.736 86.6628 53.736C85.1028 53.736 83.6628 54.864 83.6628 57.096C83.6628 59.304 85.1028 60.456 86.6628 60.456ZM86.6628 50.832C90.1908 50.832 92.8548 53.448 92.8548 57.096C92.8548 60.72 90.1908 63.36 86.6628 63.36C83.1348 63.36 80.4708 60.72 80.4708 57.096C80.4708 53.448 83.1348 50.832 86.6628 50.832ZM101.904 51.192H105.264L107.808 58.8L109.992 51.192H113.16L109.464 63H106.272L103.512 54.936L100.8 63H97.5602L93.7922 51.192H97.1522L99.3362 58.776L101.904 51.192ZM118.225 63H115.033V51.192H118.225V63ZM114.649 47.328C114.649 46.224 115.537 45.336 116.617 45.336C117.721 45.336 118.585 46.224 118.585 47.328C118.585 48.384 117.721 49.272 116.617 49.272C115.537 49.272 114.649 48.384 114.649 47.328ZM124.505 56.208V63H121.313V51.192H124.409V52.656C125.129 51.432 126.545 50.88 127.817 50.88C130.745 50.88 132.089 52.968 132.089 55.56V63H128.897V56.112C128.897 54.792 128.249 53.76 126.713 53.76C125.321 53.76 124.505 54.84 124.505 56.208ZM134.374 63.648L137.254 62.88C137.47 64.176 138.502 65.112 140.014 65.112C142.03 65.112 143.158 64.104 143.158 61.824V60.96C142.678 61.728 141.574 62.472 139.87 62.472C136.726 62.472 134.374 60.048 134.374 56.736C134.374 53.616 136.63 50.976 139.87 50.976C141.742 50.976 142.822 51.792 143.23 52.584V51.192H146.302V61.728C146.302 64.968 144.55 67.92 140.11 67.92C136.87 67.92 134.71 65.904 134.374 63.648ZM140.422 59.736C142.054 59.736 143.206 58.56 143.206 56.736C143.206 54.912 141.958 53.76 140.422 53.76C138.838 53.76 137.59 54.912 137.59 56.736C137.59 58.584 138.766 59.736 140.422 59.736ZM161.735 57.288H154.775V54.456H161.735V57.288Z" fill="white"/>
<path d="M176.894 52.728C179.582 52.8 181.91 54.744 181.91 57.888C181.91 60.84 179.486 63.312 175.838 63.312C172.19 63.312 169.862 60.984 169.67 58.008L171.902 57.504C171.998 59.76 173.678 61.248 175.814 61.248C178.046 61.248 179.582 59.832 179.582 57.84C179.582 55.704 178.046 54.456 175.958 54.456C175.43 54.456 174.83 54.6 174.374 54.792L173.342 53.088L178.478 48.144H170.126V45.984H181.454V47.928L176.342 52.824C176.51 52.752 176.774 52.728 176.894 52.728Z" fill="#4055E2"/>
<path d="M234.69 63H232.338V45.984H242.682V48.168H234.69V53.64H241.938V55.848H234.69V63ZM249.932 61.344C251.852 61.344 253.532 59.904 253.532 57.216C253.532 54.552 251.852 53.112 249.932 53.112C248.012 53.112 246.332 54.552 246.332 57.216C246.332 59.904 248.012 61.344 249.932 61.344ZM249.932 51.096C253.388 51.096 255.836 53.712 255.836 57.216C255.836 60.744 253.388 63.36 249.932 63.36C246.476 63.36 244.028 60.744 244.028 57.216C244.028 53.712 246.476 51.096 249.932 51.096ZM260.808 63H258.552V45.624H260.808V63ZM266.55 63H264.294V45.624H266.55V63ZM275.171 61.344C277.091 61.344 278.771 59.904 278.771 57.216C278.771 54.552 277.091 53.112 275.171 53.112C273.251 53.112 271.571 54.552 271.571 57.216C271.571 59.904 273.251 61.344 275.171 61.344ZM275.171 51.096C278.627 51.096 281.075 53.712 281.075 57.216C281.075 60.744 278.627 63.36 275.171 63.36C271.715 63.36 269.267 60.744 269.267 57.216C269.267 53.712 271.715 51.096 275.171 51.096ZM290.421 51.456H292.749L295.749 60.144L298.293 51.456H300.669L296.925 63H294.597L291.525 54.216L288.525 63H286.149L282.357 51.456H284.829L287.421 60.144L290.421 51.456ZM304.384 56.04H310.696C310.648 54.384 309.568 53.088 307.528 53.088C305.632 53.088 304.48 54.552 304.384 56.04ZM311.032 59.04L312.976 59.712C312.328 61.752 310.48 63.36 307.792 63.36C304.696 63.36 301.984 61.104 301.984 57.192C301.984 53.568 304.6 51.096 307.504 51.096C311.056 51.096 313.048 53.544 313.048 57.144C313.048 57.432 313.024 57.72 313 57.864H304.312C304.36 59.928 305.848 61.368 307.792 61.368C309.664 61.368 310.6 60.336 311.032 59.04ZM322.12 51.336V53.736C321.784 53.688 321.448 53.664 321.136 53.664C319.24 53.664 317.968 54.672 317.968 57.216V63H315.712V51.456H317.92V53.472C318.76 51.696 320.2 51.264 321.376 51.264C321.688 51.264 322 51.312 322.12 51.336ZM323.354 60L325.394 59.28C325.538 60.48 326.45 61.44 328.082 61.44C329.354 61.44 330.05 60.72 330.05 59.904C330.05 59.184 329.522 58.632 328.562 58.416L326.594 57.984C324.794 57.6 323.714 56.376 323.714 54.744C323.714 52.776 325.562 51.096 327.818 51.096C330.986 51.096 331.97 53.16 332.21 54.192L330.218 54.936C330.122 54.336 329.642 53.016 327.818 53.016C326.666 53.016 325.898 53.76 325.898 54.552C325.898 55.248 326.33 55.752 327.218 55.944L329.09 56.352C331.178 56.808 332.282 58.08 332.282 59.784C332.282 61.416 330.914 63.36 328.058 63.36C324.89 63.36 323.546 61.32 323.354 60ZM347.216 57.096H340.712V55.128H347.216V57.096ZM355.891 54.504C355.891 50.472 357.259 45.672 362.467 45.672C367.675 45.672 369.043 50.472 369.043 54.504C369.043 58.488 367.723 63.312 362.467 63.312C357.235 63.312 355.891 58.464 355.891 54.504ZM366.715 54.504C366.715 51.096 365.803 47.784 362.467 47.784C359.107 47.784 358.243 51.072 358.243 54.504C358.243 57.912 359.131 61.224 362.467 61.224C365.803 61.224 366.715 57.912 366.715 54.504Z" fill="white" fill-opacity="0.5"/>
<path d="M50.17 91H48.64L42.895 82.33V91H41.425V80.365H43.39L48.7 88.525V80.365H50.17V91ZM53.4354 86.65H57.3804C57.3504 85.615 56.6754 84.805 55.4004 84.805C54.2154 84.805 53.4954 85.72 53.4354 86.65ZM57.5904 88.525L58.8054 88.945C58.4004 90.22 57.2454 91.225 55.5654 91.225C53.6304 91.225 51.9354 89.815 51.9354 87.37C51.9354 85.105 53.5704 83.56 55.3854 83.56C57.6054 83.56 58.8504 85.09 58.8504 87.34C58.8504 87.52 58.8354 87.7 58.8204 87.79H53.3904C53.4204 89.08 54.3504 89.98 55.5654 89.98C56.7354 89.98 57.3204 89.335 57.5904 88.525ZM61.8486 91H60.4536V83.785H61.8036V84.745C62.2536 83.95 63.1536 83.575 63.9936 83.575C64.8936 83.575 65.7636 84.01 66.1536 84.94C66.7236 83.905 67.6536 83.575 68.5686 83.575C69.8286 83.575 71.0586 84.43 71.0586 86.32V91H69.6636V86.47C69.6636 85.525 69.1986 84.82 68.1336 84.82C67.1436 84.82 66.4686 85.6 66.4686 86.635V91H65.0586V86.47C65.0586 85.54 64.6086 84.82 63.5286 84.82C62.5236 84.82 61.8486 85.57 61.8486 86.65V91ZM76.3013 89.965C77.5013 89.965 78.5513 89.065 78.5513 87.385C78.5513 85.72 77.5013 84.82 76.3013 84.82C75.1013 84.82 74.0513 85.72 74.0513 87.385C74.0513 89.065 75.1013 89.965 76.3013 89.965ZM76.3013 83.56C78.4613 83.56 79.9913 85.195 79.9913 87.385C79.9913 89.59 78.4613 91.225 76.3013 91.225C74.1413 91.225 72.6113 89.59 72.6113 87.385C72.6113 85.195 74.1413 83.56 76.3013 83.56ZM86.2618 86.65H90.2068C90.1768 85.615 89.5018 84.805 88.2268 84.805C87.0418 84.805 86.3218 85.72 86.2618 86.65ZM90.4168 88.525L91.6318 88.945C91.2268 90.22 90.0718 91.225 88.3918 91.225C86.4568 91.225 84.7618 89.815 84.7618 87.37C84.7618 85.105 86.3968 83.56 88.2118 83.56C90.4318 83.56 91.6768 85.09 91.6768 87.34C91.6768 87.52 91.6618 87.7 91.6468 87.79H86.2168C86.2468 89.08 87.1768 89.98 88.3918 89.98C89.5618 89.98 90.1468 89.335 90.4168 88.525ZM94.6899 86.83V91H93.2799V83.785H94.6599V84.82C95.1849 83.92 96.0399 83.575 96.8799 83.575C98.6049 83.575 99.4599 84.82 99.4599 86.425V91H98.0499V86.665C98.0499 85.66 97.6299 84.85 96.3699 84.85C95.2599 84.85 94.6899 85.735 94.6899 86.83ZM102.889 91H101.494V83.785H102.889V91ZM101.179 81.055C101.179 80.485 101.629 80.035 102.184 80.035C102.754 80.035 103.204 80.485 103.204 81.055C103.204 81.61 102.754 82.06 102.184 82.06C101.629 82.06 101.179 81.61 101.179 81.055ZM106.401 91H105.006V83.785H106.356V84.745C106.806 83.95 107.706 83.575 108.546 83.575C109.446 83.575 110.316 84.01 110.706 84.94C111.276 83.905 112.206 83.575 113.121 83.575C114.381 83.575 115.611 84.43 115.611 86.32V91H114.216V86.47C114.216 85.525 113.751 84.82 112.686 84.82C111.696 84.82 111.021 85.6 111.021 86.635V91H109.611V86.47C109.611 85.54 109.161 84.82 108.081 84.82C107.076 84.82 106.401 85.57 106.401 86.65V91ZM122.653 91H121.258V83.785H122.653V91ZM120.943 81.055C120.943 80.485 121.393 80.035 121.948 80.035C122.518 80.035 122.968 80.485 122.968 81.055C122.968 81.61 122.518 82.06 121.948 82.06C121.393 82.06 120.943 81.61 120.943 81.055ZM126.164 93.85H124.769V83.785H126.134V84.91C126.524 84.19 127.379 83.62 128.549 83.62C130.709 83.62 131.864 85.285 131.864 87.385C131.864 89.53 130.619 91.195 128.504 91.195C127.394 91.195 126.554 90.67 126.164 90.025V93.85ZM130.424 87.385C130.424 85.945 129.614 84.865 128.294 84.865C127.004 84.865 126.149 85.945 126.149 87.385C126.149 88.87 127.004 89.935 128.294 89.935C129.599 89.935 130.424 88.87 130.424 87.385ZM132.941 89.125L134.216 88.675C134.306 89.425 134.876 90.025 135.896 90.025C136.691 90.025 137.126 89.575 137.126 89.065C137.126 88.615 136.796 88.27 136.196 88.135L134.966 87.865C133.841 87.625 133.166 86.86 133.166 85.84C133.166 84.61 134.321 83.56 135.731 83.56C137.711 83.56 138.326 84.85 138.476 85.495L137.231 85.96C137.171 85.585 136.871 84.76 135.731 84.76C135.011 84.76 134.531 85.225 134.531 85.72C134.531 86.155 134.801 86.47 135.356 86.59L136.526 86.845C137.831 87.13 138.521 87.925 138.521 88.99C138.521 90.01 137.666 91.225 135.881 91.225C133.901 91.225 133.061 89.95 132.941 89.125ZM139.692 89.065C139.692 87.775 140.637 87.055 141.882 86.875L143.832 86.59C144.267 86.53 144.387 86.305 144.387 86.05C144.387 85.345 143.922 84.76 142.827 84.76C141.837 84.76 141.282 85.375 141.192 86.215L139.842 85.9C139.992 84.52 141.237 83.56 142.797 83.56C144.957 83.56 145.797 84.79 145.797 86.2V89.815C145.797 90.445 145.857 90.82 145.887 91H144.507C144.477 90.82 144.432 90.55 144.432 90.025C144.117 90.535 143.397 91.225 142.107 91.225C140.637 91.225 139.692 90.205 139.692 89.065ZM142.302 90.04C143.457 90.04 144.387 89.485 144.387 87.91V87.58L142.182 87.91C141.582 88 141.132 88.345 141.132 88.99C141.132 89.53 141.582 90.04 142.302 90.04ZM149.253 91H147.858V83.785H149.208V84.745C149.658 83.95 150.558 83.575 151.398 83.575C152.298 83.575 153.168 84.01 153.558 84.94C154.128 83.905 155.058 83.575 155.973 83.575C157.233 83.575 158.463 84.43 158.463 86.32V91H157.068V86.47C157.068 85.525 156.603 84.82 155.538 84.82C154.548 84.82 153.873 85.6 153.873 86.635V91H152.463V86.47C152.463 85.54 152.013 84.82 150.933 84.82C149.928 84.82 149.253 85.57 149.253 86.65V91ZM170.149 83.785L167.269 91H165.844L162.919 83.785H164.509L166.564 89.35L168.634 83.785H170.149ZM174.45 89.965C175.65 89.965 176.7 89.065 176.7 87.385C176.7 85.72 175.65 84.82 174.45 84.82C173.25 84.82 172.2 85.72 172.2 87.385C172.2 89.065 173.25 89.965 174.45 89.965ZM174.45 83.56C176.61 83.56 178.14 85.195 178.14 87.385C178.14 89.59 176.61 91.225 174.45 91.225C172.29 91.225 170.76 89.59 170.76 87.385C170.76 85.195 172.29 83.56 174.45 83.56ZM181.186 91H179.776V80.14H181.186V91ZM188.058 90.13C187.668 90.88 186.768 91.225 185.928 91.225C184.248 91.225 183.228 89.965 183.228 88.33V83.785H184.638V88.12C184.638 89.11 185.088 89.98 186.273 89.98C187.413 89.98 187.983 89.23 187.983 88.135V83.785H189.393V89.665C189.393 90.235 189.438 90.745 189.468 91H188.118C188.088 90.835 188.058 90.43 188.058 90.13ZM192.912 93.85H191.517V83.785H192.882V84.91C193.272 84.19 194.127 83.62 195.297 83.62C197.457 83.62 198.612 85.285 198.612 87.385C198.612 89.53 197.367 91.195 195.252 91.195C194.142 91.195 193.302 90.67 192.912 90.025V93.85ZM197.172 87.385C197.172 85.945 196.362 84.865 195.042 84.865C193.752 84.865 192.897 85.945 192.897 87.385C192.897 88.87 193.752 89.935 195.042 89.935C196.347 89.935 197.172 88.87 197.172 87.385ZM202.106 81.505V83.785H203.666V85.06H202.106V88.81C202.106 89.47 202.376 89.8 203.111 89.8C203.291 89.8 203.546 89.77 203.666 89.74V90.94C203.546 90.985 203.186 91.075 202.706 91.075C201.476 91.075 200.696 90.325 200.696 89.02V85.06H199.316V83.785H199.706C200.486 83.785 200.816 83.305 200.816 82.675V81.505H202.106ZM204.696 89.065C204.696 87.775 205.641 87.055 206.886 86.875L208.836 86.59C209.271 86.53 209.391 86.305 209.391 86.05C209.391 85.345 208.926 84.76 207.831 84.76C206.841 84.76 206.286 85.375 206.196 86.215L204.846 85.9C204.996 84.52 206.241 83.56 207.801 83.56C209.961 83.56 210.801 84.79 210.801 86.2V89.815C210.801 90.445 210.861 90.82 210.891 91H209.511C209.481 90.82 209.436 90.55 209.436 90.025C209.121 90.535 208.401 91.225 207.111 91.225C205.641 91.225 204.696 90.205 204.696 89.065ZM207.306 90.04C208.461 90.04 209.391 89.485 209.391 87.91V87.58L207.186 87.91C206.586 88 206.136 88.345 206.136 88.99C206.136 89.53 206.586 90.04 207.306 90.04ZM214.769 81.505V83.785H216.329V85.06H214.769V88.81C214.769 89.47 215.039 89.8 215.774 89.8C215.954 89.8 216.209 89.77 216.329 89.74V90.94C216.209 90.985 215.849 91.075 215.369 91.075C214.139 91.075 213.359 90.325 213.359 89.02V85.06H211.979V83.785H212.369C213.149 83.785 213.479 83.305 213.479 82.675V81.505H214.769ZM218.801 86.65H222.746C222.716 85.615 222.041 84.805 220.766 84.805C219.581 84.805 218.861 85.72 218.801 86.65ZM222.956 88.525L224.171 88.945C223.766 90.22 222.611 91.225 220.931 91.225C218.996 91.225 217.301 89.815 217.301 87.37C217.301 85.105 218.936 83.56 220.751 83.56C222.971 83.56 224.216 85.09 224.216 87.34C224.216 87.52 224.201 87.7 224.186 87.79H218.756C218.786 89.08 219.716 89.98 220.931 89.98C222.101 89.98 222.686 89.335 222.956 88.525ZM227.214 91H225.819V83.785H227.169V84.745C227.619 83.95 228.519 83.575 229.359 83.575C230.259 83.575 231.129 84.01 231.519 84.94C232.089 83.905 233.019 83.575 233.934 83.575C235.194 83.575 236.424 84.43 236.424 86.32V91H235.029V86.47C235.029 85.525 234.564 84.82 233.499 84.82C232.509 84.82 231.834 85.6 231.834 86.635V91H230.424V86.47C230.424 85.54 229.974 84.82 228.894 84.82C227.889 84.82 227.214 85.57 227.214 86.65V91Z" fill="white" fill-opacity="0.5"/>
<mask id="path-6-inside-2_150_1792" fill="white">
<path d="M40 147H932V215H40V147Z"/>
</mask>
<path d="M932 214H40V216H932V214Z" fill="#292929" mask="url(#path-6-inside-2_150_1792)"/>
<rect x="40.5" y="147.5" width="51" height="51" rx="25.5" fill="#5856D6"/>
<rect x="40.5" y="147.5" width="51" height="51" rx="25.5" stroke="#E83144"/>
<path d="M73.5294 168.059C73.5294 166.109 72.7388 164.344 71.4626 163.068C70.1849 161.791 68.4202 161 66.4706 161C64.5209 161 62.7562 161.791 61.4786 163.068C60.2024 164.344 59.4118 166.109 59.4118 168.059C59.4118 170.008 60.2024 171.773 61.4786 173.049C62.7562 174.327 64.5209 175.118 66.4706 175.118C68.4202 175.118 70.1849 174.327 71.4626 173.049C72.1191 172.395 72.6397 171.617 72.9944 170.761C73.3491 169.904 73.5309 168.986 73.5294 168.059ZM58 182.176C58 183.588 61.1765 185 66.4706 185C71.4372 185 74.9412 183.588 74.9412 182.176C74.9412 179.353 71.6179 176.529 66.4706 176.529C61.1765 176.529 58 179.353 58 182.176Z" fill="white"/>
<rect x="52" y="193" width="28" height="13" rx="4" fill="#E83144"/>
<circle cx="57.5" cy="199.5" r="1.5" fill="white"/>
<path d="M65.272 202H61.712V196.328H62.672V201.088H65.272V202ZM66.7373 202H65.8173V198.104H66.7373V202ZM65.6733 196.736C65.6733 196.4 65.9453 196.128 66.2733 196.128C66.6093 196.128 66.8813 196.4 66.8813 196.736C66.8813 197.072 66.6093 197.336 66.2733 197.336C65.9453 197.336 65.6733 197.072 65.6733 196.736ZM71.3146 198.104L69.7866 202H68.8586L67.2746 198.104H68.2986L69.3306 200.888L70.3386 198.104H71.3146ZM72.4491 199.624H74.3611C74.3451 199.168 74.0411 198.76 73.4011 198.76C72.8171 198.76 72.4811 199.208 72.4491 199.624ZM74.4651 200.64L75.2491 200.888C75.0411 201.568 74.4251 202.12 73.4891 202.12C72.4331 202.12 71.4971 201.352 71.4971 200.032C71.4971 198.8 72.4091 197.984 73.3931 197.984C74.5931 197.984 75.2971 198.776 75.2971 200.008C75.2971 200.16 75.2811 200.288 75.2731 200.304H72.4251C72.4491 200.896 72.9131 201.32 73.4891 201.32C74.0491 201.32 74.3371 201.024 74.4651 200.64Z" fill="white"/>
<path d="M107.9 165.24C106.8 165.24 106.14 164.68 105.96 164.02C105.46 164.84 104.54 165.28 103.64 165.28C101.9 165.28 100.6 163.86 100.6 161.82C100.6 159.2 102.42 157.32 104.54 157.32C105.3 157.32 106.18 157.68 106.48 158.46L106.64 157.58H108.54L107.5 162.48C107.48 162.58 107.46 162.7 107.46 162.84C107.46 163.18 107.68 163.5 108.1 163.5C109.08 163.5 110.06 162.06 110.06 160.12C110.06 157.3 107.9 155.34 104.78 155.34C101.44 155.34 98.92 157.76 98.92 161.36C98.92 164.68 101.16 167.2 104.94 167.2C106.2 167.2 107.5 166.86 108.62 166.02L109.58 167.38C108.5 168.36 106.52 168.98 104.94 168.98C100.26 168.98 96.9 165.94 96.9 161.4C96.9 156.74 100.46 153.52 104.76 153.52C108.88 153.52 111.96 156.34 111.96 160.1C111.96 163.14 109.96 165.2 107.9 165.24ZM106.04 160.7C106.04 159.74 105.56 159.12 104.68 159.12C103.48 159.12 102.66 160.3 102.66 161.64C102.66 162.7 103.06 163.48 104.08 163.48C105.18 163.48 106 162.3 106.04 160.7ZM113.816 168.6V158.16H116.476V168.86C116.476 170.76 115.296 172.1 113.396 172.1C112.616 172.1 112.036 171.94 111.896 171.88V169.66C112.076 169.7 112.336 169.76 112.716 169.76C113.516 169.76 113.816 169.32 113.816 168.6ZM113.496 154.92C113.496 154 114.236 153.26 115.136 153.26C116.056 153.26 116.776 154 116.776 154.92C116.776 155.82 116.056 156.54 115.136 156.54C114.236 156.54 113.496 155.82 113.496 154.92ZM123.582 165.88C124.882 165.88 126.082 164.94 126.082 163.08C126.082 161.22 124.882 160.28 123.582 160.28C122.282 160.28 121.082 161.22 121.082 163.08C121.082 164.92 122.282 165.88 123.582 165.88ZM123.582 157.86C126.522 157.86 128.742 160.04 128.742 163.08C128.742 166.1 126.522 168.3 123.582 168.3C120.642 168.3 118.422 166.1 118.422 163.08C118.422 160.04 120.642 157.86 123.582 157.86ZM133.353 162.22V168H130.693V153.52H133.353V158.98C133.993 158.22 135.073 157.9 136.013 157.9C138.513 157.9 139.673 159.64 139.673 161.8V168H137.013V162.26C137.013 161.16 136.473 160.3 135.193 160.3C134.073 160.3 133.413 161.14 133.353 162.22ZM144.79 162.34V168H142.13V158.16H144.71V159.38C145.31 158.36 146.49 157.9 147.55 157.9C149.99 157.9 151.11 159.64 151.11 161.8V168H148.45V162.26C148.45 161.16 147.91 160.3 146.63 160.3C145.47 160.3 144.79 161.2 144.79 162.34ZM163.086 153.52V166.22C163.086 166.88 163.126 167.6 163.166 168H160.626C160.586 167.8 160.526 167.32 160.526 166.86C160.086 167.64 159.086 168.24 157.766 168.24C154.966 168.24 152.966 166.04 152.966 163.06C152.966 160.18 154.906 157.92 157.686 157.92C159.386 157.92 160.186 158.62 160.466 159.14V153.52H163.086ZM155.646 163.06C155.646 164.82 156.686 165.86 158.086 165.86C159.446 165.86 160.506 164.82 160.506 163.04C160.506 161.28 159.446 160.3 158.086 160.3C156.726 160.3 155.646 161.3 155.646 163.06ZM170.207 165.88C171.507 165.88 172.707 164.94 172.707 163.08C172.707 161.22 171.507 160.28 170.207 160.28C168.907 160.28 167.707 161.22 167.707 163.08C167.707 164.92 168.907 165.88 170.207 165.88ZM170.207 157.86C173.147 157.86 175.367 160.04 175.367 163.08C175.367 166.1 173.147 168.3 170.207 168.3C167.267 168.3 165.047 166.1 165.047 163.08C165.047 160.04 167.267 157.86 170.207 157.86ZM179.398 161.96H183.798C183.758 160.98 183.118 160.02 181.598 160.02C180.218 160.02 179.458 161.06 179.398 161.96ZM184.058 164.52L186.278 165.18C185.778 166.88 184.218 168.3 181.798 168.3C179.098 168.3 176.718 166.36 176.718 163.04C176.718 159.9 179.038 157.86 181.558 157.86C184.598 157.86 186.418 159.8 186.418 162.96C186.418 163.34 186.378 163.74 186.378 163.78H179.338C179.398 165.08 180.498 166.02 181.818 166.02C183.058 166.02 183.738 165.4 184.058 164.52ZM187.964 166.32C187.964 165.32 188.784 164.5 189.784 164.5C190.804 164.5 191.624 165.32 191.624 166.32C191.624 167.32 190.804 168.14 189.784 168.14C188.784 168.14 187.964 167.32 187.964 166.32ZM193.346 166.32C193.346 165.32 194.166 164.5 195.166 164.5C196.186 164.5 197.006 165.32 197.006 166.32C197.006 167.32 196.186 168.14 195.166 168.14C194.166 168.14 193.346 167.32 193.346 166.32ZM198.727 166.32C198.727 165.32 199.547 164.5 200.547 164.5C201.567 164.5 202.387 165.32 202.387 166.32C202.387 167.32 201.567 168.14 200.547 168.14C199.547 168.14 198.727 167.32 198.727 166.32Z" fill="white"/>
<path d="M96.672 189.03C96.672 185.712 99.164 183.864 101.656 183.864C104.148 183.864 106.64 185.712 106.64 189.03C106.64 190.598 106.08 191.83 105.24 192.698L106.402 194L105.464 194.826L104.26 193.496C103.476 193.972 102.566 194.21 101.656 194.21C99.164 194.21 96.672 192.348 96.672 189.03ZM98.072 189.03C98.072 191.62 99.808 192.95 101.656 192.95C102.272 192.95 102.86 192.81 103.392 192.516L101.67 190.584L102.622 189.758L104.358 191.718C104.89 191.074 105.24 190.178 105.24 189.03C105.24 186.44 103.504 185.124 101.656 185.124C99.808 185.124 98.072 186.44 98.072 189.03ZM112.644 193.188C112.28 193.888 111.44 194.21 110.656 194.21C109.088 194.21 108.136 193.034 108.136 191.508V187.266H109.452V191.312C109.452 192.236 109.872 193.048 110.978 193.048C112.042 193.048 112.574 192.348 112.574 191.326V187.266H113.89V192.754C113.89 193.286 113.932 193.762 113.96 194H112.7C112.672 193.846 112.644 193.468 112.644 193.188ZM117.163 194H115.861V187.266H117.163V194ZM115.567 184.718C115.567 184.186 115.987 183.766 116.505 183.766C117.037 183.766 117.457 184.186 117.457 184.718C117.457 185.236 117.037 185.656 116.505 185.656C115.987 185.656 115.567 185.236 115.567 184.718ZM118.596 192.25L119.786 191.83C119.87 192.53 120.402 193.09 121.354 193.09C122.096 193.09 122.502 192.67 122.502 192.194C122.502 191.774 122.194 191.452 121.634 191.326L120.486 191.074C119.436 190.85 118.806 190.136 118.806 189.184C118.806 188.036 119.884 187.056 121.2 187.056C123.048 187.056 123.622 188.26 123.762 188.862L122.6 189.296C122.544 188.946 122.264 188.176 121.2 188.176C120.528 188.176 120.08 188.61 120.08 189.072C120.08 189.478 120.332 189.772 120.85 189.884L121.942 190.122C123.16 190.388 123.804 191.13 123.804 192.124C123.804 193.076 123.006 194.21 121.34 194.21C119.492 194.21 118.708 193.02 118.596 192.25ZM128.248 192.194C128.248 190.99 129.13 190.318 130.292 190.15L132.112 189.884C132.518 189.828 132.63 189.618 132.63 189.38C132.63 188.722 132.196 188.176 131.174 188.176C130.25 188.176 129.732 188.75 129.648 189.534L128.388 189.24C128.528 187.952 129.69 187.056 131.146 187.056C133.162 187.056 133.946 188.204 133.946 189.52V192.894C133.946 193.482 134.002 193.832 134.03 194H132.742C132.714 193.832 132.672 193.58 132.672 193.09C132.378 193.566 131.706 194.21 130.502 194.21C129.13 194.21 128.248 193.258 128.248 192.194ZM130.684 193.104C131.762 193.104 132.63 192.586 132.63 191.116V190.808L130.572 191.116C130.012 191.2 129.592 191.522 129.592 192.124C129.592 192.628 130.012 193.104 130.684 193.104ZM140.297 193.188C139.933 193.888 139.093 194.21 138.309 194.21C136.741 194.21 135.789 193.034 135.789 191.508V187.266H137.105V191.312C137.105 192.236 137.525 193.048 138.631 193.048C139.695 193.048 140.227 192.348 140.227 191.326V187.266H141.543V192.754C141.543 193.286 141.585 193.762 141.613 194H140.353C140.325 193.846 140.297 193.468 140.297 193.188ZM145.348 185.138V187.266H146.804V188.456H145.348V191.956C145.348 192.572 145.6 192.88 146.286 192.88C146.454 192.88 146.692 192.852 146.804 192.824V193.944C146.692 193.986 146.356 194.07 145.908 194.07C144.76 194.07 144.032 193.37 144.032 192.152V188.456H142.744V187.266H143.108C143.836 187.266 144.144 186.818 144.144 186.23V185.138H145.348ZM149.1 189.94H152.782C152.754 188.974 152.124 188.218 150.934 188.218C149.828 188.218 149.156 189.072 149.1 189.94ZM152.978 191.69L154.112 192.082C153.734 193.272 152.656 194.21 151.088 194.21C149.282 194.21 147.7 192.894 147.7 190.612C147.7 188.498 149.226 187.056 150.92 187.056C152.992 187.056 154.154 188.484 154.154 190.584C154.154 190.752 154.14 190.92 154.126 191.004H149.058C149.086 192.208 149.954 193.048 151.088 193.048C152.18 193.048 152.726 192.446 152.978 191.69ZM156.942 194H155.64V187.266H156.9V188.162C157.32 187.42 158.16 187.07 158.944 187.07C159.784 187.07 160.596 187.476 160.96 188.344C161.492 187.378 162.36 187.07 163.214 187.07C164.39 187.07 165.538 187.868 165.538 189.632V194H164.236V189.772C164.236 188.89 163.802 188.232 162.808 188.232C161.884 188.232 161.254 188.96 161.254 189.926V194H159.938V189.772C159.938 188.904 159.518 188.232 158.51 188.232C157.572 188.232 156.942 188.932 156.942 189.94V194ZM176.423 187.266L173.735 194H172.405L169.675 187.266H171.159L173.077 192.46L175.009 187.266H176.423ZM178.382 189.94H182.064C182.036 188.974 181.406 188.218 180.216 188.218C179.11 188.218 178.438 189.072 178.382 189.94ZM182.26 191.69L183.394 192.082C183.016 193.272 181.938 194.21 180.37 194.21C178.564 194.21 176.982 192.894 176.982 190.612C176.982 188.498 178.508 187.056 180.202 187.056C182.274 187.056 183.436 188.484 183.436 190.584C183.436 190.752 183.422 190.92 183.408 191.004H178.34C178.368 192.208 179.236 193.048 180.37 193.048C181.462 193.048 182.008 192.446 182.26 191.69ZM186.237 194H184.921V183.864H186.237V194ZM192.516 189.94H196.198C196.17 188.974 195.54 188.218 194.35 188.218C193.244 188.218 192.572 189.072 192.516 189.94ZM196.394 191.69L197.528 192.082C197.15 193.272 196.072 194.21 194.504 194.21C192.698 194.21 191.116 192.894 191.116 190.612C191.116 188.498 192.642 187.056 194.336 187.056C196.408 187.056 197.57 188.484 197.57 190.584C197.57 190.752 197.556 190.92 197.542 191.004H192.474C192.502 192.208 193.37 193.048 194.504 193.048C195.596 193.048 196.142 192.446 196.394 191.69ZM203.493 193.188C203.129 193.888 202.289 194.21 201.505 194.21C199.937 194.21 198.985 193.034 198.985 191.508V187.266H200.301V191.312C200.301 192.236 200.721 193.048 201.827 193.048C202.891 193.048 203.423 192.348 203.423 191.326V187.266H204.739V192.754C204.739 193.286 204.781 193.762 204.809 194H203.549C203.521 193.846 203.493 193.468 203.493 193.188ZM208.012 194H206.71V187.266H207.97V188.162C208.39 187.42 209.23 187.07 210.014 187.07C210.854 187.07 211.666 187.476 212.03 188.344C212.562 187.378 213.43 187.07 214.284 187.07C215.46 187.07 216.608 187.868 216.608 189.632V194H215.306V189.772C215.306 188.89 214.872 188.232 213.878 188.232C212.954 188.232 212.324 188.96 212.324 189.926V194H211.008V189.772C211.008 188.904 210.588 188.232 209.58 188.232C208.642 188.232 208.012 188.932 208.012 189.94V194ZM223.159 194H221.857V187.266H223.159V194ZM221.563 184.718C221.563 184.186 221.983 183.766 222.501 183.766C223.033 183.766 223.453 184.186 223.453 184.718C223.453 185.236 223.033 185.656 222.501 185.656C221.983 185.656 221.563 185.236 221.563 184.718ZM229.561 193.188C229.197 193.888 228.357 194.21 227.573 194.21C226.005 194.21 225.053 193.034 225.053 191.508V187.266H226.369V191.312C226.369 192.236 226.789 193.048 227.895 193.048C228.959 193.048 229.491 192.348 229.491 191.326V187.266H230.807V192.754C230.807 193.286 230.849 193.762 230.877 194H229.617C229.589 193.846 229.561 193.468 229.561 193.188ZM236.517 187.196V188.596C236.321 188.568 236.125 188.554 235.943 188.554C234.837 188.554 234.095 189.142 234.095 190.626V194H232.779V187.266H234.067V188.442C234.557 187.406 235.397 187.154 236.083 187.154C236.265 187.154 236.447 187.182 236.517 187.196ZM238.529 189.94H242.211C242.183 188.974 241.553 188.218 240.363 188.218C239.257 188.218 238.585 189.072 238.529 189.94ZM242.407 191.69L243.541 192.082C243.163 193.272 242.085 194.21 240.517 194.21C238.711 194.21 237.129 192.894 237.129 190.612C237.129 188.498 238.655 187.056 240.349 187.056C242.421 187.056 243.583 188.484 243.583 190.584C243.583 190.752 243.569 190.92 243.555 191.004H238.487C238.515 192.208 239.383 193.048 240.517 193.048C241.609 193.048 242.155 192.446 242.407 191.69ZM244.802 193.104C244.802 192.558 245.222 192.124 245.768 192.124C246.314 192.124 246.748 192.558 246.748 193.104C246.748 193.65 246.314 194.07 245.768 194.07C245.222 194.07 244.802 193.65 244.802 193.104ZM248.164 193.104C248.164 192.558 248.584 192.124 249.13 192.124C249.676 192.124 250.11 192.558 250.11 193.104C250.11 193.65 249.676 194.07 249.13 194.07C248.584 194.07 248.164 193.65 248.164 193.104ZM251.527 193.104C251.527 192.558 251.947 192.124 252.493 192.124C253.039 192.124 253.473 192.558 253.473 193.104C253.473 193.65 253.039 194.07 252.493 194.07C251.947 194.07 251.527 193.65 251.527 193.104Z" fill="white" fill-opacity="0.7"/>
<rect x="824" y="155" width="108" height="36" rx="18" fill="#4055E2"/>
<path d="M844 170.856C844 170.288 844.226 169.743 844.628 169.341C845.03 168.939 845.575 168.713 846.143 168.713H849.573C850.142 168.713 850.687 168.939 851.089 169.341C851.491 169.743 851.716 170.288 851.716 170.856V175.143C851.716 175.712 851.491 176.257 851.089 176.659C850.687 177.061 850.142 177.287 849.573 177.287H846.143C845.575 177.287 845.03 177.061 844.628 176.659C844.226 176.257 844 175.712 844 175.143V170.856ZM854.32 176.239L852.488 174.975C852.5 174.895 852.505 174.814 852.505 174.733V171.269C852.505 171.186 852.5 171.106 852.488 171.026L854.32 169.762C854.48 169.651 854.668 169.586 854.863 169.575C855.058 169.563 855.253 169.605 855.426 169.695C855.599 169.786 855.744 169.922 855.845 170.09C855.946 170.257 856 170.448 856 170.644V175.358C856 175.553 855.946 175.745 855.845 175.912C855.744 176.079 855.599 176.215 855.426 176.306C855.253 176.397 855.058 176.439 854.863 176.427C854.668 176.415 854.48 176.35 854.32 176.239Z" fill="white"/>
<path d="M860.336 175.004V174.36L861.974 174.024V174.948C861.974 176.11 862.632 176.628 863.5 176.628C864.396 176.628 864.956 176.026 864.956 175.018V168.074H866.636V174.976C866.636 176.74 865.404 178.21 863.514 178.21C861.568 178.21 860.336 176.936 860.336 175.004ZM871.58 176.754C872.588 176.754 873.484 176.012 873.484 174.584C873.484 173.17 872.588 172.442 871.58 172.442C870.586 172.442 869.676 173.17 869.676 174.584C869.676 175.998 870.586 176.754 871.58 176.754ZM871.58 170.972C873.624 170.972 875.122 172.498 875.122 174.584C875.122 176.684 873.624 178.21 871.58 178.21C869.55 178.21 868.052 176.684 868.052 174.584C868.052 172.498 869.55 170.972 871.58 170.972ZM878.147 178H876.537V171.182H878.147V178ZM876.285 168.788C876.285 168.2 876.761 167.724 877.335 167.724C877.923 167.724 878.399 168.2 878.399 168.788C878.399 169.376 877.923 169.838 877.335 169.838C876.761 169.838 876.285 169.376 876.285 168.788ZM881.619 174.066V178H879.995V171.182H881.577V172.092C882.025 171.308 882.837 170.986 883.593 170.986C885.259 170.986 886.057 172.19 886.057 173.688V178H884.433V173.968C884.433 173.128 884.055 172.456 883.033 172.456C882.109 172.456 881.619 173.17 881.619 174.066ZM892.692 178H891.068V167.864H892.692V178ZM896.149 178H894.539V171.182H896.149V178ZM894.287 168.788C894.287 168.2 894.763 167.724 895.337 167.724C895.925 167.724 896.401 168.2 896.401 168.788C896.401 169.376 895.925 169.838 895.337 169.838C894.763 169.838 894.287 169.376 894.287 168.788ZM904.284 171.182L901.61 178H899.986L897.214 171.182H899.006L900.812 176.054L902.576 171.182H904.284ZM906.393 173.842H909.739C909.711 173.044 909.179 172.33 908.059 172.33C907.037 172.33 906.449 173.114 906.393 173.842ZM909.921 175.62L911.293 176.054C910.929 177.244 909.851 178.21 908.213 178.21C906.365 178.21 904.727 176.866 904.727 174.556C904.727 172.4 906.323 170.972 908.045 170.972C910.145 170.972 911.377 172.358 911.377 174.514C911.377 174.78 911.349 175.004 911.335 175.032H906.351C906.393 176.068 907.205 176.81 908.213 176.81C909.193 176.81 909.697 176.292 909.921 175.62Z" fill="white"/>
<rect x="711" y="155" width="97" height="36" rx="18" fill="#292929"/>
<path d="M735.844 178.21C733.772 178.21 732.148 176.936 732.148 174.542V168.074H733.814V174.444C733.814 175.844 734.584 176.614 735.844 176.614C737.118 176.614 737.874 175.844 737.874 174.444V168.074H739.554V174.542C739.554 176.936 737.93 178.21 735.844 178.21ZM743.092 174.066V178H741.468V171.182H743.05V172.092C743.498 171.308 744.31 170.986 745.066 170.986C746.732 170.986 747.53 172.19 747.53 173.688V178H745.906V173.968C745.906 173.128 745.528 172.456 744.506 172.456C743.582 172.456 743.092 173.17 743.092 174.066ZM752.466 169.25C752.032 169.25 751.458 169.446 751.458 170.286V171.182H753.04V172.596H751.458V178H749.82V172.596H748.63V171.182H749.82V170.244C749.82 168.718 750.8 167.794 752.2 167.794C752.606 167.794 752.942 167.878 753.054 167.934V169.32C752.956 169.292 752.774 169.25 752.466 169.25ZM757.138 176.754C758.146 176.754 759.042 176.012 759.042 174.584C759.042 173.17 758.146 172.442 757.138 172.442C756.144 172.442 755.234 173.17 755.234 174.584C755.234 175.998 756.144 176.754 757.138 176.754ZM757.138 170.972C759.182 170.972 760.68 172.498 760.68 174.584C760.68 176.684 759.182 178.21 757.138 178.21C755.108 178.21 753.61 176.684 753.61 174.584C753.61 172.498 755.108 170.972 757.138 170.972ZM763.72 178H762.096V167.864H763.72V178ZM767.192 178H765.568V167.864H767.192V178ZM772.133 176.754C773.141 176.754 774.037 176.012 774.037 174.584C774.037 173.17 773.141 172.442 772.133 172.442C771.139 172.442 770.229 173.17 770.229 174.584C770.229 175.998 771.139 176.754 772.133 176.754ZM772.133 170.972C774.177 170.972 775.675 172.498 775.675 174.584C775.675 176.684 774.177 178.21 772.133 178.21C770.103 178.21 768.605 176.684 768.605 174.584C768.605 172.498 770.103 170.972 772.133 170.972ZM780.958 171.182H782.638L784.248 175.9L785.606 171.182H787.258L785.074 178H783.45L781.756 173.1L780.104 178H778.438L776.226 171.182H777.962L779.348 175.9L780.958 171.182Z" fill="white"/>
<mask id="path-20-inside-3_150_1792" fill="white">
<path d="M40 239H932V307H40V239Z"/>
</mask>
<path d="M932 306H40V308H932V306Z" fill="#292929" mask="url(#path-20-inside-3_150_1792)"/>
<rect x="40.5" y="239.5" width="51" height="51" rx="25.5" fill="#A2845E"/>
<rect x="40.5" y="239.5" width="51" height="51" rx="25.5" stroke="#212121"/>
<path d="M73.5294 260.059C73.5294 258.109 72.7388 256.344 71.4626 255.068C70.1849 253.791 68.4202 253 66.4706 253C64.5209 253 62.7562 253.791 61.4786 255.068C60.2024 256.344 59.4118 258.109 59.4118 260.059C59.4118 262.008 60.2024 263.773 61.4786 265.049C62.7562 266.327 64.5209 267.118 66.4706 267.118C68.4202 267.118 70.1849 266.327 71.4626 265.049C72.1191 264.395 72.6397 263.617 72.9944 262.761C73.3491 261.904 73.5309 260.986 73.5294 260.059ZM58 274.176C58 275.588 61.1765 277 66.4706 277C71.4372 277 74.9412 275.588 74.9412 274.176C74.9412 271.353 71.6179 268.529 66.4706 268.529C61.1765 268.529 58 271.353 58 274.176Z" fill="white"/>
<rect x="47" y="285" width="38" height="13" rx="4" fill="#262626"/>
<circle cx="52.5" cy="291.5" r="1.5" fill="white"/>
<path d="M57.336 291.16C57.336 292.528 58.28 293.208 59.232 293.208C60.192 293.208 61.136 292.528 61.136 291.16C61.136 289.792 60.192 289.112 59.232 289.112C58.28 289.112 57.336 289.792 57.336 291.16ZM56.352 291.16C56.352 289.304 57.744 288.208 59.232 288.208C60.72 288.208 62.12 289.304 62.12 291.16C62.12 293.024 60.72 294.12 59.232 294.12C57.744 294.12 56.352 293.024 56.352 291.16ZM64.7198 289C64.4718 289 64.1438 289.112 64.1438 289.592V290.104H65.0478V290.912H64.1438V294H63.2078V290.912H62.5278V290.104H63.2078V289.568C63.2078 288.696 63.7678 288.168 64.5678 288.168C64.7998 288.168 64.9918 288.216 65.0558 288.248V289.04C64.9998 289.024 64.8958 289 64.7198 289ZM67.461 289C67.213 289 66.885 289.112 66.885 289.592V290.104H67.789V290.912H66.885V294H65.949V290.912H65.269V290.104H65.949V289.568C65.949 288.696 66.509 288.168 67.309 288.168C67.541 288.168 67.733 288.216 67.797 288.248V289.04C67.741 289.024 67.637 289 67.461 289ZM69.2903 294H68.3623V288.208H69.2903V294ZM71.1954 294H70.2754V290.104H71.1954V294ZM70.1314 288.736C70.1314 288.4 70.4034 288.128 70.7314 288.128C71.0674 288.128 71.3394 288.4 71.3394 288.736C71.3394 289.072 71.0674 289.336 70.7314 289.336C70.4034 289.336 70.1314 289.072 70.1314 288.736ZM73.1087 291.752V294H72.1807V290.104H73.0847V290.624C73.3407 290.176 73.8047 289.992 74.2367 289.992C75.1887 289.992 75.6447 290.68 75.6447 291.536V294H74.7167V291.696C74.7167 291.216 74.5007 290.832 73.9167 290.832C73.3887 290.832 73.1087 291.24 73.1087 291.752ZM77.2978 291.624H79.2098C79.1938 291.168 78.8898 290.76 78.2498 290.76C77.6658 290.76 77.3298 291.208 77.2978 291.624ZM79.3138 292.64L80.0978 292.888C79.8898 293.568 79.2738 294.12 78.3378 294.12C77.2818 294.12 76.3458 293.352 76.3458 292.032C76.3458 290.8 77.2578 289.984 78.2418 289.984C79.4418 289.984 80.1458 290.776 80.1458 292.008C80.1458 292.16 80.1298 292.288 80.1218 292.304H77.2738C77.2978 292.896 77.7618 293.32 78.3378 293.32C78.8978 293.32 79.1858 293.024 79.3138 292.64Z" fill="white"/>
<path d="M107.9 257.24C106.8 257.24 106.14 256.68 105.96 256.02C105.46 256.84 104.54 257.28 103.64 257.28C101.9 257.28 100.6 255.86 100.6 253.82C100.6 251.2 102.42 249.32 104.54 249.32C105.3 249.32 106.18 249.68 106.48 250.46L106.64 249.58H108.54L107.5 254.48C107.48 254.58 107.46 254.7 107.46 254.84C107.46 255.18 107.68 255.5 108.1 255.5C109.08 255.5 110.06 254.06 110.06 252.12C110.06 249.3 107.9 247.34 104.78 247.34C101.44 247.34 98.92 249.76 98.92 253.36C98.92 256.68 101.16 259.2 104.94 259.2C106.2 259.2 107.5 258.86 108.62 258.02L109.58 259.38C108.5 260.36 106.52 260.98 104.94 260.98C100.26 260.98 96.9 257.94 96.9 253.4C96.9 248.74 100.46 245.52 104.76 245.52C108.88 245.52 111.96 248.34 111.96 252.1C111.96 255.14 109.96 257.2 107.9 257.24ZM106.04 252.7C106.04 251.74 105.56 251.12 104.68 251.12C103.48 251.12 102.66 252.3 102.66 253.64C102.66 254.7 103.06 255.48 104.08 255.48C105.18 255.48 106 254.3 106.04 252.7ZM113.816 260.6V250.16H116.476V260.86C116.476 262.76 115.296 264.1 113.396 264.1C112.616 264.1 112.036 263.94 111.896 263.88V261.66C112.076 261.7 112.336 261.76 112.716 261.76C113.516 261.76 113.816 261.32 113.816 260.6ZM113.496 246.92C113.496 246 114.236 245.26 115.136 245.26C116.056 245.26 116.776 246 116.776 246.92C116.776 247.82 116.056 248.54 115.136 248.54C114.236 248.54 113.496 247.82 113.496 246.92ZM123.582 257.88C124.882 257.88 126.082 256.94 126.082 255.08C126.082 253.22 124.882 252.28 123.582 252.28C122.282 252.28 121.082 253.22 121.082 255.08C121.082 256.92 122.282 257.88 123.582 257.88ZM123.582 249.86C126.522 249.86 128.742 252.04 128.742 255.08C128.742 258.1 126.522 260.3 123.582 260.3C120.642 260.3 118.422 258.1 118.422 255.08C118.422 252.04 120.642 249.86 123.582 249.86ZM133.353 254.22V260H130.693V245.52H133.353V250.98C133.993 250.22 135.073 249.9 136.013 249.9C138.513 249.9 139.673 251.64 139.673 253.8V260H137.013V254.26C137.013 253.16 136.473 252.3 135.193 252.3C134.073 252.3 133.413 253.14 133.353 254.22ZM144.79 254.34V260H142.13V250.16H144.71V251.38C145.31 250.36 146.49 249.9 147.55 249.9C149.99 249.9 151.11 251.64 151.11 253.8V260H148.45V254.26C148.45 253.16 147.91 252.3 146.63 252.3C145.47 252.3 144.79 253.2 144.79 254.34ZM163.086 245.52V258.22C163.086 258.88 163.126 259.6 163.166 260H160.626C160.586 259.8 160.526 259.32 160.526 258.86C160.086 259.64 159.086 260.24 157.766 260.24C154.966 260.24 152.966 258.04 152.966 255.06C152.966 252.18 154.906 249.92 157.686 249.92C159.386 249.92 160.186 250.62 160.466 251.14V245.52H163.086ZM155.646 255.06C155.646 256.82 156.686 257.86 158.086 257.86C159.446 257.86 160.506 256.82 160.506 255.04C160.506 253.28 159.446 252.3 158.086 252.3C156.726 252.3 155.646 253.3 155.646 255.06ZM170.207 257.88C171.507 257.88 172.707 256.94 172.707 255.08C172.707 253.22 171.507 252.28 170.207 252.28C168.907 252.28 167.707 253.22 167.707 255.08C167.707 256.92 168.907 257.88 170.207 257.88ZM170.207 249.86C173.147 249.86 175.367 252.04 175.367 255.08C175.367 258.1 173.147 260.3 170.207 260.3C167.267 260.3 165.047 258.1 165.047 255.08C165.047 252.04 167.267 249.86 170.207 249.86ZM179.398 253.96H183.798C183.758 252.98 183.118 252.02 181.598 252.02C180.218 252.02 179.458 253.06 179.398 253.96ZM184.058 256.52L186.278 257.18C185.778 258.88 184.218 260.3 181.798 260.3C179.098 260.3 176.718 258.36 176.718 255.04C176.718 251.9 179.038 249.86 181.558 249.86C184.598 249.86 186.418 251.8 186.418 254.96C186.418 255.34 186.378 255.74 186.378 255.78H179.338C179.398 257.08 180.498 258.02 181.818 258.02C183.058 258.02 183.738 257.4 184.058 256.52ZM187.964 258.32C187.964 257.32 188.784 256.5 189.784 256.5C190.804 256.5 191.624 257.32 191.624 258.32C191.624 259.32 190.804 260.14 189.784 260.14C188.784 260.14 187.964 259.32 187.964 258.32ZM193.346 258.32C193.346 257.32 194.166 256.5 195.166 256.5C196.186 256.5 197.006 257.32 197.006 258.32C197.006 259.32 196.186 260.14 195.166 260.14C194.166 260.14 193.346 259.32 193.346 258.32ZM198.727 258.32C198.727 257.32 199.547 256.5 200.547 256.5C201.567 256.5 202.387 257.32 202.387 258.32C202.387 259.32 201.567 260.14 200.547 260.14C199.547 260.14 198.727 259.32 198.727 258.32Z" fill="white"/>
<path d="M96.672 281.03C96.672 277.712 99.164 275.864 101.656 275.864C104.148 275.864 106.64 277.712 106.64 281.03C106.64 282.598 106.08 283.83 105.24 284.698L106.402 286L105.464 286.826L104.26 285.496C103.476 285.972 102.566 286.21 101.656 286.21C99.164 286.21 96.672 284.348 96.672 281.03ZM98.072 281.03C98.072 283.62 99.808 284.95 101.656 284.95C102.272 284.95 102.86 284.81 103.392 284.516L101.67 282.584L102.622 281.758L104.358 283.718C104.89 283.074 105.24 282.178 105.24 281.03C105.24 278.44 103.504 277.124 101.656 277.124C99.808 277.124 98.072 278.44 98.072 281.03ZM112.644 285.188C112.28 285.888 111.44 286.21 110.656 286.21C109.088 286.21 108.136 285.034 108.136 283.508V279.266H109.452V283.312C109.452 284.236 109.872 285.048 110.978 285.048C112.042 285.048 112.574 284.348 112.574 283.326V279.266H113.89V284.754C113.89 285.286 113.932 285.762 113.96 286H112.7C112.672 285.846 112.644 285.468 112.644 285.188ZM117.163 286H115.861V279.266H117.163V286ZM115.567 276.718C115.567 276.186 115.987 275.766 116.505 275.766C117.037 275.766 117.457 276.186 117.457 276.718C117.457 277.236 117.037 277.656 116.505 277.656C115.987 277.656 115.567 277.236 115.567 276.718ZM118.596 284.25L119.786 283.83C119.87 284.53 120.402 285.09 121.354 285.09C122.096 285.09 122.502 284.67 122.502 284.194C122.502 283.774 122.194 283.452 121.634 283.326L120.486 283.074C119.436 282.85 118.806 282.136 118.806 281.184C118.806 280.036 119.884 279.056 121.2 279.056C123.048 279.056 123.622 280.26 123.762 280.862L122.6 281.296C122.544 280.946 122.264 280.176 121.2 280.176C120.528 280.176 120.08 280.61 120.08 281.072C120.08 281.478 120.332 281.772 120.85 281.884L121.942 282.122C123.16 282.388 123.804 283.13 123.804 284.124C123.804 285.076 123.006 286.21 121.34 286.21C119.492 286.21 118.708 285.02 118.596 284.25ZM128.248 284.194C128.248 282.99 129.13 282.318 130.292 282.15L132.112 281.884C132.518 281.828 132.63 281.618 132.63 281.38C132.63 280.722 132.196 280.176 131.174 280.176C130.25 280.176 129.732 280.75 129.648 281.534L128.388 281.24C128.528 279.952 129.69 279.056 131.146 279.056C133.162 279.056 133.946 280.204 133.946 281.52V284.894C133.946 285.482 134.002 285.832 134.03 286H132.742C132.714 285.832 132.672 285.58 132.672 285.09C132.378 285.566 131.706 286.21 130.502 286.21C129.13 286.21 128.248 285.258 128.248 284.194ZM130.684 285.104C131.762 285.104 132.63 284.586 132.63 283.116V282.808L130.572 283.116C130.012 283.2 129.592 283.522 129.592 284.124C129.592 284.628 130.012 285.104 130.684 285.104ZM140.297 285.188C139.933 285.888 139.093 286.21 138.309 286.21C136.741 286.21 135.789 285.034 135.789 283.508V279.266H137.105V283.312C137.105 284.236 137.525 285.048 138.631 285.048C139.695 285.048 140.227 284.348 140.227 283.326V279.266H141.543V284.754C141.543 285.286 141.585 285.762 141.613 286H140.353C140.325 285.846 140.297 285.468 140.297 285.188ZM145.348 277.138V279.266H146.804V280.456H145.348V283.956C145.348 284.572 145.6 284.88 146.286 284.88C146.454 284.88 146.692 284.852 146.804 284.824V285.944C146.692 285.986 146.356 286.07 145.908 286.07C144.76 286.07 144.032 285.37 144.032 284.152V280.456H142.744V279.266H143.108C143.836 279.266 144.144 278.818 144.144 278.23V277.138H145.348ZM149.1 281.94H152.782C152.754 280.974 152.124 280.218 150.934 280.218C149.828 280.218 149.156 281.072 149.1 281.94ZM152.978 283.69L154.112 284.082C153.734 285.272 152.656 286.21 151.088 286.21C149.282 286.21 147.7 284.894 147.7 282.612C147.7 280.498 149.226 279.056 150.92 279.056C152.992 279.056 154.154 280.484 154.154 282.584C154.154 282.752 154.14 282.92 154.126 283.004H149.058C149.086 284.208 149.954 285.048 151.088 285.048C152.18 285.048 152.726 284.446 152.978 283.69ZM156.942 286H155.64V279.266H156.9V280.162C157.32 279.42 158.16 279.07 158.944 279.07C159.784 279.07 160.596 279.476 160.96 280.344C161.492 279.378 162.36 279.07 163.214 279.07C164.39 279.07 165.538 279.868 165.538 281.632V286H164.236V281.772C164.236 280.89 163.802 280.232 162.808 280.232C161.884 280.232 161.254 280.96 161.254 281.926V286H159.938V281.772C159.938 280.904 159.518 280.232 158.51 280.232C157.572 280.232 156.942 280.932 156.942 281.94V286ZM176.423 279.266L173.735 286H172.405L169.675 279.266H171.159L173.077 284.46L175.009 279.266H176.423ZM178.382 281.94H182.064C182.036 280.974 181.406 280.218 180.216 280.218C179.11 280.218 178.438 281.072 178.382 281.94ZM182.26 283.69L183.394 284.082C183.016 285.272 181.938 286.21 180.37 286.21C178.564 286.21 176.982 284.894 176.982 282.612C176.982 280.498 178.508 279.056 180.202 279.056C182.274 279.056 183.436 280.484 183.436 282.584C183.436 282.752 183.422 282.92 183.408 283.004H178.34C178.368 284.208 179.236 285.048 180.37 285.048C181.462 285.048 182.008 284.446 182.26 283.69ZM186.237 286H184.921V275.864H186.237V286ZM192.516 281.94H196.198C196.17 280.974 195.54 280.218 194.35 280.218C193.244 280.218 192.572 281.072 192.516 281.94ZM196.394 283.69L197.528 284.082C197.15 285.272 196.072 286.21 194.504 286.21C192.698 286.21 191.116 284.894 191.116 282.612C191.116 280.498 192.642 279.056 194.336 279.056C196.408 279.056 197.57 280.484 197.57 282.584C197.57 282.752 197.556 282.92 197.542 283.004H192.474C192.502 284.208 193.37 285.048 194.504 285.048C195.596 285.048 196.142 284.446 196.394 283.69ZM203.493 285.188C203.129 285.888 202.289 286.21 201.505 286.21C199.937 286.21 198.985 285.034 198.985 283.508V279.266H200.301V283.312C200.301 284.236 200.721 285.048 201.827 285.048C202.891 285.048 203.423 284.348 203.423 283.326V279.266H204.739V284.754C204.739 285.286 204.781 285.762 204.809 286H203.549C203.521 285.846 203.493 285.468 203.493 285.188ZM208.012 286H206.71V279.266H207.97V280.162C208.39 279.42 209.23 279.07 210.014 279.07C210.854 279.07 211.666 279.476 212.03 280.344C212.562 279.378 213.43 279.07 214.284 279.07C215.46 279.07 216.608 279.868 216.608 281.632V286H215.306V281.772C215.306 280.89 214.872 280.232 213.878 280.232C212.954 280.232 212.324 280.96 212.324 281.926V286H211.008V281.772C211.008 280.904 210.588 280.232 209.58 280.232C208.642 280.232 208.012 280.932 208.012 281.94V286ZM223.159 286H221.857V279.266H223.159V286ZM221.563 276.718C221.563 276.186 221.983 275.766 222.501 275.766C223.033 275.766 223.453 276.186 223.453 276.718C223.453 277.236 223.033 277.656 222.501 277.656C221.983 277.656 221.563 277.236 221.563 276.718ZM229.561 285.188C229.197 285.888 228.357 286.21 227.573 286.21C226.005 286.21 225.053 285.034 225.053 283.508V279.266H226.369V283.312C226.369 284.236 226.789 285.048 227.895 285.048C228.959 285.048 229.491 284.348 229.491 283.326V279.266H230.807V284.754C230.807 285.286 230.849 285.762 230.877 286H229.617C229.589 285.846 229.561 285.468 229.561 285.188ZM236.517 279.196V280.596C236.321 280.568 236.125 280.554 235.943 280.554C234.837 280.554 234.095 281.142 234.095 282.626V286H232.779V279.266H234.067V280.442C234.557 279.406 235.397 279.154 236.083 279.154C236.265 279.154 236.447 279.182 236.517 279.196ZM238.529 281.94H242.211C242.183 280.974 241.553 280.218 240.363 280.218C239.257 280.218 238.585 281.072 238.529 281.94ZM242.407 283.69L243.541 284.082C243.163 285.272 242.085 286.21 240.517 286.21C238.711 286.21 237.129 284.894 237.129 282.612C237.129 280.498 238.655 279.056 240.349 279.056C242.421 279.056 243.583 280.484 243.583 282.584C243.583 282.752 243.569 282.92 243.555 283.004H238.487C238.515 284.208 239.383 285.048 240.517 285.048C241.609 285.048 242.155 284.446 242.407 283.69ZM244.802 285.104C244.802 284.558 245.222 284.124 245.768 284.124C246.314 284.124 246.748 284.558 246.748 285.104C246.748 285.65 246.314 286.07 245.768 286.07C245.222 286.07 244.802 285.65 244.802 285.104ZM248.164 285.104C248.164 284.558 248.584 284.124 249.13 284.124C249.676 284.124 250.11 284.558 250.11 285.104C250.11 285.65 249.676 286.07 249.13 286.07C248.584 286.07 248.164 285.65 248.164 285.104ZM251.527 285.104C251.527 284.558 251.947 284.124 252.493 284.124C253.039 284.124 253.473 284.558 253.473 285.104C253.473 285.65 253.039 286.07 252.493 286.07C251.947 286.07 251.527 285.65 251.527 285.104Z" fill="white" fill-opacity="0.7"/>
<rect x="824" y="247" width="108" height="36" rx="18" fill="#4055E2"/>
<path d="M844 262.856C844 262.288 844.226 261.743 844.628 261.341C845.03 260.939 845.575 260.713 846.143 260.713H849.573C850.142 260.713 850.687 260.939 851.089 261.341C851.491 261.743 851.716 262.288 851.716 262.856V267.143C851.716 267.712 851.491 268.257 851.089 268.659C850.687 269.061 850.142 269.287 849.573 269.287H846.143C845.575 269.287 845.03 269.061 844.628 268.659C844.226 268.257 844 267.712 844 267.143V262.856ZM854.32 268.239L852.488 266.975C852.5 266.895 852.505 266.814 852.505 266.733V263.269C852.505 263.186 852.5 263.106 852.488 263.026L854.32 261.762C854.48 261.651 854.668 261.586 854.863 261.575C855.058 261.563 855.253 261.605 855.426 261.695C855.599 261.786 855.744 261.922 855.845 262.09C855.946 262.257 856 262.448 856 262.644V267.358C856 267.553 855.946 267.745 855.845 267.912C855.744 268.079 855.599 268.215 855.426 268.306C855.253 268.397 855.058 268.439 854.863 268.427C854.668 268.415 854.48 268.35 854.32 268.239Z" fill="white"/>
<path d="M860.336 267.004V266.36L861.974 266.024V266.948C861.974 268.11 862.632 268.628 863.5 268.628C864.396 268.628 864.956 268.026 864.956 267.018V260.074H866.636V266.976C866.636 268.74 865.404 270.21 863.514 270.21C861.568 270.21 860.336 268.936 860.336 267.004ZM871.58 268.754C872.588 268.754 873.484 268.012 873.484 266.584C873.484 265.17 872.588 264.442 871.58 264.442C870.586 264.442 869.676 265.17 869.676 266.584C869.676 267.998 870.586 268.754 871.58 268.754ZM871.58 262.972C873.624 262.972 875.122 264.498 875.122 266.584C875.122 268.684 873.624 270.21 871.58 270.21C869.55 270.21 868.052 268.684 868.052 266.584C868.052 264.498 869.55 262.972 871.58 262.972ZM878.147 270H876.537V263.182H878.147V270ZM876.285 260.788C876.285 260.2 876.761 259.724 877.335 259.724C877.923 259.724 878.399 260.2 878.399 260.788C878.399 261.376 877.923 261.838 877.335 261.838C876.761 261.838 876.285 261.376 876.285 260.788ZM881.619 266.066V270H879.995V263.182H881.577V264.092C882.025 263.308 882.837 262.986 883.593 262.986C885.259 262.986 886.057 264.19 886.057 265.688V270H884.433V265.968C884.433 265.128 884.055 264.456 883.033 264.456C882.109 264.456 881.619 265.17 881.619 266.066ZM892.692 270H891.068V259.864H892.692V270ZM896.149 270H894.539V263.182H896.149V270ZM894.287 260.788C894.287 260.2 894.763 259.724 895.337 259.724C895.925 259.724 896.401 260.2 896.401 260.788C896.401 261.376 895.925 261.838 895.337 261.838C894.763 261.838 894.287 261.376 894.287 260.788ZM904.284 263.182L901.61 270H899.986L897.214 263.182H899.006L900.812 268.054L902.576 263.182H904.284ZM906.393 265.842H909.739C909.711 265.044 909.179 264.33 908.059 264.33C907.037 264.33 906.449 265.114 906.393 265.842ZM909.921 267.62L911.293 268.054C910.929 269.244 909.851 270.21 908.213 270.21C906.365 270.21 904.727 268.866 904.727 266.556C904.727 264.4 906.323 262.972 908.045 262.972C910.145 262.972 911.377 264.358 911.377 266.514C911.377 266.78 911.349 267.004 911.335 267.032H906.351C906.393 268.068 907.205 268.81 908.213 268.81C909.193 268.81 909.697 268.292 909.921 267.62Z" fill="white"/>
<rect x="711" y="247" width="97" height="36" rx="18" fill="#292929"/>
<path d="M735.844 270.21C733.772 270.21 732.148 268.936 732.148 266.542V260.074H733.814V266.444C733.814 267.844 734.584 268.614 735.844 268.614C737.118 268.614 737.874 267.844 737.874 266.444V260.074H739.554V266.542C739.554 268.936 737.93 270.21 735.844 270.21ZM743.092 266.066V270H741.468V263.182H743.05V264.092C743.498 263.308 744.31 262.986 745.066 262.986C746.732 262.986 747.53 264.19 747.53 265.688V270H745.906V265.968C745.906 265.128 745.528 264.456 744.506 264.456C743.582 264.456 743.092 265.17 743.092 266.066ZM752.466 261.25C752.032 261.25 751.458 261.446 751.458 262.286V263.182H753.04V264.596H751.458V270H749.82V264.596H748.63V263.182H749.82V262.244C749.82 260.718 750.8 259.794 752.2 259.794C752.606 259.794 752.942 259.878 753.054 259.934V261.32C752.956 261.292 752.774 261.25 752.466 261.25ZM757.138 268.754C758.146 268.754 759.042 268.012 759.042 266.584C759.042 265.17 758.146 264.442 757.138 264.442C756.144 264.442 755.234 265.17 755.234 266.584C755.234 267.998 756.144 268.754 757.138 268.754ZM757.138 262.972C759.182 262.972 760.68 264.498 760.68 266.584C760.68 268.684 759.182 270.21 757.138 270.21C755.108 270.21 753.61 268.684 753.61 266.584C753.61 264.498 755.108 262.972 757.138 262.972ZM763.72 270H762.096V259.864H763.72V270ZM767.192 270H765.568V259.864H767.192V270ZM772.133 268.754C773.141 268.754 774.037 268.012 774.037 266.584C774.037 265.17 773.141 264.442 772.133 264.442C771.139 264.442 770.229 265.17 770.229 266.584C770.229 267.998 771.139 268.754 772.133 268.754ZM772.133 262.972C774.177 262.972 775.675 264.498 775.675 266.584C775.675 268.684 774.177 270.21 772.133 270.21C770.103 270.21 768.605 268.684 768.605 266.584C768.605 264.498 770.103 262.972 772.133 262.972ZM780.958 263.182H782.638L784.248 267.9L785.606 263.182H787.258L785.074 270H783.45L781.756 265.1L780.104 270H778.438L776.226 263.182H777.962L779.348 267.9L780.958 263.182Z" fill="white"/>
</svg>
