<svg width="40" height="46" viewBox="0 0 40 46" fill="none" xmlns="http://www.w3.org/2000/svg">
<path d="M26.3607 0.538574H13.6393C6.10654 0.538574 0 6.64512 0 14.1779V25.3608C0 32.8936 6.10654 39.0001 13.6393 39.0001H26.3607C33.8935 39.0001 40 32.8936 40 25.3608V14.1779C40 6.64512 33.8935 0.538574 26.3607 0.538574Z" fill="white"/>
<path d="M33.8464 19.7695C33.8464 12.124 27.6457 5.92334 20.0002 5.92334C18.7469 5.92334 17.5319 6.08715 16.3778 6.40344C15.7231 6.58286 15.6216 7.43198 16.1422 7.86762C16.9361 8.53199 17.6625 9.27158 18.309 10.0815C18.5003 10.3212 18.8 10.4483 19.1056 10.4224C19.4018 10.3973 19.701 10.3833 20.0002 10.3833C25.1882 10.3833 29.3865 14.5815 29.3865 19.7695C29.3865 24.9576 25.1882 29.1558 20.0002 29.1558C19.701 29.1558 19.4018 29.1418 19.1056 29.1167C18.8 29.0909 18.5003 29.2179 18.309 29.4576C17.6625 30.2675 16.9361 31.0071 16.1422 31.6715C15.6216 32.1071 15.7231 32.9562 16.3778 33.1356C17.5319 33.4519 18.7469 33.6158 20.0002 33.6158C22.0296 33.6158 23.9491 33.1666 25.6853 32.3801C25.8453 32.3076 26.0229 32.2823 26.196 32.3118L31.8927 33.2828C32.6304 33.4085 33.1606 32.5905 32.7445 31.9685L30.9215 29.2431C30.7099 28.9268 30.7358 28.5101 30.9683 28.2088C32.7705 25.8721 33.8464 22.9484 33.8464 19.7695Z" fill="#1D1D1F"/>
<path d="M8.76782 12.7877C8.41119 12.655 8.01739 12.8131 7.83498 13.147C6.76033 15.1143 6.15381 17.3708 6.15381 19.7694C6.15381 22.1681 6.76033 24.4245 7.83498 26.3918C8.01739 26.7258 8.41119 26.8838 8.76782 26.7511C9.81166 26.3628 10.742 25.745 11.5018 24.9591C11.751 24.7014 11.7746 24.3099 11.6128 23.99C10.9723 22.7232 10.6137 21.2857 10.6137 19.7694C10.6137 18.2532 10.9723 16.8156 11.6128 15.5488C11.7746 15.2289 11.751 14.8374 11.5018 14.5797C10.742 13.7939 9.81166 13.176 8.76782 12.7877Z" fill="#1D1D1F"/>
<path d="M6.15383 43.5065C6.15382 44.2509 7.0409 44.6377 7.58635 44.1312L15.3323 36.9386C15.9 36.4114 15.527 35.4614 14.7522 35.4614H7.00636C6.53557 35.4614 6.15391 35.8431 6.15391 36.3139L6.15383 43.5065Z" fill="white"/>
</svg>
