<svg width="434" height="388" viewBox="0 0 434 388" fill="none" xmlns="http://www.w3.org/2000/svg">
<rect y="0.922852" width="434" height="387" rx="30" fill="#00C7BE"/>
<path d="M42 41.5307C43.8242 42.5839 45.3391 44.0988 46.3923 45.9231C47.4455 47.7473 48 49.8167 48 51.9231C48 54.0296 47.4455 56.0989 46.3922 57.9231C45.339 59.7474 43.8241 61.2622 41.9999 62.3154C40.1756 63.3686 38.1063 63.9231 35.9998 63.923C33.8934 63.923 31.824 63.3685 29.9998 62.3152C28.1756 61.262 26.6607 59.7471 25.6076 57.9228C24.5544 56.0985 23.9999 54.0292 24 51.9227L24.006 51.5339C24.0732 49.4615 24.6763 47.4419 25.7564 45.6719C26.8365 43.902 28.3568 42.4421 30.1691 41.4346C31.9814 40.4271 34.0238 39.9064 36.0972 39.9232C38.1706 39.9401 40.2043 40.4939 42 41.5307ZM36 44.7227C35.6817 44.7227 35.3765 44.8492 35.1515 45.0742C34.9264 45.2992 34.8 45.6045 34.8 45.9227C33.8452 45.9227 32.9295 46.302 32.2544 46.9771C31.5793 47.6523 31.2 48.5679 31.2 49.5227C31.2 50.4775 31.5793 51.3932 32.2544 52.0683C32.9295 52.7434 33.8452 53.1227 34.8 53.1227V55.5227C34.601 55.5337 34.4023 55.496 34.2212 55.4128C34.0401 55.3295 33.882 55.2033 33.7608 55.0451L33.6792 54.9239C33.515 54.6591 33.2543 54.4686 32.9522 54.3926C32.65 54.3166 32.3302 54.361 32.0602 54.5166C31.7903 54.6721 31.5914 54.9265 31.5057 55.2261C31.4199 55.5256 31.4541 55.8467 31.6008 56.1215C31.9071 56.6527 32.344 57.0969 32.87 57.4119C33.3961 57.7269 33.9939 57.9023 34.6068 57.9215H34.8C34.7997 58.2157 34.9075 58.4996 35.1029 58.7195C35.2982 58.9394 35.5675 59.0799 35.8596 59.1143L36 59.1227C36.3183 59.1227 36.6235 58.9963 36.8485 58.7713C37.0736 58.5462 37.2 58.241 37.2 57.9227L37.4112 57.9167C38.3467 57.8627 39.2243 57.4459 39.8574 56.7551C40.4906 56.0643 40.8294 55.1538 40.8019 54.2171C40.7744 53.2804 40.3828 52.3914 39.7102 51.7388C39.0376 51.0863 38.1371 50.7218 37.2 50.7227V48.3227C37.6296 48.3083 38.0052 48.4907 38.2392 48.8003L38.3208 48.9215C38.485 49.1863 38.7457 49.3768 39.0478 49.4529C39.35 49.5289 39.6698 49.4844 39.9398 49.3289C40.2097 49.1733 40.4086 48.9189 40.4943 48.6194C40.5801 48.3199 40.5459 47.9987 40.3992 47.7239C40.0931 47.1925 39.6562 46.7481 39.1302 46.4329C38.6041 46.1176 38.0062 45.942 37.3932 45.9227H37.2C37.2 45.6045 37.0736 45.2992 36.8485 45.0742C36.6235 44.8492 36.3183 44.7227 36 44.7227ZM37.2 53.1227C37.5183 53.1227 37.8235 53.2492 38.0485 53.4742C38.2736 53.6992 38.4 54.0045 38.4 54.3227C38.4 54.641 38.2736 54.9462 38.0485 55.1713C37.8235 55.3963 37.5183 55.5227 37.2 55.5227V53.1227ZM34.8 48.3227V50.7227C34.4817 50.7227 34.1765 50.5963 33.9515 50.3713C33.7264 50.1462 33.6 49.841 33.6 49.5227C33.6 49.2045 33.7264 48.8992 33.9515 48.6742C34.1765 48.4492 34.4817 48.3227 34.8 48.3227Z" fill="#1D1D1F"/>
<path d="M57.32 51.4269C57.32 47.3949 58.688 42.5949 63.896 42.5949C69.104 42.5949 70.472 47.3949 70.472 51.4269C70.472 55.4109 69.152 60.2349 63.896 60.2349C58.664 60.2349 57.32 55.3869 57.32 51.4269ZM68.144 51.4269C68.144 48.0189 67.232 44.7069 63.896 44.7069C60.536 44.7069 59.672 47.9949 59.672 51.4269C59.672 54.8349 60.56 58.1469 63.896 58.1469C67.232 58.1469 68.144 54.8349 68.144 51.4269ZM72.4608 58.3869C72.4608 57.4509 73.1808 56.7069 74.1168 56.7069C75.0528 56.7069 75.7968 57.4509 75.7968 58.3869C75.7968 59.3229 75.0528 60.0429 74.1168 60.0429C73.1808 60.0429 72.4608 59.3229 72.4608 58.3869ZM80.0099 51.5469C80.6819 49.9389 82.4339 48.7149 84.8819 48.7149C88.1219 48.7149 90.4499 51.0189 90.4499 54.4269C90.4499 57.8349 87.7139 60.2349 84.3059 60.2349C80.5859 60.2349 77.7779 57.4029 77.7779 52.4349C77.7779 45.9789 81.6179 42.5949 86.5139 42.5949C88.0979 42.5949 89.3459 42.9789 90.1139 43.4829L89.4419 45.4509C88.6979 45.0429 87.6659 44.6829 86.3939 44.6829C82.4579 44.6829 80.2739 47.6349 80.0099 51.5469ZM80.4659 54.4749C80.4659 56.7069 82.2419 58.2189 84.2819 58.2189C86.3939 58.2189 88.1459 56.7309 88.1459 54.4749C88.1459 52.1469 86.4659 50.7069 84.3299 50.7069C82.1939 50.7069 80.4659 52.2669 80.4659 54.4749ZM92.7547 51.4269C92.7547 47.3949 94.1227 42.5949 99.3307 42.5949C104.539 42.5949 105.907 47.3949 105.907 51.4269C105.907 55.4109 104.587 60.2349 99.3307 60.2349C94.0987 60.2349 92.7547 55.3869 92.7547 51.4269ZM103.579 51.4269C103.579 48.0189 102.667 44.7069 99.3307 44.7069C95.9707 44.7069 95.1067 47.9949 95.1067 51.4269C95.1067 54.8349 95.9947 58.1469 99.3307 58.1469C102.667 58.1469 103.579 54.8349 103.579 51.4269ZM110.571 51.5469C111.243 49.9389 112.995 48.7149 115.443 48.7149C118.683 48.7149 121.011 51.0189 121.011 54.4269C121.011 57.8349 118.275 60.2349 114.867 60.2349C111.147 60.2349 108.339 57.4029 108.339 52.4349C108.339 45.9789 112.179 42.5949 117.075 42.5949C118.659 42.5949 119.907 42.9789 120.675 43.4829L120.003 45.4509C119.259 45.0429 118.227 44.6829 116.955 44.6829C113.019 44.6829 110.835 47.6349 110.571 51.5469ZM111.027 54.4749C111.027 56.7069 112.803 58.2189 114.843 58.2189C116.955 58.2189 118.707 56.7309 118.707 54.4749C118.707 52.1469 117.027 50.7069 114.891 50.7069C112.755 50.7069 111.027 52.2669 111.027 54.4749ZM141.334 45.0909H135.646V59.9229H133.294V45.0909H127.606V42.9069H141.334V45.0909ZM145.782 58.2669C147.702 58.2669 149.382 56.8269 149.382 54.1389C149.382 51.4749 147.702 50.0349 145.782 50.0349C143.862 50.0349 142.182 51.4749 142.182 54.1389C142.182 56.8269 143.862 58.2669 145.782 58.2669ZM145.782 48.0189C149.238 48.0189 151.686 50.6349 151.686 54.1389C151.686 57.6669 149.238 60.2829 145.782 60.2829C142.326 60.2829 139.878 57.6669 139.878 54.1389C139.878 50.6349 142.326 48.0189 145.782 48.0189ZM164.746 48.3789L159.826 53.2509L164.842 59.9229H162.01L158.242 54.8349L156.634 56.4429V59.9229H154.402V42.5469H156.634V53.4909L161.626 48.3789H164.746ZM167.869 52.9629H174.181C174.133 51.3069 173.053 50.0109 171.013 50.0109C169.117 50.0109 167.965 51.4749 167.869 52.9629ZM174.517 55.9629L176.461 56.6349C175.813 58.6749 173.965 60.2829 171.277 60.2829C168.181 60.2829 165.469 58.0269 165.469 54.1149C165.469 50.4909 168.085 48.0189 170.989 48.0189C174.541 48.0189 176.533 50.4669 176.533 54.0669C176.533 54.3549 176.509 54.6429 176.485 54.7869H167.797C167.845 56.8509 169.333 58.2909 171.277 58.2909C173.149 58.2909 174.085 57.2589 174.517 55.9629ZM181.453 53.2509V59.9229H179.197V48.3789H181.405V50.0349C182.245 48.5949 183.613 48.0429 184.957 48.0429C187.717 48.0429 189.085 50.0349 189.085 52.6029V59.9229H186.829V52.9869C186.829 51.3789 186.157 50.0829 184.141 50.0829C182.365 50.0829 181.453 51.4989 181.453 53.2509ZM191.527 56.9229L193.567 56.2029C193.711 57.4029 194.623 58.3629 196.255 58.3629C197.527 58.3629 198.223 57.6429 198.223 56.8269C198.223 56.1069 197.695 55.5549 196.735 55.3389L194.767 54.9069C192.967 54.5229 191.887 53.2989 191.887 51.6669C191.887 49.6989 193.735 48.0189 195.991 48.0189C199.159 48.0189 200.143 50.0829 200.383 51.1149L198.391 51.8589C198.295 51.2589 197.815 49.9389 195.991 49.9389C194.839 49.9389 194.071 50.6829 194.071 51.4749C194.071 52.1709 194.503 52.6749 195.391 52.8669L197.263 53.2749C199.351 53.7309 200.455 55.0029 200.455 56.7069C200.455 58.3389 199.087 60.2829 196.231 60.2829C193.063 60.2829 191.719 58.2429 191.527 56.9229Z" fill="#1D1D1F"/>
<path d="M250 48.9229H237.659C236.653 48.9229 236.149 48.9229 236.025 48.6139C235.9 48.3059 236.255 47.9419 236.966 47.2159L239.211 44.9229M236 54.9229H248.341C249.347 54.9229 249.851 54.9229 249.975 55.2319C250.1 55.5399 249.745 55.9039 249.034 56.6299L246.789 58.9229" fill="#292929"/>
<path d="M285.32 51.4269C285.32 47.3949 286.688 42.5949 291.896 42.5949C297.104 42.5949 298.472 47.3949 298.472 51.4269C298.472 55.4109 297.152 60.2349 291.896 60.2349C286.664 60.2349 285.32 55.3869 285.32 51.4269ZM296.144 51.4269C296.144 48.0189 295.232 44.7069 291.896 44.7069C288.536 44.7069 287.672 47.9949 287.672 51.4269C287.672 54.8349 288.56 58.1469 291.896 58.1469C295.232 58.1469 296.144 54.8349 296.144 51.4269ZM300.461 58.3869C300.461 57.4509 301.181 56.7069 302.117 56.7069C303.053 56.7069 303.797 57.4509 303.797 58.3869C303.797 59.3229 303.053 60.0429 302.117 60.0429C301.181 60.0429 300.461 59.3229 300.461 58.3869ZM308.01 51.5469C308.682 49.9389 310.434 48.7149 312.882 48.7149C316.122 48.7149 318.45 51.0189 318.45 54.4269C318.45 57.8349 315.714 60.2349 312.306 60.2349C308.586 60.2349 305.778 57.4029 305.778 52.4349C305.778 45.9789 309.618 42.5949 314.514 42.5949C316.098 42.5949 317.346 42.9789 318.114 43.4829L317.442 45.4509C316.698 45.0429 315.666 44.6829 314.394 44.6829C310.458 44.6829 308.274 47.6349 308.01 51.5469ZM308.466 54.4749C308.466 56.7069 310.242 58.2189 312.282 58.2189C314.394 58.2189 316.146 56.7309 316.146 54.4749C316.146 52.1469 314.466 50.7069 312.33 50.7069C310.194 50.7069 308.466 52.2669 308.466 54.4749ZM320.755 51.4269C320.755 47.3949 322.123 42.5949 327.331 42.5949C332.539 42.5949 333.907 47.3949 333.907 51.4269C333.907 55.4109 332.587 60.2349 327.331 60.2349C322.099 60.2349 320.755 55.3869 320.755 51.4269ZM331.579 51.4269C331.579 48.0189 330.667 44.7069 327.331 44.7069C323.971 44.7069 323.107 47.9949 323.107 51.4269C323.107 54.8349 323.995 58.1469 327.331 58.1469C330.667 58.1469 331.579 54.8349 331.579 51.4269ZM338.571 51.5469C339.243 49.9389 340.995 48.7149 343.443 48.7149C346.683 48.7149 349.011 51.0189 349.011 54.4269C349.011 57.8349 346.275 60.2349 342.867 60.2349C339.147 60.2349 336.339 57.4029 336.339 52.4349C336.339 45.9789 340.179 42.5949 345.075 42.5949C346.659 42.5949 347.907 42.9789 348.675 43.4829L348.003 45.4509C347.259 45.0429 346.227 44.6829 344.955 44.6829C341.019 44.6829 338.835 47.6349 338.571 51.5469ZM339.027 54.4749C339.027 56.7069 340.803 58.2189 342.843 58.2189C344.955 58.2189 346.707 56.7309 346.707 54.4749C346.707 52.1469 345.027 50.7069 342.891 50.7069C340.755 50.7069 339.027 52.2669 339.027 54.4749ZM370.307 42.9069L364.523 51.4029L370.235 59.9229H367.427L363.131 53.2749L358.739 59.9229H355.979L361.787 51.4029L356.027 42.9069H358.859L363.155 49.5789L367.523 42.9069H370.307ZM391.142 59.9229H388.814V46.6749L383.006 59.9229H380.846L375.086 46.6749V59.9229H372.758V42.9069H375.95L381.95 56.7549L387.998 42.9069H391.142V59.9229ZM404.346 59.9229L400.458 52.9629H397.914V59.9229H395.538V42.9069H401.946C405.162 42.9069 407.154 45.1629 407.154 47.9709C407.154 50.4189 405.594 52.3149 403.026 52.7949L407.082 59.9229H404.346ZM397.914 50.8509H401.514C403.434 50.8509 404.73 49.7229 404.73 47.9709C404.73 46.1709 403.434 45.0189 401.514 45.0189H397.914V50.8509Z" fill="#292929"/>
<path d="M32.64 110.155L31.232 110.651C31.104 109.835 30.416 108.715 28.832 108.715C27.552 108.715 26.64 109.547 26.64 110.603C26.64 111.419 27.136 112.043 28.096 112.251L29.792 112.619C31.68 113.035 32.736 114.219 32.736 115.803C32.736 117.563 31.232 119.163 28.816 119.163C26.08 119.163 24.784 117.403 24.576 115.787L26.08 115.307C26.192 116.571 27.088 117.739 28.8 117.739C30.368 117.739 31.136 116.923 31.136 115.931C31.136 115.115 30.576 114.411 29.44 114.171L27.824 113.819C26.208 113.467 25.056 112.411 25.056 110.715C25.056 108.939 26.704 107.339 28.8 107.339C31.36 107.339 32.384 108.923 32.64 110.155ZM35.639 114.283H39.847C39.815 113.179 39.095 112.315 37.735 112.315C36.471 112.315 35.703 113.291 35.639 114.283ZM40.071 116.283L41.367 116.731C40.935 118.091 39.703 119.163 37.911 119.163C35.847 119.163 34.039 117.659 34.039 115.051C34.039 112.635 35.783 110.987 37.719 110.987C40.087 110.987 41.415 112.619 41.415 115.019C41.415 115.211 41.399 115.403 41.383 115.499H35.591C35.623 116.875 36.615 117.835 37.911 117.835C39.159 117.835 39.783 117.147 40.071 116.283ZM44.16 115.051C44.16 116.635 44.976 117.803 46.416 117.803C47.792 117.803 48.64 116.603 48.64 115.019C48.64 113.435 47.808 112.347 46.432 112.347C45.056 112.347 44.16 113.467 44.16 115.051ZM48.656 117.883V117.755C48.288 118.491 47.472 119.131 46.272 119.131C44.016 119.131 42.624 117.339 42.624 115.051C42.624 112.875 44.096 111.019 46.272 111.019C47.632 111.019 48.368 111.691 48.624 112.315V107.339H50.112V117.499C50.112 118.235 50.176 118.795 50.192 118.923H48.736C48.704 118.747 48.656 118.347 48.656 117.883ZM61.3311 117.995C60.9151 118.795 59.9551 119.163 59.0591 119.163C57.2671 119.163 56.1791 117.819 56.1791 116.075V111.227H57.6831V115.851C57.6831 116.907 58.1631 117.835 59.4271 117.835C60.6431 117.835 61.2511 117.035 61.2511 115.867V111.227H62.7551V117.499C62.7551 118.107 62.8031 118.651 62.8351 118.923H61.3951C61.3631 118.747 61.3311 118.315 61.3311 117.995ZM67.1276 108.795V111.227H68.7916V112.587H67.1276V116.587C67.1276 117.291 67.4156 117.643 68.1996 117.643C68.3916 117.643 68.6636 117.611 68.7916 117.579V118.859C68.6636 118.907 68.2796 119.003 67.7676 119.003C66.4556 119.003 65.6236 118.203 65.6236 116.811V112.587H64.1516V111.227H64.5676C65.3996 111.227 65.7516 110.715 65.7516 110.043V108.795H67.1276ZM75.7678 121.963H74.2798V111.227H75.7358V112.427C76.1518 111.659 77.0638 111.051 78.3118 111.051C80.6158 111.051 81.8478 112.827 81.8478 115.067C81.8478 117.355 80.5198 119.131 78.2638 119.131C77.0798 119.131 76.1838 118.571 75.7678 117.883V121.963ZM80.3118 115.067C80.3118 113.531 79.4478 112.379 78.0398 112.379C76.6638 112.379 75.7518 113.531 75.7518 115.067C75.7518 116.651 76.6638 117.787 78.0398 117.787C79.4318 117.787 80.3118 116.651 80.3118 115.067ZM84.7028 114.283H88.9108C88.8788 113.179 88.1588 112.315 86.7988 112.315C85.5348 112.315 84.7668 113.291 84.7028 114.283ZM89.1348 116.283L90.4308 116.731C89.9988 118.091 88.7668 119.163 86.9748 119.163C84.9108 119.163 83.1028 117.659 83.1028 115.051C83.1028 112.635 84.8468 110.987 86.7828 110.987C89.1508 110.987 90.4788 112.619 90.4788 115.019C90.4788 115.211 90.4628 115.403 90.4468 115.499H84.6548C84.6868 116.875 85.6788 117.835 86.9748 117.835C88.2228 117.835 88.8468 117.147 89.1348 116.283ZM96.4717 111.147V112.747C96.2477 112.715 96.0237 112.699 95.8157 112.699C94.5517 112.699 93.7037 113.371 93.7037 115.067V118.923H92.1997V111.227H93.6717V112.571C94.2317 111.387 95.1917 111.099 95.9757 111.099C96.1837 111.099 96.3917 111.131 96.4717 111.147ZM97.2392 116.923L98.5992 116.443C98.6952 117.243 99.3032 117.883 100.391 117.883C101.239 117.883 101.703 117.403 101.703 116.859C101.703 116.379 101.351 116.011 100.711 115.867L99.3992 115.579C98.1992 115.323 97.4792 114.507 97.4792 113.419C97.4792 112.107 98.7112 110.987 100.215 110.987C102.327 110.987 102.983 112.363 103.143 113.051L101.815 113.547C101.751 113.147 101.431 112.267 100.215 112.267C99.4472 112.267 98.9352 112.763 98.9352 113.291C98.9352 113.755 99.2232 114.091 99.8152 114.219L101.063 114.491C102.455 114.795 103.191 115.643 103.191 116.779C103.191 117.867 102.279 119.163 100.375 119.163C98.2632 119.163 97.3672 117.803 97.2392 116.923ZM106.451 121.963H104.963V111.227H106.419V112.427C106.835 111.659 107.747 111.051 108.995 111.051C111.299 111.051 112.531 112.827 112.531 115.067C112.531 117.355 111.203 119.131 108.947 119.131C107.763 119.131 106.867 118.571 106.451 117.883V121.963ZM110.995 115.067C110.995 113.531 110.131 112.379 108.723 112.379C107.347 112.379 106.435 113.531 106.435 115.067C106.435 116.651 107.347 117.787 108.723 117.787C110.115 117.787 110.995 116.651 110.995 115.067ZM115.786 118.923H114.298V111.227H115.786V118.923ZM113.962 108.315C113.962 107.707 114.442 107.227 115.034 107.227C115.642 107.227 116.122 107.707 116.122 108.315C116.122 108.907 115.642 109.387 115.034 109.387C114.442 109.387 113.962 108.907 113.962 108.315ZM121.415 112.379C120.199 112.379 119.079 113.275 119.079 115.067C119.079 116.827 120.183 117.771 121.431 117.771C122.871 117.771 123.399 116.795 123.575 116.187L124.903 116.763C124.535 117.867 123.431 119.163 121.431 119.163C119.191 119.163 117.543 117.403 117.543 115.067C117.543 112.667 119.223 110.987 121.415 110.987C123.463 110.987 124.519 112.267 124.839 113.435L123.479 114.011C123.287 113.259 122.727 112.379 121.415 112.379ZM128.003 118.923H126.515V111.227H128.003V118.923ZM126.179 108.315C126.179 107.707 126.659 107.227 127.251 107.227C127.859 107.227 128.339 107.707 128.339 108.315C128.339 108.907 127.859 109.387 127.251 109.387C126.659 109.387 126.179 108.907 126.179 108.315ZM129.76 116.859C129.76 115.483 130.768 114.715 132.096 114.523L134.176 114.219C134.64 114.155 134.768 113.915 134.768 113.643C134.768 112.891 134.272 112.267 133.104 112.267C132.048 112.267 131.456 112.923 131.36 113.819L129.92 113.483C130.08 112.011 131.408 110.987 133.072 110.987C135.376 110.987 136.272 112.299 136.272 113.803V117.659C136.272 118.331 136.336 118.731 136.368 118.923H134.896C134.864 118.731 134.816 118.443 134.816 117.883C134.48 118.427 133.712 119.163 132.336 119.163C130.768 119.163 129.76 118.075 129.76 116.859ZM132.544 117.899C133.776 117.899 134.768 117.307 134.768 115.627V115.275L132.416 115.627C131.776 115.723 131.296 116.091 131.296 116.779C131.296 117.355 131.776 117.899 132.544 117.899ZM140.516 108.795V111.227H142.18V112.587H140.516V116.587C140.516 117.291 140.804 117.643 141.588 117.643C141.78 117.643 142.052 117.611 142.18 117.579V118.859C142.052 118.907 141.668 119.003 141.156 119.003C139.844 119.003 139.012 118.203 139.012 116.811V112.587H137.54V111.227H137.956C138.788 111.227 139.14 110.715 139.14 110.043V108.795H140.516ZM145.29 118.923H143.802V111.227H145.29V118.923ZM143.466 108.315C143.466 107.707 143.946 107.227 144.538 107.227C145.146 107.227 145.626 107.707 145.626 108.315C145.626 108.907 145.146 109.387 144.538 109.387C143.946 109.387 143.466 108.907 143.466 108.315ZM146.95 116.923L148.31 116.443C148.406 117.243 149.014 117.883 150.102 117.883C150.95 117.883 151.414 117.403 151.414 116.859C151.414 116.379 151.062 116.011 150.422 115.867L149.11 115.579C147.91 115.323 147.19 114.507 147.19 113.419C147.19 112.107 148.422 110.987 149.926 110.987C152.038 110.987 152.694 112.363 152.854 113.051L151.526 113.547C151.462 113.147 151.142 112.267 149.926 112.267C149.158 112.267 148.646 112.763 148.646 113.291C148.646 113.755 148.934 114.091 149.526 114.219L150.774 114.491C152.166 114.795 152.902 115.643 152.902 116.779C152.902 117.867 151.99 119.163 150.086 119.163C147.974 119.163 147.078 117.803 146.95 116.923ZM163.613 117.995C163.197 118.795 162.237 119.163 161.341 119.163C159.549 119.163 158.461 117.819 158.461 116.075V111.227H159.965V115.851C159.965 116.907 160.445 117.835 161.709 117.835C162.925 117.835 163.533 117.035 163.533 115.867V111.227H165.037V117.499C165.037 118.107 165.085 118.651 165.117 118.923H163.677C163.645 118.747 163.613 118.315 163.613 117.995ZM168.818 114.475V118.923H167.314V111.227H168.786V112.331C169.346 111.371 170.258 111.003 171.154 111.003C172.994 111.003 173.906 112.331 173.906 114.043V118.923H172.402V114.299C172.402 113.227 171.954 112.363 170.61 112.363C169.426 112.363 168.818 113.307 168.818 114.475ZM177.11 115.051C177.11 116.635 177.926 117.803 179.366 117.803C180.742 117.803 181.59 116.603 181.59 115.019C181.59 113.435 180.758 112.347 179.382 112.347C178.006 112.347 177.11 113.467 177.11 115.051ZM181.606 117.883V117.755C181.238 118.491 180.422 119.131 179.222 119.131C176.966 119.131 175.574 117.339 175.574 115.051C175.574 112.875 177.046 111.019 179.222 111.019C180.582 111.019 181.318 111.691 181.574 112.315V107.339H183.062V117.499C183.062 118.235 183.126 118.795 183.142 118.923H181.686C181.654 118.747 181.606 118.347 181.606 117.883ZM186.431 114.283H190.639C190.607 113.179 189.887 112.315 188.527 112.315C187.263 112.315 186.495 113.291 186.431 114.283ZM190.863 116.283L192.159 116.731C191.727 118.091 190.495 119.163 188.703 119.163C186.639 119.163 184.831 117.659 184.831 115.051C184.831 112.635 186.575 110.987 188.511 110.987C190.879 110.987 192.207 112.619 192.207 115.019C192.207 115.211 192.191 115.403 192.175 115.499H186.383C186.415 116.875 187.407 117.835 188.703 117.835C189.951 117.835 190.575 117.147 190.863 116.283ZM201.218 117.819C202.498 117.819 203.618 116.859 203.618 115.067C203.618 113.291 202.498 112.331 201.218 112.331C199.938 112.331 198.818 113.291 198.818 115.067C198.818 116.859 199.938 117.819 201.218 117.819ZM201.218 110.987C203.522 110.987 205.154 112.731 205.154 115.067C205.154 117.419 203.522 119.163 201.218 119.163C198.914 119.163 197.282 117.419 197.282 115.067C197.282 112.731 198.914 110.987 201.218 110.987ZM208.398 118.923H206.91V111.227H208.35V112.251C208.83 111.403 209.79 111.003 210.686 111.003C211.646 111.003 212.574 111.467 212.99 112.459C213.598 111.355 214.59 111.003 215.566 111.003C216.91 111.003 218.222 111.915 218.222 113.931V118.923H216.734V114.091C216.734 113.083 216.238 112.331 215.102 112.331C214.046 112.331 213.326 113.163 213.326 114.267V118.923H211.822V114.091C211.822 113.099 211.342 112.331 210.19 112.331C209.118 112.331 208.398 113.131 208.398 114.283V118.923ZM221.906 114.475V118.923H220.402V111.227H221.874V112.331C222.434 111.371 223.346 111.003 224.242 111.003C226.082 111.003 226.994 112.331 226.994 114.043V118.923H225.49V114.299C225.49 113.227 225.042 112.363 223.698 112.363C222.514 112.363 221.906 113.307 221.906 114.475ZM230.662 118.923H229.174V111.227H230.662V118.923ZM228.838 108.315C228.838 107.707 229.318 107.227 229.91 107.227C230.518 107.227 230.998 107.707 230.998 108.315C230.998 108.907 230.518 109.387 229.91 109.387C229.318 109.387 228.838 108.907 228.838 108.315ZM232.323 116.923L233.683 116.443C233.779 117.243 234.387 117.883 235.475 117.883C236.323 117.883 236.787 117.403 236.787 116.859C236.787 116.379 236.435 116.011 235.795 115.867L234.483 115.579C233.283 115.323 232.563 114.507 232.563 113.419C232.563 112.107 233.795 110.987 235.299 110.987C237.411 110.987 238.067 112.363 238.227 113.051L236.899 113.547C236.835 113.147 236.515 112.267 235.299 112.267C234.531 112.267 234.019 112.763 234.019 113.291C234.019 113.755 234.307 114.091 234.899 114.219L236.147 114.491C237.539 114.795 238.275 115.643 238.275 116.779C238.275 117.867 237.363 119.163 235.459 119.163C233.347 119.163 232.451 117.803 232.323 116.923Z" fill="#1D1D1F"/>
<path d="M34.848 141.923H33.216L27.088 132.675V141.923H25.52V130.579H27.616L33.28 139.283V130.579H34.848V141.923ZM38.3421 137.283H42.5501C42.5181 136.179 41.7981 135.315 40.4381 135.315C39.1741 135.315 38.4061 136.291 38.3421 137.283ZM42.7741 139.283L44.0701 139.731C43.6381 141.091 42.4061 142.163 40.6141 142.163C38.5501 142.163 36.7421 140.659 36.7421 138.051C36.7421 135.635 38.4861 133.987 40.4221 133.987C42.7901 133.987 44.1181 135.619 44.1181 138.019C44.1181 138.211 44.1021 138.403 44.0861 138.499H38.2941C38.3261 139.875 39.3181 140.835 40.6141 140.835C41.8621 140.835 42.4861 140.147 42.7741 139.283ZM47.3271 141.923H45.8391V134.227H47.2791V135.251C47.7591 134.403 48.7191 134.003 49.6151 134.003C50.5751 134.003 51.5031 134.467 51.9191 135.459C52.5271 134.355 53.5191 134.003 54.4951 134.003C55.8391 134.003 57.1511 134.915 57.1511 136.931V141.923H55.6631V137.091C55.6631 136.083 55.1671 135.331 54.0311 135.331C52.9751 135.331 52.2551 136.163 52.2551 137.267V141.923H50.7511V137.091C50.7511 136.099 50.2711 135.331 49.1191 135.331C48.0471 135.331 47.3271 136.131 47.3271 137.283V141.923ZM62.7544 140.819C64.0344 140.819 65.1544 139.859 65.1544 138.067C65.1544 136.291 64.0344 135.331 62.7544 135.331C61.4744 135.331 60.3544 136.291 60.3544 138.067C60.3544 139.859 61.4744 140.819 62.7544 140.819ZM62.7544 133.987C65.0584 133.987 66.6904 135.731 66.6904 138.067C66.6904 140.419 65.0584 142.163 62.7544 142.163C60.4504 142.163 58.8184 140.419 58.8184 138.067C58.8184 135.731 60.4504 133.987 62.7544 133.987ZM73.4009 137.283H77.6089C77.5769 136.179 76.8569 135.315 75.4969 135.315C74.2329 135.315 73.4649 136.291 73.4009 137.283ZM77.8329 139.283L79.1289 139.731C78.6969 141.091 77.4649 142.163 75.6729 142.163C73.6089 142.163 71.8009 140.659 71.8009 138.051C71.8009 135.635 73.5449 133.987 75.4809 133.987C77.8489 133.987 79.1769 135.619 79.1769 138.019C79.1769 138.211 79.1609 138.403 79.1449 138.499H73.3529C73.3849 139.875 74.3769 140.835 75.6729 140.835C76.9209 140.835 77.5449 140.147 77.8329 139.283ZM82.4019 137.475V141.923H80.8979V134.227H82.3699V135.331C82.9299 134.371 83.8419 134.003 84.7379 134.003C86.5779 134.003 87.4899 135.331 87.4899 137.043V141.923H85.9859V137.299C85.9859 136.227 85.5379 135.363 84.1939 135.363C83.0099 135.363 82.4019 136.307 82.4019 137.475ZM91.1584 141.923H89.6704V134.227H91.1584V141.923ZM89.3344 131.315C89.3344 130.707 89.8144 130.227 90.4064 130.227C91.0144 130.227 91.4944 130.707 91.4944 131.315C91.4944 131.907 91.0144 132.387 90.4064 132.387C89.8144 132.387 89.3344 131.907 89.3344 131.315ZM94.9153 141.923H93.4273V134.227H94.8673V135.251C95.3473 134.403 96.3073 134.003 97.2033 134.003C98.1633 134.003 99.0913 134.467 99.5073 135.459C100.115 134.355 101.107 134.003 102.083 134.003C103.427 134.003 104.739 134.915 104.739 136.931V141.923H103.251V137.091C103.251 136.083 102.755 135.331 101.619 135.331C100.563 135.331 99.8433 136.163 99.8433 137.267V141.923H98.3393V137.091C98.3393 136.099 97.8593 135.331 96.7073 135.331C95.6353 135.331 94.9153 136.131 94.9153 137.283V141.923ZM112.273 141.923H110.785V134.227H112.273V141.923ZM110.449 131.315C110.449 130.707 110.929 130.227 111.521 130.227C112.129 130.227 112.609 130.707 112.609 131.315C112.609 131.907 112.129 132.387 111.521 132.387C110.929 132.387 110.449 131.907 110.449 131.315ZM116.03 144.963H114.542V134.227H115.998V135.427C116.414 134.659 117.326 134.051 118.574 134.051C120.878 134.051 122.11 135.827 122.11 138.067C122.11 140.355 120.782 142.131 118.526 142.131C117.342 142.131 116.446 141.571 116.03 140.883V144.963ZM120.574 138.067C120.574 136.531 119.71 135.379 118.302 135.379C116.926 135.379 116.014 136.531 116.014 138.067C116.014 139.651 116.926 140.787 118.302 140.787C119.694 140.787 120.574 139.651 120.574 138.067ZM123.269 139.923L124.629 139.443C124.725 140.243 125.333 140.883 126.421 140.883C127.269 140.883 127.733 140.403 127.733 139.859C127.733 139.379 127.381 139.011 126.741 138.867L125.429 138.579C124.229 138.323 123.509 137.507 123.509 136.419C123.509 135.107 124.741 133.987 126.245 133.987C128.357 133.987 129.013 135.363 129.173 136.051L127.845 136.547C127.781 136.147 127.461 135.267 126.245 135.267C125.477 135.267 124.965 135.763 124.965 136.291C124.965 136.755 125.253 137.091 125.845 137.219L127.093 137.491C128.485 137.795 129.221 138.643 129.221 139.779C129.221 140.867 128.309 142.163 126.405 142.163C124.293 142.163 123.397 140.803 123.269 139.923ZM130.481 139.859C130.481 138.483 131.489 137.715 132.817 137.523L134.897 137.219C135.361 137.155 135.489 136.915 135.489 136.643C135.489 135.891 134.993 135.267 133.825 135.267C132.769 135.267 132.177 135.923 132.081 136.819L130.641 136.483C130.801 135.011 132.129 133.987 133.793 133.987C136.097 133.987 136.993 135.299 136.993 136.803V140.659C136.993 141.331 137.057 141.731 137.089 141.923H135.617C135.585 141.731 135.537 141.443 135.537 140.883C135.201 141.427 134.433 142.163 133.057 142.163C131.489 142.163 130.481 141.075 130.481 139.859ZM133.265 140.899C134.497 140.899 135.489 140.307 135.489 138.627V138.275L133.137 138.627C132.497 138.723 132.017 139.091 132.017 139.779C132.017 140.355 132.497 140.899 133.265 140.899ZM140.691 141.923H139.203V134.227H140.643V135.251C141.123 134.403 142.083 134.003 142.979 134.003C143.939 134.003 144.867 134.467 145.283 135.459C145.891 134.355 146.883 134.003 147.859 134.003C149.203 134.003 150.515 134.915 150.515 136.931V141.923H149.027V137.091C149.027 136.083 148.531 135.331 147.395 135.331C146.339 135.331 145.619 136.163 145.619 137.267V141.923H144.115V137.091C144.115 136.099 143.635 135.331 142.483 135.331C141.411 135.331 140.691 136.131 140.691 137.283V141.923Z" fill="#292929"/>
<path d="M34.592 218.571H32.096V214.859C27.616 214.347 25.408 211.211 25.088 208.203L27.808 207.403C28.032 209.611 29.44 211.691 32.128 212.171V204.779L31.2 204.555C28 203.883 25.92 201.803 25.92 198.667C25.92 195.307 28.608 192.747 32.096 192.299V188.555H34.592V192.331C38.272 192.811 40.064 195.371 40.576 197.803L37.888 198.667C37.6 197.195 36.608 195.627 34.56 195.115V202.283L35.136 202.411C38.784 203.179 40.896 205.419 40.896 208.523C40.896 211.595 38.56 214.379 34.592 214.859V218.571ZM37.888 208.747C37.888 206.955 36.672 205.803 34.56 205.323V212.171C36.704 211.787 37.888 210.411 37.888 208.747ZM28.864 198.443C28.864 200.075 29.856 201.291 31.808 201.707L32.128 201.771V195.051C30.208 195.403 28.864 196.747 28.864 198.443ZM51.013 214.923H47.941V198.347H42.917V196.139C45.797 196.075 47.781 194.475 48.261 192.235H51.013V214.923ZM55.055 203.595C55.055 198.219 56.879 191.819 63.823 191.819C70.767 191.819 72.591 198.219 72.591 203.595C72.591 208.907 70.831 215.339 63.823 215.339C56.847 215.339 55.055 208.875 55.055 203.595ZM69.487 203.595C69.487 199.051 68.271 194.635 63.823 194.635C59.343 194.635 58.191 199.019 58.191 203.595C58.191 208.139 59.375 212.555 63.823 212.555C68.271 212.555 69.487 208.139 69.487 203.595ZM75.9525 203.595C75.9525 198.219 77.7765 191.819 84.7205 191.819C91.6645 191.819 93.4885 198.219 93.4885 203.595C93.4885 208.907 91.7285 215.339 84.7205 215.339C77.7445 215.339 75.9525 208.875 75.9525 203.595ZM90.3845 203.595C90.3845 199.051 89.1685 194.635 84.7205 194.635C80.2405 194.635 79.0885 199.019 79.0885 203.595C79.0885 208.139 80.2725 212.555 84.7205 212.555C89.1685 212.555 90.3845 208.139 90.3845 203.595ZM96.1952 212.875C96.1952 211.627 97.1552 210.635 98.4032 210.635C99.6512 210.635 100.643 211.627 100.643 212.875C100.643 214.123 99.6512 215.083 98.4032 215.083C97.1552 215.083 96.1952 214.123 96.1952 212.875ZM103.31 203.595C103.31 198.219 105.134 191.819 112.078 191.819C119.022 191.819 120.846 198.219 120.846 203.595C120.846 208.907 119.086 215.339 112.078 215.339C105.102 215.339 103.31 208.875 103.31 203.595ZM117.742 203.595C117.742 199.051 116.526 194.635 112.078 194.635C107.598 194.635 106.446 199.019 106.446 203.595C106.446 208.139 107.63 212.555 112.078 212.555C116.526 212.555 117.742 208.139 117.742 203.595ZM124.208 203.595C124.208 198.219 126.032 191.819 132.976 191.819C139.92 191.819 141.744 198.219 141.744 203.595C141.744 208.907 139.984 215.339 132.976 215.339C126 215.339 124.208 208.875 124.208 203.595ZM138.64 203.595C138.64 199.051 137.424 194.635 132.976 194.635C128.496 194.635 127.344 199.019 127.344 203.595C127.344 208.139 128.528 212.555 132.976 212.555C137.424 212.555 138.64 208.139 138.64 203.595Z" fill="#1D1D1F"/>
<rect x="24.5" y="291.423" width="385" height="62" rx="19.5" stroke="#212121"/>
<path d="M178.916 328.163C175.988 328.163 173.284 326.035 173.284 322.243C173.284 318.451 176.1 316.339 178.916 316.339C181.508 316.339 183.332 317.747 183.908 319.939L182.452 320.451C182.02 318.739 180.772 317.779 178.916 317.779C176.852 317.779 174.884 319.283 174.884 322.243C174.884 325.203 176.852 326.723 178.916 326.723C180.852 326.723 182.068 325.555 182.532 324.003L183.924 324.515C183.316 326.643 181.524 328.163 178.916 328.163ZM187.024 323.395V327.923H185.52V316.339H187.024V321.123C187.584 320.307 188.48 320.003 189.36 320.003C191.2 320.003 192.112 321.331 192.112 323.043V327.923H190.608V323.299C190.608 322.227 190.16 321.363 188.816 321.363C187.664 321.363 187.056 322.259 187.024 323.395ZM197.716 326.819C198.996 326.819 200.116 325.859 200.116 324.067C200.116 322.291 198.996 321.331 197.716 321.331C196.436 321.331 195.316 322.291 195.316 324.067C195.316 325.859 196.436 326.819 197.716 326.819ZM197.716 319.987C200.02 319.987 201.652 321.731 201.652 324.067C201.652 326.419 200.02 328.163 197.716 328.163C195.412 328.163 193.78 326.419 193.78 324.067C193.78 321.731 195.412 319.987 197.716 319.987ZM206.832 326.819C208.112 326.819 209.232 325.859 209.232 324.067C209.232 322.291 208.112 321.331 206.832 321.331C205.552 321.331 204.432 322.291 204.432 324.067C204.432 325.859 205.552 326.819 206.832 326.819ZM206.832 319.987C209.136 319.987 210.768 321.731 210.768 324.067C210.768 326.419 209.136 328.163 206.832 328.163C204.528 328.163 202.896 326.419 202.896 324.067C202.896 321.731 204.528 319.987 206.832 319.987ZM211.917 325.923L213.277 325.443C213.373 326.243 213.981 326.883 215.069 326.883C215.917 326.883 216.381 326.403 216.381 325.859C216.381 325.379 216.029 325.011 215.389 324.867L214.077 324.579C212.877 324.323 212.157 323.507 212.157 322.419C212.157 321.107 213.389 319.987 214.893 319.987C217.005 319.987 217.661 321.363 217.821 322.051L216.493 322.547C216.429 322.147 216.109 321.267 214.893 321.267C214.125 321.267 213.613 321.763 213.613 322.291C213.613 322.755 213.901 323.091 214.493 323.219L215.741 323.491C217.133 323.795 217.869 324.643 217.869 325.779C217.869 326.867 216.957 328.163 215.053 328.163C212.941 328.163 212.045 326.803 211.917 325.923ZM220.729 323.283H224.937C224.905 322.179 224.185 321.315 222.825 321.315C221.561 321.315 220.793 322.291 220.729 323.283ZM225.161 325.283L226.457 325.731C226.025 327.091 224.793 328.163 223.001 328.163C220.937 328.163 219.129 326.659 219.129 324.051C219.129 321.635 220.873 319.987 222.809 319.987C225.177 319.987 226.505 321.619 226.505 324.019C226.505 324.211 226.489 324.403 226.473 324.499H220.681C220.713 325.875 221.705 326.835 223.001 326.835C224.249 326.835 224.873 326.147 225.161 325.283ZM233.58 330.963H232.092V320.227H233.548V321.427C233.964 320.659 234.876 320.051 236.124 320.051C238.428 320.051 239.66 321.827 239.66 324.067C239.66 326.355 238.332 328.131 236.076 328.131C234.892 328.131 233.996 327.571 233.58 326.883V330.963ZM238.124 324.067C238.124 322.531 237.26 321.379 235.852 321.379C234.476 321.379 233.564 322.531 233.564 324.067C233.564 325.651 234.476 326.787 235.852 326.787C237.244 326.787 238.124 325.651 238.124 324.067ZM242.931 327.923H241.427V316.339H242.931V327.923ZM244.688 325.859C244.688 324.483 245.696 323.715 247.024 323.523L249.104 323.219C249.568 323.155 249.696 322.915 249.696 322.643C249.696 321.891 249.2 321.267 248.032 321.267C246.976 321.267 246.384 321.923 246.288 322.819L244.848 322.483C245.008 321.011 246.336 319.987 248 319.987C250.304 319.987 251.2 321.299 251.2 322.803V326.659C251.2 327.331 251.264 327.731 251.296 327.923H249.824C249.792 327.731 249.744 327.443 249.744 326.883C249.408 327.427 248.64 328.163 247.264 328.163C245.696 328.163 244.688 327.075 244.688 325.859ZM247.472 326.899C248.704 326.899 249.696 326.307 249.696 324.627V324.275L247.344 324.627C246.704 324.723 246.224 325.091 246.224 325.779C246.224 326.355 246.704 326.899 247.472 326.899ZM254.914 323.475V327.923H253.41V320.227H254.882V321.331C255.442 320.371 256.354 320.003 257.25 320.003C259.09 320.003 260.002 321.331 260.002 323.043V327.923H258.498V323.299C258.498 322.227 258.05 321.363 256.706 321.363C255.522 321.363 254.914 322.307 254.914 323.475Z" fill="#212121"/>
</svg>
