<svg width="972" height="785" viewBox="0 0 972 785" fill="none" xmlns="http://www.w3.org/2000/svg">
<rect width="972" height="785" rx="20" fill="#1D1D1F"/>
<mask id="path-2-inside-1_151_2065" fill="white">
<path d="M40 38H932V109H40V38Z"/>
</mask>
<path d="M932 108H40V110H932V108Z" fill="#292929" mask="url(#path-2-inside-1_151_2065)"/>
<path d="M45.328 53.736H47.944C49.6 53.736 50.608 52.776 50.608 51.312C50.608 49.8 49.6 48.864 47.944 48.864H45.328V53.736ZM48.352 56.592H45.304V63H41.992V45.984H48.352C51.712 45.984 53.944 48.216 53.944 51.288C53.944 54.384 51.712 56.592 48.352 56.592ZM63.0811 51.144V54.36C62.7211 54.288 62.4091 54.264 62.1211 54.264C60.4891 54.264 59.0731 55.056 59.0731 57.6V63H55.8811V51.192H58.9771V52.944C59.6971 51.384 61.3291 51.096 62.3371 51.096C62.6011 51.096 62.8411 51.12 63.0811 51.144ZM70.3521 60.456C71.9121 60.456 73.3521 59.328 73.3521 57.096C73.3521 54.864 71.9121 53.736 70.3521 53.736C68.7921 53.736 67.3521 54.864 67.3521 57.096C67.3521 59.304 68.7921 60.456 70.3521 60.456ZM70.3521 50.832C73.8801 50.832 76.5441 53.448 76.5441 57.096C76.5441 60.72 73.8801 63.36 70.3521 63.36C66.8241 63.36 64.1601 60.72 64.1601 57.096C64.1601 53.448 66.8241 50.832 70.3521 50.832ZM84.6119 48.264C83.8919 48.264 82.9559 48.576 82.9559 49.896V51.192H85.6199V53.928H82.9559V63H79.7399V53.928H77.7719V51.192H79.7399V49.848C79.7399 47.184 81.4199 45.456 84.0359 45.456C84.7079 45.456 85.3559 45.576 85.6199 45.696V48.384C85.4519 48.336 85.1399 48.264 84.6119 48.264ZM90.7343 63H87.5423V51.192H90.7343V63ZM87.1583 47.328C87.1583 46.224 88.0463 45.336 89.1263 45.336C90.2303 45.336 91.0943 46.224 91.0943 47.328C91.0943 48.384 90.2303 49.272 89.1263 49.272C88.0463 49.272 87.1583 48.384 87.1583 47.328ZM97.0146 63H93.8226V45.624H97.0146V63ZM102.599 55.752H107.879C107.831 54.576 107.063 53.424 105.239 53.424C103.583 53.424 102.671 54.672 102.599 55.752ZM108.191 58.824L110.855 59.616C110.255 61.656 108.383 63.36 105.479 63.36C102.239 63.36 99.3829 61.032 99.3829 57.048C99.3829 53.28 102.167 50.832 105.191 50.832C108.839 50.832 111.023 53.16 111.023 56.952C111.023 57.408 110.975 57.888 110.975 57.936H102.527C102.599 59.496 103.919 60.624 105.503 60.624C106.991 60.624 107.807 59.88 108.191 58.824Z" fill="white"/>
<path d="M50.17 91H48.64L42.895 82.33V91H41.425V80.365H43.39L48.7 88.525V80.365H50.17V91ZM53.4354 86.65H57.3804C57.3504 85.615 56.6754 84.805 55.4004 84.805C54.2154 84.805 53.4954 85.72 53.4354 86.65ZM57.5904 88.525L58.8054 88.945C58.4004 90.22 57.2454 91.225 55.5654 91.225C53.6304 91.225 51.9354 89.815 51.9354 87.37C51.9354 85.105 53.5704 83.56 55.3854 83.56C57.6054 83.56 58.8504 85.09 58.8504 87.34C58.8504 87.52 58.8354 87.7 58.8204 87.79H53.3904C53.4204 89.08 54.3504 89.98 55.5654 89.98C56.7354 89.98 57.3204 89.335 57.5904 88.525ZM61.8486 91H60.4536V83.785H61.8036V84.745C62.2536 83.95 63.1536 83.575 63.9936 83.575C64.8936 83.575 65.7636 84.01 66.1536 84.94C66.7236 83.905 67.6536 83.575 68.5686 83.575C69.8286 83.575 71.0586 84.43 71.0586 86.32V91H69.6636V86.47C69.6636 85.525 69.1986 84.82 68.1336 84.82C67.1436 84.82 66.4686 85.6 66.4686 86.635V91H65.0586V86.47C65.0586 85.54 64.6086 84.82 63.5286 84.82C62.5236 84.82 61.8486 85.57 61.8486 86.65V91ZM76.3013 89.965C77.5013 89.965 78.5513 89.065 78.5513 87.385C78.5513 85.72 77.5013 84.82 76.3013 84.82C75.1013 84.82 74.0513 85.72 74.0513 87.385C74.0513 89.065 75.1013 89.965 76.3013 89.965ZM76.3013 83.56C78.4613 83.56 79.9913 85.195 79.9913 87.385C79.9913 89.59 78.4613 91.225 76.3013 91.225C74.1413 91.225 72.6113 89.59 72.6113 87.385C72.6113 85.195 74.1413 83.56 76.3013 83.56ZM86.2618 86.65H90.2068C90.1768 85.615 89.5018 84.805 88.2268 84.805C87.0418 84.805 86.3218 85.72 86.2618 86.65ZM90.4168 88.525L91.6318 88.945C91.2268 90.22 90.0718 91.225 88.3918 91.225C86.4568 91.225 84.7618 89.815 84.7618 87.37C84.7618 85.105 86.3968 83.56 88.2118 83.56C90.4318 83.56 91.6768 85.09 91.6768 87.34C91.6768 87.52 91.6618 87.7 91.6468 87.79H86.2168C86.2468 89.08 87.1768 89.98 88.3918 89.98C89.5618 89.98 90.1468 89.335 90.4168 88.525ZM94.6899 86.83V91H93.2799V83.785H94.6599V84.82C95.1849 83.92 96.0399 83.575 96.8799 83.575C98.6049 83.575 99.4599 84.82 99.4599 86.425V91H98.0499V86.665C98.0499 85.66 97.6299 84.85 96.3699 84.85C95.2599 84.85 94.6899 85.735 94.6899 86.83ZM102.889 91H101.494V83.785H102.889V91ZM101.179 81.055C101.179 80.485 101.629 80.035 102.184 80.035C102.754 80.035 103.204 80.485 103.204 81.055C103.204 81.61 102.754 82.06 102.184 82.06C101.629 82.06 101.179 81.61 101.179 81.055ZM106.401 91H105.006V83.785H106.356V84.745C106.806 83.95 107.706 83.575 108.546 83.575C109.446 83.575 110.316 84.01 110.706 84.94C111.276 83.905 112.206 83.575 113.121 83.575C114.381 83.575 115.611 84.43 115.611 86.32V91H114.216V86.47C114.216 85.525 113.751 84.82 112.686 84.82C111.696 84.82 111.021 85.6 111.021 86.635V91H109.611V86.47C109.611 85.54 109.161 84.82 108.081 84.82C107.076 84.82 106.401 85.57 106.401 86.65V91ZM122.653 91H121.258V83.785H122.653V91ZM120.943 81.055C120.943 80.485 121.393 80.035 121.948 80.035C122.518 80.035 122.968 80.485 122.968 81.055C122.968 81.61 122.518 82.06 121.948 82.06C121.393 82.06 120.943 81.61 120.943 81.055ZM126.164 93.85H124.769V83.785H126.134V84.91C126.524 84.19 127.379 83.62 128.549 83.62C130.709 83.62 131.864 85.285 131.864 87.385C131.864 89.53 130.619 91.195 128.504 91.195C127.394 91.195 126.554 90.67 126.164 90.025V93.85ZM130.424 87.385C130.424 85.945 129.614 84.865 128.294 84.865C127.004 84.865 126.149 85.945 126.149 87.385C126.149 88.87 127.004 89.935 128.294 89.935C129.599 89.935 130.424 88.87 130.424 87.385ZM132.941 89.125L134.216 88.675C134.306 89.425 134.876 90.025 135.896 90.025C136.691 90.025 137.126 89.575 137.126 89.065C137.126 88.615 136.796 88.27 136.196 88.135L134.966 87.865C133.841 87.625 133.166 86.86 133.166 85.84C133.166 84.61 134.321 83.56 135.731 83.56C137.711 83.56 138.326 84.85 138.476 85.495L137.231 85.96C137.171 85.585 136.871 84.76 135.731 84.76C135.011 84.76 134.531 85.225 134.531 85.72C134.531 86.155 134.801 86.47 135.356 86.59L136.526 86.845C137.831 87.13 138.521 87.925 138.521 88.99C138.521 90.01 137.666 91.225 135.881 91.225C133.901 91.225 133.061 89.95 132.941 89.125ZM139.692 89.065C139.692 87.775 140.637 87.055 141.882 86.875L143.832 86.59C144.267 86.53 144.387 86.305 144.387 86.05C144.387 85.345 143.922 84.76 142.827 84.76C141.837 84.76 141.282 85.375 141.192 86.215L139.842 85.9C139.992 84.52 141.237 83.56 142.797 83.56C144.957 83.56 145.797 84.79 145.797 86.2V89.815C145.797 90.445 145.857 90.82 145.887 91H144.507C144.477 90.82 144.432 90.55 144.432 90.025C144.117 90.535 143.397 91.225 142.107 91.225C140.637 91.225 139.692 90.205 139.692 89.065ZM142.302 90.04C143.457 90.04 144.387 89.485 144.387 87.91V87.58L142.182 87.91C141.582 88 141.132 88.345 141.132 88.99C141.132 89.53 141.582 90.04 142.302 90.04ZM149.253 91H147.858V83.785H149.208V84.745C149.658 83.95 150.558 83.575 151.398 83.575C152.298 83.575 153.168 84.01 153.558 84.94C154.128 83.905 155.058 83.575 155.973 83.575C157.233 83.575 158.463 84.43 158.463 86.32V91H157.068V86.47C157.068 85.525 156.603 84.82 155.538 84.82C154.548 84.82 153.873 85.6 153.873 86.635V91H152.463V86.47C152.463 85.54 152.013 84.82 150.933 84.82C149.928 84.82 149.253 85.57 149.253 86.65V91ZM170.149 83.785L167.269 91H165.844L162.919 83.785H164.509L166.564 89.35L168.634 83.785H170.149ZM174.45 89.965C175.65 89.965 176.7 89.065 176.7 87.385C176.7 85.72 175.65 84.82 174.45 84.82C173.25 84.82 172.2 85.72 172.2 87.385C172.2 89.065 173.25 89.965 174.45 89.965ZM174.45 83.56C176.61 83.56 178.14 85.195 178.14 87.385C178.14 89.59 176.61 91.225 174.45 91.225C172.29 91.225 170.76 89.59 170.76 87.385C170.76 85.195 172.29 83.56 174.45 83.56ZM181.186 91H179.776V80.14H181.186V91ZM188.058 90.13C187.668 90.88 186.768 91.225 185.928 91.225C184.248 91.225 183.228 89.965 183.228 88.33V83.785H184.638V88.12C184.638 89.11 185.088 89.98 186.273 89.98C187.413 89.98 187.983 89.23 187.983 88.135V83.785H189.393V89.665C189.393 90.235 189.438 90.745 189.468 91H188.118C188.088 90.835 188.058 90.43 188.058 90.13ZM192.912 93.85H191.517V83.785H192.882V84.91C193.272 84.19 194.127 83.62 195.297 83.62C197.457 83.62 198.612 85.285 198.612 87.385C198.612 89.53 197.367 91.195 195.252 91.195C194.142 91.195 193.302 90.67 192.912 90.025V93.85ZM197.172 87.385C197.172 85.945 196.362 84.865 195.042 84.865C193.752 84.865 192.897 85.945 192.897 87.385C192.897 88.87 193.752 89.935 195.042 89.935C196.347 89.935 197.172 88.87 197.172 87.385ZM202.106 81.505V83.785H203.666V85.06H202.106V88.81C202.106 89.47 202.376 89.8 203.111 89.8C203.291 89.8 203.546 89.77 203.666 89.74V90.94C203.546 90.985 203.186 91.075 202.706 91.075C201.476 91.075 200.696 90.325 200.696 89.02V85.06H199.316V83.785H199.706C200.486 83.785 200.816 83.305 200.816 82.675V81.505H202.106ZM204.696 89.065C204.696 87.775 205.641 87.055 206.886 86.875L208.836 86.59C209.271 86.53 209.391 86.305 209.391 86.05C209.391 85.345 208.926 84.76 207.831 84.76C206.841 84.76 206.286 85.375 206.196 86.215L204.846 85.9C204.996 84.52 206.241 83.56 207.801 83.56C209.961 83.56 210.801 84.79 210.801 86.2V89.815C210.801 90.445 210.861 90.82 210.891 91H209.511C209.481 90.82 209.436 90.55 209.436 90.025C209.121 90.535 208.401 91.225 207.111 91.225C205.641 91.225 204.696 90.205 204.696 89.065ZM207.306 90.04C208.461 90.04 209.391 89.485 209.391 87.91V87.58L207.186 87.91C206.586 88 206.136 88.345 206.136 88.99C206.136 89.53 206.586 90.04 207.306 90.04ZM214.769 81.505V83.785H216.329V85.06H214.769V88.81C214.769 89.47 215.039 89.8 215.774 89.8C215.954 89.8 216.209 89.77 216.329 89.74V90.94C216.209 90.985 215.849 91.075 215.369 91.075C214.139 91.075 213.359 90.325 213.359 89.02V85.06H211.979V83.785H212.369C213.149 83.785 213.479 83.305 213.479 82.675V81.505H214.769ZM218.801 86.65H222.746C222.716 85.615 222.041 84.805 220.766 84.805C219.581 84.805 218.861 85.72 218.801 86.65ZM222.956 88.525L224.171 88.945C223.766 90.22 222.611 91.225 220.931 91.225C218.996 91.225 217.301 89.815 217.301 87.37C217.301 85.105 218.936 83.56 220.751 83.56C222.971 83.56 224.216 85.09 224.216 87.34C224.216 87.52 224.201 87.7 224.186 87.79H218.756C218.786 89.08 219.716 89.98 220.931 89.98C222.101 89.98 222.686 89.335 222.956 88.525ZM227.214 91H225.819V83.785H227.169V84.745C227.619 83.95 228.519 83.575 229.359 83.575C230.259 83.575 231.129 84.01 231.519 84.94C232.089 83.905 233.019 83.575 233.934 83.575C235.194 83.575 236.424 84.43 236.424 86.32V91H235.029V86.47C235.029 85.525 234.564 84.82 233.499 84.82C232.509 84.82 231.834 85.6 231.834 86.635V91H230.424V86.47C230.424 85.54 229.974 84.82 228.894 84.82C227.889 84.82 227.214 85.57 227.214 86.65V91Z" fill="white" fill-opacity="0.5"/>
<mask id="path-6-inside-2_151_2065" fill="white">
<path d="M40 147H932V269H40V147Z"/>
</mask>
<path d="M932 268H40V270H932V268Z" fill="#292929" mask="url(#path-6-inside-2_151_2065)"/>
<rect x="40" y="147" width="106" height="106" rx="53" fill="#A2845E"/>
<path d="M107.167 190.167C107.167 186.254 105.58 182.712 103.019 180.151C100.455 177.587 96.9128 176 93 176C89.0872 176 85.5455 177.587 82.9813 180.151C80.42 182.712 78.8333 186.254 78.8333 190.167C78.8333 194.08 80.42 197.621 82.9813 200.183C85.5455 202.747 89.0872 204.333 93 204.333C96.9128 204.333 100.455 202.747 103.019 200.183C104.336 198.869 105.381 197.308 106.093 195.589C106.805 193.87 107.17 192.027 107.167 190.167ZM76 218.5C76 221.333 82.375 224.167 93 224.167C102.968 224.167 110 221.333 110 218.5C110 212.833 103.33 207.167 93 207.167C82.375 207.167 76 212.833 76 218.5Z" fill="white"/>
<path d="M179.42 206.532C177.44 206.532 176.252 205.524 175.928 204.336C175.028 205.812 173.372 206.604 171.752 206.604C168.62 206.604 166.28 204.048 166.28 200.376C166.28 195.66 169.556 192.276 173.372 192.276C174.74 192.276 176.324 192.924 176.864 194.328L177.152 192.744H180.572L178.7 201.564C178.664 201.744 178.628 201.96 178.628 202.212C178.628 202.824 179.024 203.4 179.78 203.4C181.544 203.4 183.308 200.808 183.308 197.316C183.308 192.24 179.42 188.712 173.804 188.712C167.792 188.712 163.256 193.068 163.256 199.548C163.256 205.524 167.288 210.06 174.092 210.06C176.36 210.06 178.7 209.448 180.716 207.936L182.444 210.384C180.5 212.148 176.936 213.264 174.092 213.264C165.668 213.264 159.62 207.792 159.62 199.62C159.62 191.232 166.028 185.436 173.768 185.436C181.184 185.436 186.728 190.512 186.728 197.28C186.728 202.752 183.128 206.46 179.42 206.532ZM176.072 198.36C176.072 196.632 175.208 195.516 173.624 195.516C171.464 195.516 169.988 197.64 169.988 200.052C169.988 201.96 170.708 203.364 172.544 203.364C174.524 203.364 176 201.24 176.072 198.36ZM190.201 212.58V193.788H194.989V213.048C194.989 216.468 192.865 218.88 189.445 218.88C188.041 218.88 186.997 218.592 186.745 218.484V214.488C187.069 214.56 187.537 214.668 188.221 214.668C189.661 214.668 190.201 213.876 190.201 212.58ZM189.625 187.956C189.625 186.3 190.957 184.968 192.577 184.968C194.233 184.968 195.529 186.3 195.529 187.956C195.529 189.576 194.233 190.872 192.577 190.872C190.957 190.872 189.625 189.576 189.625 187.956ZM207.912 207.684C210.252 207.684 212.412 205.992 212.412 202.644C212.412 199.296 210.252 197.604 207.912 197.604C205.572 197.604 203.412 199.296 203.412 202.644C203.412 205.956 205.572 207.684 207.912 207.684ZM207.912 193.248C213.204 193.248 217.2 197.172 217.2 202.644C217.2 208.08 213.204 212.04 207.912 212.04C202.62 212.04 198.624 208.08 198.624 202.644C198.624 197.172 202.62 193.248 207.912 193.248ZM225.632 201.096V211.5H220.844V185.436H225.632V195.264C226.784 193.896 228.728 193.32 230.42 193.32C234.92 193.32 237.008 196.452 237.008 200.34V211.5H232.22V201.168C232.22 199.188 231.248 197.64 228.944 197.64C226.928 197.64 225.74 199.152 225.632 201.096ZM246.349 201.312V211.5H241.561V193.788H246.205V195.984C247.285 194.148 249.409 193.32 251.317 193.32C255.709 193.32 257.725 196.452 257.725 200.34V211.5H252.937V201.168C252.937 199.188 251.965 197.64 249.661 197.64C247.573 197.64 246.349 199.26 246.349 201.312ZM279.415 185.436V208.296C279.415 209.484 279.487 210.78 279.559 211.5H274.987C274.915 211.14 274.807 210.276 274.807 209.448C274.015 210.852 272.215 211.932 269.839 211.932C264.799 211.932 261.199 207.972 261.199 202.608C261.199 197.424 264.691 193.356 269.695 193.356C272.755 193.356 274.195 194.616 274.699 195.552V185.436H279.415ZM266.023 202.608C266.023 205.776 267.895 207.648 270.415 207.648C272.863 207.648 274.771 205.776 274.771 202.572C274.771 199.404 272.863 197.64 270.415 197.64C267.967 197.64 266.023 199.44 266.023 202.608ZM292.365 207.684C294.705 207.684 296.865 205.992 296.865 202.644C296.865 199.296 294.705 197.604 292.365 197.604C290.025 197.604 287.865 199.296 287.865 202.644C287.865 205.956 290.025 207.684 292.365 207.684ZM292.365 193.248C297.657 193.248 301.653 197.172 301.653 202.644C301.653 208.08 297.657 212.04 292.365 212.04C287.073 212.04 283.077 208.08 283.077 202.644C283.077 197.172 287.073 193.248 292.365 193.248ZM309.041 200.628H316.961C316.889 198.864 315.737 197.136 313.001 197.136C310.517 197.136 309.149 199.008 309.041 200.628ZM317.429 205.236L321.425 206.424C320.525 209.484 317.717 212.04 313.361 212.04C308.501 212.04 304.217 208.548 304.217 202.572C304.217 196.92 308.393 193.248 312.929 193.248C318.401 193.248 321.677 196.74 321.677 202.428C321.677 203.112 321.605 203.832 321.605 203.904H308.933C309.041 206.244 311.021 207.936 313.397 207.936C315.629 207.936 316.853 206.82 317.429 205.236Z" fill="white"/>
<rect x="824.5" y="182.5" width="108" height="35" rx="17.5" stroke="#292929"/>
<path d="M851.378 205H845.246V195.074H851.378V196.642H846.926V199.274H850.958V200.8H846.926V203.432H851.378V205ZM854.017 201.57C854.017 202.872 854.745 203.74 855.851 203.74C856.915 203.74 857.657 202.858 857.657 201.556C857.657 200.254 856.929 199.442 855.865 199.442C854.801 199.442 854.017 200.268 854.017 201.57ZM859.225 194.864V203.754C859.225 204.37 859.281 204.888 859.295 205H857.741C857.713 204.846 857.671 204.398 857.671 204.118C857.349 204.692 856.635 205.168 855.669 205.168C853.709 205.168 852.393 203.628 852.393 201.57C852.393 199.61 853.723 198 855.641 198C856.831 198 857.433 198.546 857.643 198.98V194.864H859.225ZM862.681 205H861.071V198.182H862.681V205ZM860.819 195.788C860.819 195.2 861.295 194.724 861.869 194.724C862.457 194.724 862.933 195.2 862.933 195.788C862.933 196.376 862.457 196.838 861.869 196.838C861.295 196.838 860.819 196.376 860.819 195.788ZM866.671 196.096V198.182H868.085V199.624H866.671V202.788C866.671 203.39 866.937 203.642 867.539 203.642C867.763 203.642 868.029 203.6 868.099 203.586V204.93C868.001 204.972 867.693 205.084 867.105 205.084C865.845 205.084 865.061 204.328 865.061 203.054V199.624H863.801V198.182H864.151C864.879 198.182 865.201 197.72 865.201 197.118V196.096H866.671ZM874.313 207.66H872.703V198.182H874.271V199.106C874.607 198.518 875.391 198.028 876.441 198.028C878.457 198.028 879.591 199.568 879.591 201.584C879.591 203.628 878.345 205.168 876.385 205.168C875.405 205.168 874.663 204.748 874.313 204.23V207.66ZM877.967 201.584C877.967 200.31 877.225 199.47 876.133 199.47C875.069 199.47 874.299 200.31 874.299 201.584C874.299 202.886 875.069 203.726 876.133 203.726C877.211 203.726 877.967 202.886 877.967 201.584ZM885.018 198.14V199.792C884.836 199.764 884.654 199.75 884.486 199.75C883.226 199.75 882.652 200.478 882.652 201.752V205H881.028V198.182H882.61V199.274C882.932 198.532 883.688 198.098 884.584 198.098C884.78 198.098 884.948 198.126 885.018 198.14ZM889.138 203.754C890.146 203.754 891.042 203.012 891.042 201.584C891.042 200.17 890.146 199.442 889.138 199.442C888.144 199.442 887.234 200.17 887.234 201.584C887.234 202.998 888.144 203.754 889.138 203.754ZM889.138 197.972C891.182 197.972 892.68 199.498 892.68 201.584C892.68 203.684 891.182 205.21 889.138 205.21C887.108 205.21 885.61 203.684 885.61 201.584C885.61 199.498 887.108 197.972 889.138 197.972ZM897.193 196.25C896.759 196.25 896.185 196.446 896.185 197.286V198.182H897.767V199.596H896.185V205H894.547V199.596H893.357V198.182H894.547V197.244C894.547 195.718 895.527 194.794 896.927 194.794C897.333 194.794 897.669 194.878 897.781 194.934V196.32C897.683 196.292 897.501 196.25 897.193 196.25ZM900.504 205H898.894V198.182H900.504V205ZM898.642 195.788C898.642 195.2 899.118 194.724 899.692 194.724C900.28 194.724 900.756 195.2 900.756 195.788C900.756 196.376 900.28 196.838 899.692 196.838C899.118 196.838 898.642 196.376 898.642 195.788ZM903.976 205H902.352V194.864H903.976V205ZM907.056 200.842H910.402C910.374 200.044 909.842 199.33 908.722 199.33C907.7 199.33 907.112 200.114 907.056 200.842ZM910.584 202.62L911.956 203.054C911.592 204.244 910.514 205.21 908.876 205.21C907.028 205.21 905.39 203.866 905.39 201.556C905.39 199.4 906.986 197.972 908.708 197.972C910.808 197.972 912.04 199.358 912.04 201.514C912.04 201.78 912.012 202.004 911.998 202.032H907.014C907.056 203.068 907.868 203.81 908.876 203.81C909.856 203.81 910.36 203.292 910.584 202.62Z" fill="white"/>
<rect x="40" y="307" width="537.991" height="140" rx="20" fill="#212121"/>
<rect x="56.5" y="327.5" width="190.991" height="43" rx="11.5" stroke="#292929"/>
<path d="M75.5411 342.01C74.0167 342.01 72.7142 343.097 71.9985 343.846C71.2829 343.097 69.9833 342.01 68.4596 342.01C65.8335 342.01 64 343.841 64 346.461C64 349.348 66.2771 351.215 68.48 353.02C69.52 353.873 70.5964 354.754 71.4218 355.732C71.5607 355.895 71.7644 355.99 71.9782 355.99H72.0204C72.2349 355.99 72.4378 355.895 72.576 355.732C73.4029 354.754 74.4785 353.872 75.5193 353.02C77.7215 351.215 80 349.349 80 346.461C80 343.841 78.1665 342.01 75.5411 342.01Z" fill="white"/>
<path d="M98.56 356H89.9V341.82H91.86V354.16H98.56V356ZM102.153 356H100.293V346.38H102.153V356ZM99.8725 342.74C99.8725 341.98 100.473 341.38 101.213 341.38C101.973 341.38 102.573 341.98 102.573 342.74C102.573 343.48 101.973 344.08 101.213 344.08C100.473 344.08 99.8725 343.48 99.8725 342.74ZM113.65 346.38L109.55 350.44L113.73 356H111.37L108.23 351.76L106.89 353.1V356H105.03V341.52H106.89V350.64L111.05 346.38H113.65ZM116.225 350.2H121.485C121.445 348.82 120.545 347.74 118.845 347.74C117.265 347.74 116.305 348.96 116.225 350.2ZM121.765 352.7L123.385 353.26C122.845 354.96 121.305 356.3 119.065 356.3C116.485 356.3 114.225 354.42 114.225 351.16C114.225 348.14 116.405 346.08 118.825 346.08C121.785 346.08 123.445 348.12 123.445 351.12C123.445 351.36 123.425 351.6 123.405 351.72H116.165C116.205 353.44 117.445 354.64 119.065 354.64C120.625 354.64 121.405 353.78 121.765 352.7ZM124.877 353.5L126.577 352.9C126.697 353.9 127.457 354.7 128.817 354.7C129.877 354.7 130.457 354.1 130.457 353.42C130.457 352.82 130.017 352.36 129.217 352.18L127.577 351.82C126.077 351.5 125.177 350.48 125.177 349.12C125.177 347.48 126.717 346.08 128.597 346.08C131.237 346.08 132.057 347.8 132.257 348.66L130.597 349.28C130.517 348.78 130.117 347.68 128.597 347.68C127.637 347.68 126.997 348.3 126.997 348.96C126.997 349.54 127.357 349.96 128.097 350.12L129.657 350.46C131.397 350.84 132.317 351.9 132.317 353.32C132.317 354.68 131.177 356.3 128.797 356.3C126.157 356.3 125.037 354.6 124.877 353.5ZM144.708 351.08H139.288V349.44H144.708V351.08ZM161.562 356H151.802C151.842 353.9 152.582 351.92 154.822 350.56L157.402 348.94C158.782 348.06 159.502 347.16 159.502 345.9C159.502 344.46 158.462 343.28 156.782 343.28C154.922 343.28 153.742 344.5 153.742 346.34C153.742 346.56 153.762 346.82 153.822 347.08L151.962 347C151.922 346.78 151.882 346.38 151.882 346.12C151.882 343.66 153.642 341.56 156.722 341.56C159.682 341.56 161.422 343.5 161.422 345.86C161.422 347.68 160.362 349.1 158.702 350.14L155.782 351.94C154.962 352.46 154.342 353.28 154.142 354.2H161.562V356ZM163.552 348.92C163.552 345.56 164.692 341.56 169.032 341.56C173.372 341.56 174.513 345.56 174.513 348.92C174.513 352.24 173.413 356.26 169.032 356.26C164.672 356.26 163.552 352.22 163.552 348.92ZM172.573 348.92C172.573 346.08 171.812 343.32 169.032 343.32C166.232 343.32 165.512 346.06 165.512 348.92C165.512 351.76 166.252 354.52 169.032 354.52C171.812 354.52 172.573 351.76 172.573 348.92ZM182.372 347.44C184.612 347.5 186.552 349.12 186.552 351.74C186.552 354.2 184.532 356.26 181.492 356.26C178.452 356.26 176.512 354.32 176.352 351.84L178.212 351.42C178.292 353.3 179.692 354.54 181.472 354.54C183.332 354.54 184.612 353.36 184.612 351.7C184.612 349.92 183.332 348.88 181.592 348.88C181.152 348.88 180.652 349 180.272 349.16L179.412 347.74L183.692 343.62H176.732V341.82H186.172V343.44L181.912 347.52C182.052 347.46 182.272 347.44 182.372 347.44ZM188.341 354.72C188.341 353.94 188.941 353.32 189.721 353.32C190.501 353.32 191.121 353.94 191.121 354.72C191.121 355.5 190.501 356.1 189.721 356.1C188.941 356.1 188.341 355.5 188.341 354.72ZM192.855 352.06L194.635 351.62C194.795 353.24 196.015 354.54 197.855 354.54C199.715 354.54 200.995 353.28 200.995 351.5C200.995 349.54 199.655 348.4 197.855 348.4C196.655 348.4 195.655 348.94 195.035 349.74L193.255 349.08L194.795 341.82H202.275V343.62H196.135L195.215 347.96C195.915 347.16 197.195 346.78 198.235 346.78C201.055 346.78 202.935 348.58 202.935 351.48C202.935 354.1 200.995 356.26 197.855 356.26C195.015 356.26 193.055 354.34 192.855 352.06ZM214.367 356L209.567 349.56L207.547 351.72V356H205.587V341.82H207.547V349.12L214.187 341.82H216.767L210.867 348.14L216.847 356H214.367Z" fill="white"/>
<rect x="56.5" y="383.5" width="190.991" height="43" rx="11.5" stroke="#292929"/>
<path fill-rule="evenodd" clip-rule="evenodd" d="M71.2 397C70.1391 397 69.1217 397.421 68.3716 398.172C67.6214 398.922 67.2 399.939 67.2 401C67.2 402.061 67.6214 403.078 68.3716 403.828C69.1217 404.579 70.1391 405 71.2 405C72.2609 405 73.2783 404.579 74.0284 403.828C74.7786 403.078 75.2 402.061 75.2 401C75.2 399.939 74.7786 398.922 74.0284 398.172C73.2783 397.421 72.2609 397 71.2 397ZM71.2 405.8C69.284 405.8 67.54 406.355 66.2576 407.138C65.6176 407.528 65.0704 407.989 64.6752 408.49C64.2864 408.981 64 409.57 64 410.2C64 410.876 64.3288 411.409 64.8024 411.789C65.2504 412.149 65.8416 412.387 66.4696 412.554C67.732 412.887 69.4168 413 71.2 413C71.3845 413 71.5672 412.999 71.748 412.996C71.882 412.994 72.0134 412.959 72.1301 412.893C72.2468 412.827 72.3451 412.733 72.4159 412.619C72.4868 412.506 72.528 412.376 72.5357 412.242C72.5434 412.108 72.5174 411.975 72.46 411.854C72.1566 411.212 71.9995 410.51 72 409.8C72 408.798 72.3064 407.87 72.8296 407.102C72.9074 406.987 72.9542 406.855 72.9656 406.717C72.9769 406.579 72.9524 406.441 72.8944 406.316C72.8364 406.19 72.7469 406.082 72.6346 406.001C72.5223 405.921 72.391 405.871 72.2536 405.856C71.9091 405.819 71.5579 405.8 71.2 405.8ZM79.7664 408.254C79.9121 408.104 79.9928 407.901 79.9909 407.692C79.9891 407.482 79.905 407.281 79.7567 407.133C79.6083 406.985 79.4077 406.9 79.1979 406.899C78.9882 406.897 78.7861 406.977 78.6352 407.123L76.0896 409.669L74.9584 408.538C74.8075 408.392 74.6054 408.311 74.3957 408.313C74.1859 408.315 73.9853 408.399 73.8369 408.547C73.6886 408.696 73.6045 408.896 73.6027 409.106C73.6008 409.316 73.6815 409.518 73.8272 409.669L75.4672 411.309C75.5489 411.391 75.646 411.455 75.7527 411.5C75.8595 411.544 75.974 411.567 76.0896 411.567C76.2052 411.567 76.3197 411.544 76.4265 411.5C76.5333 411.455 76.6303 411.391 76.712 411.309L79.7664 408.254Z" fill="white"/>
<path d="M91.851 412H89.891V397.82H98.511V399.64H91.851V404.2H97.891V406.04H91.851V412ZM104.524 410.62C106.124 410.62 107.524 409.42 107.524 407.18C107.524 404.96 106.124 403.76 104.524 403.76C102.924 403.76 101.524 404.96 101.524 407.18C101.524 409.42 102.924 410.62 104.524 410.62ZM104.524 402.08C107.404 402.08 109.444 404.26 109.444 407.18C109.444 410.12 107.404 412.3 104.524 412.3C101.644 412.3 99.6044 410.12 99.6044 407.18C99.6044 404.26 101.644 402.08 104.524 402.08ZM113.561 412H111.681V397.52H113.561V412ZM118.318 412H116.438V397.52H118.318V412ZM125.475 410.62C127.075 410.62 128.475 409.42 128.475 407.18C128.475 404.96 127.075 403.76 125.475 403.76C123.875 403.76 122.475 404.96 122.475 407.18C122.475 409.42 123.875 410.62 125.475 410.62ZM125.475 402.08C128.355 402.08 130.395 404.26 130.395 407.18C130.395 410.12 128.355 412.3 125.475 412.3C122.595 412.3 120.555 410.12 120.555 407.18C120.555 404.26 122.595 402.08 125.475 402.08ZM138.156 402.38H140.096L142.596 409.62L144.716 402.38H146.696L143.576 412H141.636L139.076 404.68L136.576 412H134.596L131.436 402.38H133.496L135.656 409.62L138.156 402.38ZM149.764 406.2H155.024C154.984 404.82 154.084 403.74 152.384 403.74C150.804 403.74 149.844 404.96 149.764 406.2ZM155.304 408.7L156.924 409.26C156.384 410.96 154.844 412.3 152.604 412.3C150.024 412.3 147.764 410.42 147.764 407.16C147.764 404.14 149.944 402.08 152.364 402.08C155.324 402.08 156.984 404.12 156.984 407.12C156.984 407.36 156.964 407.6 156.944 407.72H149.704C149.744 409.44 150.984 410.64 152.604 410.64C154.164 410.64 154.944 409.78 155.304 408.7ZM164.516 402.28V404.28C164.236 404.24 163.956 404.22 163.696 404.22C162.116 404.22 161.056 405.06 161.056 407.18V412H159.176V402.38H161.016V404.06C161.716 402.58 162.916 402.22 163.896 402.22C164.156 402.22 164.416 402.26 164.516 402.28ZM165.517 409.5L167.217 408.9C167.337 409.9 168.097 410.7 169.457 410.7C170.517 410.7 171.097 410.1 171.097 409.42C171.097 408.82 170.657 408.36 169.857 408.18L168.217 407.82C166.717 407.5 165.817 406.48 165.817 405.12C165.817 403.48 167.357 402.08 169.237 402.08C171.877 402.08 172.697 403.8 172.897 404.66L171.237 405.28C171.157 404.78 170.757 403.68 169.237 403.68C168.277 403.68 167.637 404.3 167.637 404.96C167.637 405.54 167.997 405.96 168.737 406.12L170.297 406.46C172.037 406.84 172.957 407.9 172.957 409.32C172.957 410.68 171.817 412.3 169.437 412.3C166.797 412.3 165.677 410.6 165.517 409.5ZM185.348 407.08H179.928V405.44H185.348V407.08ZM202.201 412H192.441C192.481 409.9 193.221 407.92 195.461 406.56L198.041 404.94C199.421 404.06 200.141 403.16 200.141 401.9C200.141 400.46 199.101 399.28 197.421 399.28C195.561 399.28 194.381 400.5 194.381 402.34C194.381 402.56 194.401 402.82 194.461 403.08L192.601 403C192.561 402.78 192.521 402.38 192.521 402.12C192.521 399.66 194.281 397.56 197.361 397.56C200.321 397.56 202.061 399.5 202.061 401.86C202.061 403.68 201.001 405.1 199.341 406.14L196.421 407.94C195.601 408.46 194.981 409.28 194.781 410.2H202.201V412ZM204.192 404.92C204.192 401.56 205.332 397.56 209.672 397.56C214.012 397.56 215.152 401.56 215.152 404.92C215.152 408.24 214.052 412.26 209.672 412.26C205.312 412.26 204.192 408.22 204.192 404.92ZM213.212 404.92C213.212 402.08 212.452 399.32 209.672 399.32C206.872 399.32 206.152 402.06 206.152 404.92C206.152 407.76 206.892 410.52 209.672 410.52C212.452 410.52 213.212 407.76 213.212 404.92ZM216.782 410.72C216.782 409.94 217.382 409.32 218.162 409.32C218.942 409.32 219.562 409.94 219.562 410.72C219.562 411.5 218.942 412.1 218.162 412.1C217.382 412.1 216.782 411.5 216.782 410.72ZM225.178 412H223.258V401.64H220.118V400.26C221.918 400.22 223.158 399.22 223.458 397.82H225.178V412ZM237.222 412L232.422 405.56L230.402 407.72V412H228.442V397.82H230.402V405.12L237.042 397.82H239.622L233.722 404.14L239.702 412H237.222Z" fill="white"/>
<rect x="337.491" y="327.5" width="224" height="43" rx="11.5" stroke="#292929"/>
<path fill-rule="evenodd" clip-rule="evenodd" d="M352.991 357C349.22 357 347.334 357 346.162 355.828C344.991 354.658 344.991 352.771 344.991 349C344.991 345.229 344.991 343.343 346.162 342.171C347.335 341 349.22 341 352.991 341C356.762 341 358.648 341 359.819 342.171C360.991 343.344 360.991 345.229 360.991 349C360.991 352.771 360.991 354.657 359.819 355.828C358.649 357 356.762 357 352.991 357ZM354.97 346.135C355.093 346.236 355.172 346.381 355.188 346.539C355.204 346.698 355.156 346.856 355.056 346.979L350.485 352.579C350.428 352.648 350.357 352.704 350.277 352.742C350.197 352.78 350.109 352.8 350.02 352.8C349.931 352.8 349.843 352.78 349.763 352.742C349.682 352.704 349.611 352.648 349.555 352.579L347.726 350.339C347.63 350.216 347.585 350.059 347.603 349.903C347.62 349.747 347.698 349.604 347.82 349.505C347.941 349.406 348.097 349.358 348.253 349.372C348.409 349.387 348.554 349.461 348.656 349.581L350.02 351.251L354.126 346.221C354.227 346.098 354.372 346.019 354.53 346.003C354.689 345.987 354.847 346.035 354.97 346.135ZM358.17 346.135C358.293 346.236 358.372 346.381 358.388 346.539C358.404 346.698 358.356 346.856 358.256 346.979L353.685 352.579C353.625 352.652 353.549 352.711 353.462 352.749C353.376 352.787 353.282 352.805 353.188 352.8C353.093 352.795 353.001 352.767 352.92 352.72C352.838 352.673 352.768 352.607 352.717 352.528L352.489 352.178C352.42 352.072 352.386 351.948 352.392 351.823C352.398 351.698 352.442 351.577 352.52 351.479C352.598 351.38 352.705 351.308 352.825 351.273C352.946 351.239 353.074 351.243 353.193 351.285L357.326 346.221C357.427 346.098 357.572 346.019 357.73 346.003C357.889 345.987 358.047 346.035 358.17 346.135Z" fill="white"/>
<path d="M379.791 345.04L378.031 345.66C377.871 344.64 377.011 343.24 375.031 343.24C373.431 343.24 372.291 344.28 372.291 345.6C372.291 346.62 372.911 347.4 374.111 347.66L376.231 348.12C378.591 348.64 379.911 350.12 379.911 352.1C379.911 354.3 378.031 356.3 375.011 356.3C371.591 356.3 369.971 354.1 369.711 352.08L371.591 351.48C371.731 353.06 372.851 354.52 374.991 354.52C376.951 354.52 377.911 353.5 377.911 352.26C377.911 351.24 377.211 350.36 375.791 350.06L373.771 349.62C371.751 349.18 370.311 347.86 370.311 345.74C370.311 343.52 372.371 341.52 374.991 341.52C378.191 341.52 379.471 343.5 379.791 345.04ZM388.424 354.84C387.904 355.84 386.704 356.3 385.584 356.3C383.344 356.3 381.984 354.62 381.984 352.44V346.38H383.864V352.16C383.864 353.48 384.464 354.64 386.044 354.64C387.564 354.64 388.324 353.64 388.324 352.18V346.38H390.204V354.22C390.204 354.98 390.264 355.66 390.304 356H388.504C388.464 355.78 388.424 355.24 388.424 354.84ZM394.951 356H393.091V341.52H394.951V347.74C395.411 346.88 396.531 346.1 398.131 346.1C401.051 346.1 402.551 348.34 402.551 351.14C402.551 354 400.931 356.26 398.071 356.26C396.651 356.26 395.551 355.64 394.951 354.6V356ZM400.631 351.14C400.631 349.06 399.531 347.76 397.791 347.76C396.131 347.76 394.931 349.06 394.931 351.14C394.931 353.22 396.131 354.58 397.791 354.58C399.511 354.58 400.631 353.22 400.631 351.14ZM404.041 353.5L405.741 352.9C405.861 353.9 406.621 354.7 407.981 354.7C409.041 354.7 409.621 354.1 409.621 353.42C409.621 352.82 409.181 352.36 408.381 352.18L406.741 351.82C405.241 351.5 404.341 350.48 404.341 349.12C404.341 347.48 405.881 346.08 407.761 346.08C410.401 346.08 411.221 347.8 411.421 348.66L409.761 349.28C409.681 348.78 409.281 347.68 407.761 347.68C406.801 347.68 406.161 348.3 406.161 348.96C406.161 349.54 406.521 349.96 407.261 350.12L408.821 350.46C410.561 350.84 411.481 351.9 411.481 353.32C411.481 354.68 410.341 356.3 407.961 356.3C405.321 356.3 404.201 354.6 404.041 353.5ZM417.938 347.82C416.418 347.82 415.018 348.94 415.018 351.18C415.018 353.38 416.398 354.56 417.958 354.56C419.758 354.56 420.418 353.34 420.638 352.58L422.298 353.3C421.838 354.68 420.458 356.3 417.958 356.3C415.158 356.3 413.098 354.1 413.098 351.18C413.098 348.18 415.198 346.08 417.938 346.08C420.498 346.08 421.818 347.68 422.218 349.14L420.518 349.86C420.278 348.92 419.578 347.82 417.938 347.82ZM429.694 346.28V348.28C429.414 348.24 429.134 348.22 428.874 348.22C427.294 348.22 426.234 349.06 426.234 351.18V356H424.354V346.38H426.194V348.06C426.894 346.58 428.094 346.22 429.074 346.22C429.334 346.22 429.594 346.26 429.694 346.28ZM433.315 356H431.455V346.38H433.315V356ZM431.035 342.74C431.035 341.98 431.635 341.38 432.375 341.38C433.135 341.38 433.735 341.98 433.735 342.74C433.735 343.48 433.135 344.08 432.375 344.08C431.635 344.08 431.035 343.48 431.035 342.74ZM438.052 356H436.192V341.52H438.052V347.74C438.512 346.88 439.632 346.1 441.232 346.1C444.152 346.1 445.652 348.34 445.652 351.14C445.652 354 444.032 356.26 441.172 356.26C439.752 356.26 438.652 355.64 438.052 354.6V356ZM443.732 351.14C443.732 349.06 442.632 347.76 440.892 347.76C439.232 347.76 438.032 349.06 438.032 351.14C438.032 353.22 439.232 354.58 440.892 354.58C442.612 354.58 443.732 353.22 443.732 351.14ZM449.262 350.2H454.522C454.482 348.82 453.582 347.74 451.882 347.74C450.302 347.74 449.342 348.96 449.262 350.2ZM454.802 352.7L456.422 353.26C455.882 354.96 454.342 356.3 452.102 356.3C449.522 356.3 447.262 354.42 447.262 351.16C447.262 348.14 449.442 346.08 451.862 346.08C454.822 346.08 456.482 348.12 456.482 351.12C456.482 351.36 456.462 351.6 456.442 351.72H449.202C449.242 353.44 450.482 354.64 452.102 354.64C453.662 354.64 454.442 353.78 454.802 352.7ZM464.014 346.28V348.28C463.734 348.24 463.454 348.22 463.194 348.22C461.614 348.22 460.554 349.06 460.554 351.18V356H458.674V346.38H460.514V348.06C461.214 346.58 462.414 346.22 463.394 346.22C463.654 346.22 463.914 346.26 464.014 346.28ZM465.015 353.5L466.715 352.9C466.835 353.9 467.595 354.7 468.955 354.7C470.015 354.7 470.595 354.1 470.595 353.42C470.595 352.82 470.155 352.36 469.355 352.18L467.715 351.82C466.215 351.5 465.315 350.48 465.315 349.12C465.315 347.48 466.855 346.08 468.735 346.08C471.375 346.08 472.195 347.8 472.395 348.66L470.735 349.28C470.655 348.78 470.255 347.68 468.735 347.68C467.775 347.68 467.135 348.3 467.135 348.96C467.135 349.54 467.495 349.96 468.235 350.12L469.795 350.46C471.535 350.84 472.455 351.9 472.455 353.32C472.455 354.68 471.315 356.3 468.935 356.3C466.295 356.3 465.175 354.6 465.015 353.5ZM484.846 351.08H479.426V349.44H484.846V351.08ZM496.499 356H494.579V345.64H491.439V344.26C493.239 344.22 494.479 343.22 494.779 341.82H496.499V356ZM498.964 348.92C498.964 345.56 500.104 341.56 504.444 341.56C508.784 341.56 509.924 345.56 509.924 348.92C509.924 352.24 508.824 356.26 504.444 356.26C500.084 356.26 498.964 352.22 498.964 348.92ZM507.984 348.92C507.984 346.08 507.224 343.32 504.444 343.32C501.644 343.32 500.924 346.06 500.924 348.92C500.924 351.76 501.664 354.52 504.444 354.52C507.224 354.52 507.984 351.76 507.984 348.92ZM511.963 348.92C511.963 345.56 513.103 341.56 517.443 341.56C521.783 341.56 522.923 345.56 522.923 348.92C522.923 352.24 521.823 356.26 517.443 356.26C513.083 356.26 511.963 352.22 511.963 348.92ZM520.983 348.92C520.983 346.08 520.223 343.32 517.443 343.32C514.643 343.32 513.923 346.06 513.923 348.92C513.923 351.76 514.663 354.52 517.443 354.52C520.223 354.52 520.983 351.76 520.983 348.92ZM524.553 354.72C524.553 353.94 525.153 353.32 525.933 353.32C526.713 353.32 527.333 353.94 527.333 354.72C527.333 355.5 526.713 356.1 525.933 356.1C525.153 356.1 524.553 355.5 524.553 354.72ZM539.067 356H529.307C529.347 353.9 530.087 351.92 532.327 350.56L534.907 348.94C536.287 348.06 537.007 347.16 537.007 345.9C537.007 344.46 535.967 343.28 534.287 343.28C532.427 343.28 531.247 344.5 531.247 346.34C531.247 346.56 531.267 346.82 531.327 347.08L529.467 347C529.427 346.78 529.387 346.38 529.387 346.12C529.387 343.66 531.147 341.56 534.227 341.56C537.187 341.56 538.927 343.5 538.927 345.86C538.927 347.68 537.867 349.1 536.207 350.14L533.287 351.94C532.467 352.46 531.847 353.28 531.647 354.2H539.067V356ZM550.638 356L545.838 349.56L543.818 351.72V356H541.858V341.82H543.818V349.12L550.458 341.82H553.038L547.138 348.14L553.118 356H550.638Z" fill="white"/>
<rect x="337.491" y="383.5" width="224" height="43" rx="11.5" stroke="#292929"/>
<path d="M352.991 400.429C349.977 400.429 347.392 402.505 346.026 403.859C345.381 404.499 345.381 405.5 346.026 406.141C347.392 407.495 349.977 409.572 352.991 409.572C355.188 409.572 357.866 407.683 359.498 406.334C360.351 405.629 360.351 404.371 359.498 403.666C357.866 402.317 355.188 400.429 352.991 400.429ZM352.991 407.848C351.42 407.848 350.142 406.57 350.142 405C350.142 403.43 351.42 402.151 352.991 402.151C354.561 402.151 355.839 403.43 355.839 405C355.839 406.57 354.561 407.848 352.991 407.848ZM352.991 403.337C352.77 403.333 352.55 403.373 352.345 403.455C352.14 403.536 351.953 403.658 351.795 403.813C351.637 403.968 351.512 404.152 351.426 404.356C351.341 404.56 351.297 404.779 351.297 405C351.297 405.221 351.341 405.439 351.426 405.643C351.512 405.847 351.637 406.032 351.795 406.186C351.953 406.341 352.14 406.463 352.345 406.545C352.55 406.626 352.77 406.666 352.991 406.662C353.426 406.654 353.841 406.475 354.146 406.164C354.451 405.853 354.622 405.435 354.622 405C354.622 404.564 354.451 404.146 354.146 403.835C353.841 403.524 353.426 403.345 352.991 403.337Z" fill="white"/>
<path d="M375.771 409.48L380.091 397.82H382.151L376.691 412H374.751L369.411 397.82H371.491L375.771 409.48ZM385.721 412H383.861V402.38H385.721V412ZM383.441 398.74C383.441 397.98 384.041 397.38 384.781 397.38C385.541 397.38 386.141 397.98 386.141 398.74C386.141 399.48 385.541 400.08 384.781 400.08C384.041 400.08 383.441 399.48 383.441 398.74ZM389.959 406.2H395.219C395.179 404.82 394.279 403.74 392.579 403.74C390.999 403.74 390.039 404.96 389.959 406.2ZM395.499 408.7L397.119 409.26C396.579 410.96 395.039 412.3 392.799 412.3C390.219 412.3 387.959 410.42 387.959 407.16C387.959 404.14 390.139 402.08 392.559 402.08C395.519 402.08 397.179 404.12 397.179 407.12C397.179 407.36 397.159 407.6 397.139 407.72H389.899C389.939 409.44 391.179 410.64 392.799 410.64C394.359 410.64 395.139 409.78 395.499 408.7ZM404.896 402.38H406.836L409.336 409.62L411.456 402.38H413.436L410.316 412H408.376L405.816 404.68L403.316 412H401.336L398.176 402.38H400.236L402.396 409.62L404.896 402.38ZM414.403 409.5L416.103 408.9C416.223 409.9 416.983 410.7 418.343 410.7C419.403 410.7 419.983 410.1 419.983 409.42C419.983 408.82 419.543 408.36 418.743 408.18L417.103 407.82C415.603 407.5 414.703 406.48 414.703 405.12C414.703 403.48 416.243 402.08 418.123 402.08C420.763 402.08 421.583 403.8 421.783 404.66L420.123 405.28C420.043 404.78 419.643 403.68 418.123 403.68C417.163 403.68 416.523 404.3 416.523 404.96C416.523 405.54 416.883 405.96 417.623 406.12L419.183 406.46C420.923 406.84 421.843 407.9 421.843 409.32C421.843 410.68 420.703 412.3 418.323 412.3C415.683 412.3 414.563 410.6 414.403 409.5ZM434.234 407.08H428.814V405.44H434.234V407.08ZM451.087 412H441.327C441.367 409.9 442.107 407.92 444.347 406.56L446.927 404.94C448.307 404.06 449.027 403.16 449.027 401.9C449.027 400.46 447.987 399.28 446.307 399.28C444.447 399.28 443.267 400.5 443.267 402.34C443.267 402.56 443.287 402.82 443.347 403.08L441.487 403C441.447 402.78 441.407 402.38 441.407 402.12C441.407 399.66 443.167 397.56 446.247 397.56C449.207 397.56 450.947 399.5 450.947 401.86C450.947 403.68 449.887 405.1 448.227 406.14L445.307 407.94C444.487 408.46 443.867 409.28 443.667 410.2H451.087V412ZM453.118 410.72C453.118 409.94 453.718 409.32 454.498 409.32C455.278 409.32 455.898 409.94 455.898 410.72C455.898 411.5 455.278 412.1 454.498 412.1C453.718 412.1 453.118 411.5 453.118 410.72ZM457.503 404.92C457.503 401.56 458.643 397.56 462.983 397.56C467.323 397.56 468.463 401.56 468.463 404.92C468.463 408.24 467.363 412.26 462.983 412.26C458.623 412.26 457.503 408.22 457.503 404.92ZM466.523 404.92C466.523 402.08 465.763 399.32 462.983 399.32C460.183 399.32 459.463 402.06 459.463 404.92C459.463 407.76 460.203 410.52 462.983 410.52C465.763 410.52 466.523 407.76 466.523 404.92ZM480.182 412H470.422C470.462 409.9 471.202 407.92 473.442 406.56L476.022 404.94C477.402 404.06 478.122 403.16 478.122 401.9C478.122 400.46 477.082 399.28 475.402 399.28C473.542 399.28 472.362 400.5 472.362 402.34C472.362 402.56 472.382 402.82 472.442 403.08L470.582 403C470.542 402.78 470.502 402.38 470.502 402.12C470.502 399.66 472.262 397.56 475.342 397.56C478.302 397.56 480.042 399.5 480.042 401.86C480.042 403.68 478.982 405.1 477.322 406.14L474.402 407.94C473.582 408.46 472.962 409.28 472.762 410.2H480.182V412ZM498.293 412H496.353V400.96L491.513 412H489.713L484.913 400.96V412H482.973V397.82H485.633L490.633 409.36L495.673 397.82H498.293V412Z" fill="white"/>
<rect x="40" y="485" width="538" height="52" rx="12" fill="#292929"/>
<path d="M77.8535 512.942L77.7635 512.038L77.7335 512.041L77.7044 512.046L77.8535 512.942ZM77.8535 512.942L77.9445 513.847L77.9745 513.844L78.0035 513.84L77.8535 512.942ZM74.1806 517.926L74.7561 517.223L74.7489 517.217L74.1806 517.926ZM74.1806 517.926L73.6052 518.63L73.6124 518.636L74.1806 517.926ZM65.8203 517.926L65.2448 517.223L65.2303 517.235L65.2166 517.247L65.8203 517.926ZM65.8203 517.926L66.3958 518.631L66.4103 518.619L66.4239 518.606L65.8203 517.926ZM62.1465 509.059V508.149H62.101L62.0565 508.154L62.1465 509.059ZM62.1465 509.059V509.968H62.1919L62.2374 509.963L62.1465 509.059ZM72.847 503.056C72.832 502.881 72.8104 502.706 72.7842 502.533C72.7562 502.342 72.6979 502.156 72.6115 501.984L70.996 502.818C70.9751 502.777 70.9796 502.763 70.9914 502.835C71.0051 502.916 71.0169 503.028 71.0378 503.237L72.847 503.056ZM72.9333 503.919C72.9906 503.994 72.9715 504.027 72.9397 503.85C72.9097 503.681 72.886 503.444 72.847 503.056L71.0369 503.236C71.0732 503.595 71.1041 503.917 71.1505 504.173C71.1951 504.418 71.2732 504.741 71.4869 505.021L72.9333 503.919ZM72.9333 503.919L71.4869 505.021C71.6815 505.276 71.9401 505.476 72.2367 505.599C72.5332 505.722 72.857 505.764 73.1751 505.721L72.9333 503.919ZM73.6043 503.369C73.4005 503.541 73.191 503.707 72.976 503.865C72.8279 503.967 72.8397 503.931 72.9333 503.919L73.1751 505.721C73.5243 505.674 73.8079 505.501 74.0134 505.357C74.227 505.21 74.477 505.005 74.7552 504.777L73.6043 503.369ZM74.5279 502.778C74.3449 502.839 74.1728 502.929 74.0179 503.044C73.8906 503.135 73.7479 503.252 73.6043 503.369L74.7552 504.777C74.918 504.644 75.0061 504.572 75.0734 504.525C75.1325 504.482 75.1243 504.497 75.0816 504.51L74.5279 502.778ZM75.8044 502.842C75.4006 502.667 74.9471 502.644 74.5279 502.778L75.0816 504.51L75.8044 502.842ZM76.6644 503.522C76.542 503.396 76.4155 503.274 76.2853 503.156C76.1424 503.027 75.9797 502.921 75.8034 502.842L75.0816 504.51C75.0398 504.492 75.0334 504.477 75.088 504.526C75.1498 504.58 75.2307 504.659 75.3789 504.807L76.6644 503.522ZM77.4772 504.335L76.6644 503.522L75.3789 504.807L76.1916 505.62L77.4772 504.335ZM78.1572 505.195C78.0786 505.018 77.9724 504.856 77.8426 504.713C77.7249 504.583 77.603 504.457 77.4772 504.335L76.1916 505.621C76.3398 505.769 76.4189 505.85 76.4735 505.912C76.5217 505.967 76.5071 505.96 76.4889 505.918L78.1572 505.195ZM78.2208 506.471C78.3548 506.052 78.3322 505.599 78.1572 505.195L76.4889 505.918L78.2208 506.471ZM77.6299 507.395C77.7428 507.26 77.8513 507.123 77.9554 506.981C78.0517 506.847 78.1554 506.679 78.2208 506.471L76.4889 505.918C76.5026 505.876 76.5162 505.867 76.4744 505.927C76.4271 505.993 76.3562 506.081 76.2226 506.244L77.6299 507.395ZM77.0799 508.067C77.0681 508.16 77.0317 508.171 77.1344 508.023C77.2317 507.882 77.3826 507.697 77.6299 507.395L76.2226 506.244C75.9953 506.522 75.7889 506.772 75.6407 506.986C75.498 507.191 75.3252 507.475 75.278 507.824L77.0799 508.067ZM77.0799 508.067L75.278 507.824C75.2352 508.142 75.2775 508.466 75.4005 508.762C75.5234 509.059 75.7227 509.318 75.978 509.512L77.0799 508.067ZM77.9435 508.153C77.6777 508.131 77.4127 508.1 77.149 508.059C76.9717 508.028 77.0053 508.009 77.0799 508.067L75.978 509.512C76.258 509.726 76.5798 509.804 76.8271 509.849C77.0826 509.894 77.4044 509.926 77.7626 509.962L77.9435 508.153ZM79.0154 508.388C78.8427 508.301 78.6573 508.243 78.4663 508.215C78.2928 508.189 78.1184 508.168 77.9435 508.153L77.7626 509.962C77.8972 509.974 78.0315 509.989 78.1654 510.008C78.2381 510.02 78.2226 510.025 78.1817 510.004L79.0154 508.388ZM79.8727 509.336C79.7111 508.926 79.4065 508.59 79.0154 508.388L78.1826 510.006L79.8727 509.336ZM80 510.425C80 510.24 80 510.055 79.99 509.899C79.9808 509.706 79.9409 509.515 79.8718 509.335L78.1826 510.006C78.1663 509.963 78.1717 509.949 78.1772 510.021C78.1826 510.103 78.1826 510.217 78.1826 510.427L80 510.425ZM80 511.574V510.425H78.1817V511.574H80ZM79.8727 512.663C79.9527 512.461 79.9791 512.266 79.99 512.1C80 511.944 80 511.76 80 511.574H78.1817C78.1817 511.784 78.1817 511.898 78.1763 511.98C78.1708 512.052 78.1654 512.038 78.1817 511.995L79.8727 512.663ZM79.0154 513.611C79.4065 513.41 79.7111 513.073 79.8727 512.663L78.1826 511.996L79.0154 513.611ZM77.9435 513.846C78.129 513.828 78.3117 513.81 78.4663 513.784C78.6299 513.757 78.8209 513.711 79.0154 513.611L78.1826 511.996C78.2226 511.975 78.2381 511.98 78.1663 511.991C78.0325 512.011 77.8982 512.026 77.7635 512.038L77.9435 513.846ZM77.0808 513.932C77.0053 513.99 76.9717 513.972 77.149 513.94C77.3181 513.91 77.5553 513.885 77.9435 513.846L77.7626 512.037C77.4053 512.073 77.0826 512.104 76.8271 512.151C76.5808 512.195 76.258 512.273 75.978 512.487L77.0808 513.932ZM77.0808 513.932L75.978 512.487C75.7227 512.681 75.5234 512.94 75.4005 513.237C75.2775 513.533 75.2352 513.857 75.278 514.175L77.0808 513.932ZM77.6299 514.603C77.4577 514.4 77.2925 514.191 77.1344 513.976C77.0317 513.828 77.069 513.839 77.0808 513.932L75.278 514.175C75.3252 514.524 75.498 514.808 75.6416 515.013C75.7898 515.227 75.9953 515.477 76.2226 515.755L77.6299 514.603ZM78.2208 515.527C78.1599 515.344 78.0703 515.172 77.9554 515.018C77.8645 514.89 77.7472 514.748 77.6299 514.603L76.2226 515.755C76.3553 515.918 76.4271 516.005 76.4744 516.073C76.5171 516.132 76.5035 516.124 76.4889 516.082L78.2208 515.527ZM78.1572 516.804C78.3324 516.4 78.355 515.946 78.2208 515.527L76.4889 516.082L78.1572 516.804ZM77.4772 517.664C77.609 517.533 77.739 517.403 77.8426 517.285C77.9517 517.16 78.0699 517.004 78.1572 516.803L76.4889 516.081C76.5071 516.039 76.5217 516.033 76.4735 516.088C76.4189 516.15 76.3398 516.23 76.1916 516.379L77.4772 517.664ZM76.6644 518.476L77.4772 517.664L76.1916 516.379L75.3789 517.191L76.6644 518.476ZM75.8044 519.157C75.9807 519.078 76.1434 518.972 76.2862 518.842C76.4035 518.739 76.5335 518.608 76.6644 518.476L75.3789 517.191C75.2845 517.287 75.1875 517.381 75.088 517.473C75.0334 517.522 75.0398 517.507 75.0816 517.489L75.8044 519.157ZM74.5279 519.221C74.9471 519.355 75.4006 519.332 75.8044 519.157L75.0816 517.489L74.5279 519.221ZM73.6043 518.63C73.7479 518.747 73.8897 518.864 74.0179 518.955C74.1525 519.051 74.3197 519.154 74.5279 519.221L75.0816 517.489C75.1243 517.503 75.1325 517.516 75.0725 517.474C74.9644 517.393 74.8586 517.309 74.7552 517.223L73.6043 518.63ZM72.9333 518.081C72.8397 518.067 72.8279 518.031 72.976 518.134C73.117 518.232 73.3015 518.382 73.6034 518.629L74.7552 517.223C74.477 516.994 74.227 516.789 74.0134 516.641C73.8079 516.497 73.5243 516.325 73.1751 516.278L72.9333 518.081ZM72.9333 518.081L73.1751 516.278C72.857 516.235 72.5332 516.278 72.2367 516.4C71.9401 516.523 71.6815 516.723 71.4869 516.978L72.9333 518.081ZM72.846 518.944C72.8851 518.555 72.9097 518.317 72.9397 518.149C72.9715 517.972 72.9897 518.004 72.9324 518.08L71.4869 516.977C71.2732 517.257 71.1951 517.58 71.1505 517.826C71.1051 518.083 71.0741 518.404 71.0378 518.763L72.846 518.944ZM72.6106 520.015C72.7106 519.821 72.756 519.63 72.7833 519.466C72.8106 519.312 72.827 519.129 72.846 518.944L71.0378 518.763C71.0258 518.898 71.01 519.031 70.9905 519.165C70.9787 519.238 70.9741 519.223 70.9951 519.182L72.6106 520.015ZM71.6642 520.873C72.0729 520.711 72.4091 520.406 72.6106 520.015L70.996 519.183L71.6642 520.873ZM70.5732 521C70.7596 521 70.9441 521 71.1005 520.99C71.266 520.979 71.4605 520.955 71.6642 520.873L70.996 519.183C71.0387 519.166 71.0532 519.172 70.9805 519.177C70.8454 519.183 70.7102 519.185 70.575 519.183L70.5732 521ZM69.425 521H70.5732L70.5741 519.182H69.425V521ZM68.3358 520.873C68.5386 520.953 68.7331 520.979 68.8995 520.99C69.055 521 69.2395 521 69.425 521V519.182C69.215 519.182 69.1013 519.182 69.0195 519.176C68.9468 519.171 68.9613 519.165 69.0041 519.182L68.3358 520.873ZM67.3876 520.015C67.5895 520.407 67.9264 520.711 68.3358 520.873L69.0041 519.182L67.3876 520.015ZM67.1531 518.944C67.1712 519.129 67.1894 519.312 67.2149 519.466C67.2422 519.63 67.2876 519.821 67.3876 520.015L69.0059 519.183C69.0268 519.223 69.0222 519.238 69.0104 519.166C68.9912 519.032 68.9758 518.898 68.9641 518.764L67.1531 518.944ZM67.0667 518.08C67.0094 518.005 67.0276 517.971 67.0594 518.149C67.0894 518.317 67.114 518.555 67.1531 518.944L68.9622 518.763C68.9259 518.404 68.895 518.083 68.8486 517.826C68.804 517.581 68.7259 517.258 68.5122 516.978L67.0667 518.08ZM67.0667 518.08L68.5122 516.978C68.3177 516.723 68.059 516.523 67.7624 516.4C67.4659 516.278 67.1421 516.235 66.824 516.278L67.0667 518.08ZM66.3948 518.63C66.6976 518.383 66.8821 518.232 67.0231 518.134C67.1712 518.032 67.1603 518.068 67.0667 518.08L66.824 516.278C66.4749 516.325 66.1912 516.498 65.9857 516.642C65.7721 516.789 65.5221 516.994 65.2439 517.223L66.3948 518.63ZM65.4712 519.221C65.6542 519.16 65.8263 519.07 65.9812 518.955C66.1085 518.864 66.2512 518.747 66.3948 518.63L65.2448 517.223C65.1411 517.31 65.0359 517.394 64.9275 517.475C64.8684 517.518 64.8766 517.504 64.9193 517.49L65.4712 519.221ZM64.1948 519.157C64.5985 519.332 65.052 519.355 65.4712 519.221L64.9175 517.489L64.1948 519.157ZM63.3338 518.477C63.4656 518.609 63.5956 518.739 63.7138 518.843C63.8384 518.952 63.9938 519.071 64.1957 519.158L64.9175 517.489C64.9593 517.507 64.9657 517.522 64.9111 517.473C64.8116 517.382 64.7146 517.288 64.6202 517.192L63.3338 518.477ZM62.5219 517.664L63.3347 518.477L64.6202 517.192L63.8075 516.379L62.5219 517.664ZM61.8419 516.804C61.9283 517.004 62.0474 517.161 62.1565 517.286C62.2601 517.403 62.3901 517.533 62.5219 517.664L63.8075 516.379C63.7108 516.285 63.6169 516.188 63.5256 516.088C63.4774 516.033 63.492 516.04 63.5102 516.082L61.8419 516.804ZM61.7783 515.528C61.6443 515.947 61.667 516.401 61.8419 516.804L63.5102 516.082L61.7783 515.528ZM62.3692 514.604C62.2563 514.739 62.1478 514.877 62.0437 515.018C61.9288 515.173 61.8392 515.345 61.7783 515.528L63.5102 516.082C63.4956 516.124 63.4829 516.133 63.5247 516.073C63.572 516.006 63.6429 515.918 63.7766 515.755L62.3692 514.604ZM62.9183 513.932C62.9311 513.839 62.9674 513.828 62.8647 513.976C62.7674 514.117 62.6165 514.302 62.3692 514.604L63.7766 515.755C64.0038 515.477 64.2102 515.227 64.3584 515.013C64.5011 514.808 64.6739 514.524 64.7211 514.175L62.9183 513.932ZM62.9183 513.932L64.7211 514.175C64.7639 513.857 64.7216 513.533 64.5987 513.237C64.4757 512.94 64.2764 512.681 64.0211 512.487L62.9183 513.932ZM62.0547 513.846C62.4438 513.885 62.682 513.91 62.8501 513.94C63.0274 513.972 62.9938 513.99 62.9183 513.932L64.0211 512.487C63.7411 512.273 63.4193 512.195 63.172 512.151C62.9165 512.105 62.5947 512.073 62.2356 512.037L62.0547 513.846ZM60.9837 513.611C61.1783 513.711 61.3692 513.757 61.5328 513.784C61.6874 513.81 61.8701 513.829 62.0556 513.847L62.2356 512.037C62.1009 512.025 61.9675 512.01 61.8337 511.991C61.761 511.979 61.7765 511.974 61.8174 511.995L60.9837 513.611ZM60.1273 512.664C60.2889 513.074 60.5935 513.411 60.9846 513.612L61.8183 511.996L60.1273 512.664ZM60 511.575C60 511.76 60 511.945 60.01 512.101C60.0209 512.267 60.0464 512.461 60.1282 512.665L61.8183 511.995C61.8346 512.038 61.8292 512.052 61.8246 511.98C61.8188 511.845 61.8167 511.71 61.8183 511.575H60ZM60 510.426V511.575H61.8183V510.426H60ZM60.1273 509.336C60.0585 509.516 60.0189 509.707 60.01 509.9C59.9991 510.056 60 510.24 60 510.427H61.8183C61.8183 510.216 61.8183 510.102 61.8246 510.02C61.8292 509.948 61.8346 509.962 61.8183 510.005L60.1273 509.336ZM60.9846 508.389C60.5938 508.591 60.2892 508.927 60.1273 509.336L61.8183 510.005L60.9846 508.389ZM62.0565 508.153C61.871 508.172 61.6883 508.189 61.5337 508.217C61.3701 508.244 61.1792 508.289 60.9846 508.389L61.8183 510.005C61.7774 510.026 61.7628 510.021 61.8346 510.01C61.9684 509.99 62.1027 509.975 62.2374 509.963L62.0565 508.153ZM62.9201 508.068C62.9956 508.01 63.0292 508.029 62.8511 508.06C62.6829 508.09 62.4447 508.115 62.0565 508.154L62.2374 509.963C62.5947 509.927 62.9174 509.896 63.1738 509.85C63.4202 509.805 63.7429 509.727 64.0229 509.513L62.9201 508.068ZM62.9201 508.068L64.0229 509.513C64.2781 509.318 64.4772 509.06 64.6 508.763C64.7228 508.467 64.7649 508.143 64.722 507.825L62.9201 508.068ZM62.3701 507.396C62.6174 507.698 62.7683 507.883 62.8665 508.024C62.9692 508.172 62.9329 508.161 62.9201 508.068L64.722 507.825C64.6748 507.476 64.5029 507.193 64.3593 506.987C64.2111 506.773 64.0047 506.523 63.7775 506.245L62.3701 507.396ZM61.7792 506.471C61.8456 506.68 61.9483 506.847 62.0447 506.982C62.1356 507.109 62.2528 507.252 62.3701 507.396L63.7775 506.245C63.6906 506.141 63.6066 506.036 63.5256 505.928C63.4829 505.868 63.4974 505.876 63.5111 505.918L61.7792 506.471ZM61.8428 505.196C61.6681 505.599 61.6455 506.052 61.7792 506.471L63.5111 505.918L61.8428 505.196ZM62.5229 504.335C62.391 504.467 62.261 504.596 62.1574 504.714C62.0276 504.857 61.9214 505.019 61.8428 505.196L63.5111 505.918C63.4929 505.96 63.4784 505.967 63.5265 505.911C63.5811 505.849 63.6602 505.769 63.8084 505.62L62.5229 504.335ZM63.3356 503.523L62.5229 504.335L63.8084 505.62L64.622 504.808L63.3356 503.523ZM64.1957 502.842C64.0193 502.921 63.8567 503.027 63.7138 503.157C63.5839 503.275 63.4577 503.397 63.3356 503.523L64.622 504.808C64.7702 504.659 64.8502 504.58 64.9121 504.527C64.9666 504.477 64.9602 504.492 64.9184 504.51L64.1957 502.842ZM65.4721 502.778C65.0529 502.644 64.5994 502.667 64.1957 502.842L64.9184 504.51L65.4721 502.778ZM66.3948 503.369C66.2512 503.252 66.1103 503.136 65.9821 503.045C65.8273 502.929 65.6551 502.839 65.4721 502.778L64.9184 504.51C64.8757 504.497 64.8675 504.483 64.9275 504.525C64.9939 504.573 65.0821 504.644 65.2448 504.777L66.3948 503.369ZM67.0676 503.919C67.1612 503.932 67.1722 503.968 67.024 503.866C66.8093 503.708 66.6001 503.542 66.3967 503.37L65.2448 504.777C65.523 505.005 65.7721 505.21 65.9857 505.359C66.1912 505.502 66.4749 505.674 66.824 505.721L67.0676 503.919ZM67.0676 503.919L66.8249 505.721C67.143 505.764 67.4668 505.722 67.7633 505.599C68.0599 505.476 68.3186 505.276 68.5131 505.021L67.0676 503.919ZM67.154 503.056C67.1149 503.445 67.0903 503.683 67.0603 503.851C67.0285 504.028 67.0103 503.995 67.0676 503.919L68.5131 505.021C68.7268 504.741 68.805 504.419 68.8495 504.173C68.895 503.917 68.9277 503.595 68.9631 503.236L67.154 503.056ZM67.3885 501.985C67.3022 502.157 67.2438 502.343 67.2158 502.534C67.1903 502.688 67.1722 502.871 67.154 503.056L68.9631 503.236C68.975 503.102 68.9901 502.968 69.0086 502.835C69.0213 502.762 69.0259 502.778 69.005 502.818L67.3885 501.985ZM68.3368 501.127C67.9273 501.289 67.5904 501.593 67.3885 501.985L69.005 502.818L68.3368 501.127ZM69.4259 501C69.2404 501 69.0559 501 68.8995 501.01C68.7066 501.019 68.5163 501.059 68.3358 501.127L69.0059 502.818C68.9631 502.835 68.9486 502.829 69.0213 502.825C69.1032 502.819 69.2168 502.818 69.4268 502.818L69.4259 501ZM70.575 501H69.4259V502.818H70.575V501ZM71.6642 501.127C71.4837 501.059 71.2934 501.019 71.1005 501.01C70.946 500.999 70.7614 501 70.5759 501V502.818C70.786 502.818 70.8996 502.818 70.9814 502.825C71.0541 502.829 71.0387 502.835 70.996 502.818L71.6642 501.127ZM72.6124 501.985C72.4105 501.593 72.0736 501.289 71.6642 501.127L70.996 502.818L72.6124 501.985ZM72.7279 511C72.7279 511.724 72.4405 512.418 71.929 512.929C71.4175 513.441 70.7238 513.728 70.0005 513.728V515.546C71.206 515.546 72.3623 515.067 73.2147 514.215C74.0672 513.362 74.5461 512.206 74.5461 511H72.7279ZM70.0005 508.273C70.7238 508.273 71.4175 508.56 71.929 509.072C72.4405 509.583 72.7279 510.277 72.7279 511H74.5461C74.5461 509.795 74.0672 508.639 73.2147 507.786C72.3623 506.934 71.206 506.455 70.0005 506.455V508.273ZM67.2731 511C67.2731 510.277 67.5604 509.583 68.0719 509.072C68.5834 508.56 69.2771 508.273 70.0005 508.273V506.455C68.7949 506.455 67.6387 506.934 66.7862 507.786C65.9337 508.639 65.4548 509.795 65.4548 511H67.2731ZM70.0005 513.728C69.2771 513.728 68.5834 513.441 68.0719 512.929C67.5604 512.418 67.2731 511.724 67.2731 511H65.4548C65.4548 512.206 65.9337 513.362 66.7862 514.215C67.6387 515.067 68.7949 515.546 70.0005 515.546V513.728Z" fill="white"/>
<path d="M100.8 507.04L99.04 507.66C98.88 506.64 98.02 505.24 96.04 505.24C94.44 505.24 93.3 506.28 93.3 507.6C93.3 508.62 93.92 509.4 95.12 509.66L97.24 510.12C99.6 510.64 100.92 512.12 100.92 514.1C100.92 516.3 99.04 518.3 96.02 518.3C92.6 518.3 90.98 516.1 90.72 514.08L92.6 513.48C92.74 515.06 93.86 516.52 96 516.52C97.96 516.52 98.92 515.5 98.92 514.26C98.92 513.24 98.22 512.36 96.8 512.06L94.78 511.62C92.76 511.18 91.32 509.86 91.32 507.74C91.32 505.52 93.38 503.52 96 503.52C99.2 503.52 100.48 505.5 100.8 507.04ZM104.59 512.2H109.85C109.81 510.82 108.91 509.74 107.21 509.74C105.63 509.74 104.67 510.96 104.59 512.2ZM110.13 514.7L111.75 515.26C111.21 516.96 109.67 518.3 107.43 518.3C104.85 518.3 102.59 516.42 102.59 513.16C102.59 510.14 104.77 508.08 107.19 508.08C110.15 508.08 111.81 510.12 111.81 513.12C111.81 513.36 111.79 513.6 111.77 513.72H104.53C104.57 515.44 105.81 516.64 107.43 516.64C108.99 516.64 109.77 515.78 110.13 514.7ZM116.525 505.34V508.38H118.605V510.08H116.525V515.08C116.525 515.96 116.885 516.4 117.865 516.4C118.105 516.4 118.445 516.36 118.605 516.32V517.92C118.445 517.98 117.965 518.1 117.325 518.1C115.685 518.1 114.645 517.1 114.645 515.36V510.08H112.805V508.38H113.325C114.365 508.38 114.805 507.74 114.805 506.9V505.34H116.525ZM123.293 505.34V508.38H125.373V510.08H123.293V515.08C123.293 515.96 123.653 516.4 124.633 516.4C124.873 516.4 125.213 516.36 125.373 516.32V517.92C125.213 517.98 124.733 518.1 124.093 518.1C122.453 518.1 121.413 517.1 121.413 515.36V510.08H119.573V508.38H120.093C121.133 508.38 121.573 507.74 121.573 506.9V505.34H123.293ZM129.302 518H127.442V508.38H129.302V518ZM127.022 504.74C127.022 503.98 127.622 503.38 128.362 503.38C129.122 503.38 129.722 503.98 129.722 504.74C129.722 505.48 129.122 506.08 128.362 506.08C127.622 506.08 127.022 505.48 127.022 504.74ZM134.059 512.44V518H132.179V508.38H134.019V509.76C134.719 508.56 135.859 508.1 136.979 508.1C139.279 508.1 140.419 509.76 140.419 511.9V518H138.539V512.22C138.539 510.88 137.979 509.8 136.299 509.8C134.819 509.8 134.059 510.98 134.059 512.44ZM142.546 518.52L144.366 518.1C144.506 519.44 145.526 520.46 146.986 520.46C149.006 520.46 149.926 519.42 149.926 517.34V515.96C149.466 516.84 148.426 517.54 146.986 517.54C144.426 517.54 142.566 515.6 142.566 512.88C142.566 510.28 144.346 508.2 146.986 508.2C148.466 508.2 149.466 508.76 149.946 509.72V508.38H151.806V517.28C151.806 519.72 150.606 522.1 146.986 522.1C144.586 522.1 142.786 520.58 142.546 518.52ZM147.266 515.96C148.886 515.96 150.006 514.74 150.006 512.88C150.006 511.02 148.886 509.8 147.266 509.8C145.606 509.8 144.486 511.02 144.486 512.88C144.486 514.76 145.566 515.96 147.266 515.96ZM153.921 515.5L155.621 514.9C155.741 515.9 156.501 516.7 157.861 516.7C158.921 516.7 159.501 516.1 159.501 515.42C159.501 514.82 159.061 514.36 158.261 514.18L156.621 513.82C155.121 513.5 154.221 512.48 154.221 511.12C154.221 509.48 155.761 508.08 157.641 508.08C160.281 508.08 161.101 509.8 161.301 510.66L159.641 511.28C159.561 510.78 159.161 509.68 157.641 509.68C156.681 509.68 156.041 510.3 156.041 510.96C156.041 511.54 156.401 511.96 157.141 512.12L158.701 512.46C160.441 512.84 161.361 513.9 161.361 515.32C161.361 516.68 160.221 518.3 157.841 518.3C155.201 518.3 154.081 516.6 153.921 515.5Z" fill="white"/>
<rect x="40" y="575" width="538" height="52" rx="12" fill="#292929"/>
<path d="M77 602V599C77 595.7 77 594.05 75.975 593.025C74.95 592 73.3 592 70 592H67C63.7 592 62.05 592 61.025 593.025C60 594.05 60 595.7 60 599V604C60 607.3 60 608.95 61.025 609.975C62.05 611 63.7 611 67 611H68.5M73.5 591V593M68.5 591V593M63.5 591V593M71 609C71 609 72 609 73 611C73 611 76.177 606 79 605M64.5 604H68.5M64.5 599H72.5" stroke="white" stroke-width="1.5" stroke-linecap="round" stroke-linejoin="round"/>
<path d="M100.8 595.64H96.06V608H94.1V595.64H89.36V593.82H100.8V595.64ZM101.559 602.2H106.819C106.779 600.82 105.879 599.74 104.179 599.74C102.599 599.74 101.639 600.96 101.559 602.2ZM107.099 604.7L108.719 605.26C108.179 606.96 106.639 608.3 104.399 608.3C101.819 608.3 99.5588 606.42 99.5588 603.16C99.5588 600.14 101.739 598.08 104.159 598.08C107.119 598.08 108.779 600.12 108.779 603.12C108.779 603.36 108.759 603.6 108.739 603.72H101.499C101.539 605.44 102.779 606.64 104.399 606.64C105.959 606.64 106.739 605.78 107.099 604.7ZM116.311 598.28V600.28C116.031 600.24 115.751 600.22 115.491 600.22C113.911 600.22 112.851 601.06 112.851 603.18V608H110.971V598.38H112.811V600.06C113.511 598.58 114.711 598.22 115.691 598.22C115.951 598.22 116.211 598.26 116.311 598.28ZM119.932 608H118.072V598.38H119.872V599.66C120.472 598.6 121.672 598.1 122.792 598.1C123.992 598.1 125.152 598.68 125.672 599.92C126.432 598.54 127.672 598.1 128.892 598.1C130.572 598.1 132.212 599.24 132.212 601.76V608H130.352V601.96C130.352 600.7 129.732 599.76 128.312 599.76C126.992 599.76 126.092 600.8 126.092 602.18V608H124.212V601.96C124.212 600.72 123.612 599.76 122.172 599.76C120.832 599.76 119.932 600.76 119.932 602.2V608ZM134.217 605.5L135.917 604.9C136.037 605.9 136.797 606.7 138.157 606.7C139.217 606.7 139.797 606.1 139.797 605.42C139.797 604.82 139.357 604.36 138.557 604.18L136.917 603.82C135.417 603.5 134.517 602.48 134.517 601.12C134.517 599.48 136.057 598.08 137.937 598.08C140.577 598.08 141.397 599.8 141.597 600.66L139.937 601.28C139.857 600.78 139.457 599.68 137.937 599.68C136.977 599.68 136.337 600.3 136.337 600.96C136.337 601.54 136.697 601.96 137.437 602.12L138.997 602.46C140.737 602.84 141.657 603.9 141.657 605.32C141.657 606.68 140.517 608.3 138.137 608.3C135.497 608.3 134.377 606.6 134.217 605.5ZM153.068 606.62C154.668 606.62 156.068 605.42 156.068 603.18C156.068 600.96 154.668 599.76 153.068 599.76C151.468 599.76 150.068 600.96 150.068 603.18C150.068 605.42 151.468 606.62 153.068 606.62ZM153.068 598.08C155.948 598.08 157.988 600.26 157.988 603.18C157.988 606.12 155.948 608.3 153.068 608.3C150.188 608.3 148.148 606.12 148.148 603.18C148.148 600.26 150.188 598.08 153.068 598.08ZM165.088 600.08H162.768V608H160.828V600.08H159.048V598.38H160.828V596.76C160.828 594.62 162.248 593.46 163.988 593.46C164.628 593.46 165.028 593.6 165.108 593.66V595.34C165.008 595.3 164.768 595.22 164.288 595.22C163.628 595.22 162.768 595.54 162.768 596.86V598.38H165.088V600.08ZM170.541 605.5L172.241 604.9C172.361 605.9 173.121 606.7 174.481 606.7C175.541 606.7 176.121 606.1 176.121 605.42C176.121 604.82 175.681 604.36 174.881 604.18L173.241 603.82C171.741 603.5 170.841 602.48 170.841 601.12C170.841 599.48 172.381 598.08 174.261 598.08C176.901 598.08 177.721 599.8 177.921 600.66L176.261 601.28C176.181 600.78 175.781 599.68 174.261 599.68C173.301 599.68 172.661 600.3 172.661 600.96C172.661 601.54 173.021 601.96 173.761 602.12L175.321 602.46C177.061 602.84 177.981 603.9 177.981 605.32C177.981 606.68 176.841 608.3 174.461 608.3C171.821 608.3 170.701 606.6 170.541 605.5ZM181.597 602.2H186.857C186.817 600.82 185.917 599.74 184.217 599.74C182.637 599.74 181.677 600.96 181.597 602.2ZM187.137 604.7L188.757 605.26C188.217 606.96 186.677 608.3 184.437 608.3C181.857 608.3 179.597 606.42 179.597 603.16C179.597 600.14 181.777 598.08 184.197 598.08C187.157 598.08 188.817 600.12 188.817 603.12C188.817 603.36 188.797 603.6 188.777 603.72H181.537C181.577 605.44 182.817 606.64 184.437 606.64C185.997 606.64 186.777 605.78 187.137 604.7ZM196.35 598.28V600.28C196.07 600.24 195.79 600.22 195.53 600.22C193.95 600.22 192.89 601.06 192.89 603.18V608H191.01V598.38H192.85V600.06C193.55 598.58 194.75 598.22 195.73 598.22C195.99 598.22 196.25 598.26 196.35 598.28ZM206.67 598.38L202.83 608H200.93L197.03 598.38H199.15L201.89 605.8L204.65 598.38H206.67ZM210.372 608H208.512V598.38H210.372V608ZM208.092 594.74C208.092 593.98 208.692 593.38 209.432 593.38C210.192 593.38 210.792 593.98 210.792 594.74C210.792 595.48 210.192 596.08 209.432 596.08C208.692 596.08 208.092 595.48 208.092 594.74ZM217.449 599.82C215.929 599.82 214.529 600.94 214.529 603.18C214.529 605.38 215.909 606.56 217.469 606.56C219.269 606.56 219.929 605.34 220.149 604.58L221.809 605.3C221.349 606.68 219.969 608.3 217.469 608.3C214.669 608.3 212.609 606.1 212.609 603.18C212.609 600.18 214.709 598.08 217.449 598.08C220.009 598.08 221.329 599.68 221.729 601.14L220.029 601.86C219.789 600.92 219.089 599.82 217.449 599.82ZM225.225 602.2H230.485C230.445 600.82 229.545 599.74 227.845 599.74C226.265 599.74 225.305 600.96 225.225 602.2ZM230.765 604.7L232.385 605.26C231.845 606.96 230.305 608.3 228.065 608.3C225.485 608.3 223.225 606.42 223.225 603.16C223.225 600.14 225.405 598.08 227.825 598.08C230.785 598.08 232.445 600.12 232.445 603.12C232.445 603.36 232.425 603.6 232.405 603.72H225.165C225.205 605.44 226.445 606.64 228.065 606.64C229.625 606.64 230.405 605.78 230.765 604.7Z" fill="white"/>
<rect x="40" y="665" width="109" height="52" rx="12" fill="#FF3B30"/>
<path d="M70.68 698H61.78V683.82H64.18V695.72H70.68V698ZM76.5934 696.22C78.0334 696.22 79.3134 695.16 79.3134 693.12C79.3134 691.1 78.0334 690.06 76.5934 690.06C75.1734 690.06 73.8734 691.1 73.8734 693.12C73.8734 695.14 75.1734 696.22 76.5934 696.22ZM76.5934 687.96C79.5134 687.96 81.6534 690.14 81.6534 693.12C81.6534 696.12 79.5134 698.3 76.5934 698.3C73.6934 698.3 71.5534 696.12 71.5534 693.12C71.5534 690.14 73.6934 687.96 76.5934 687.96ZM83.1267 698.54L85.2667 697.98C85.4267 699.18 86.3667 700.08 87.7067 700.08C89.5467 700.08 90.4667 699.14 90.4667 697.16V696.14C90.0467 696.9 89.0667 697.56 87.6467 697.56C85.0467 697.56 83.1467 695.56 83.1467 692.82C83.1467 690.22 84.9667 688.08 87.6467 688.08C89.1667 688.08 90.1067 688.7 90.5267 689.5V688.26H92.7667V697.08C92.7667 699.68 91.4267 702.1 87.7667 702.1C85.1867 702.1 83.3867 700.5 83.1267 698.54ZM88.0267 695.58C89.5067 695.58 90.5267 694.5 90.5267 692.82C90.5267 691.16 89.4667 690.08 88.0267 690.08C86.5467 690.08 85.4867 691.16 85.4867 692.82C85.4867 694.52 86.5067 695.58 88.0267 695.58ZM104.575 696.22C106.015 696.22 107.295 695.16 107.295 693.12C107.295 691.1 106.015 690.06 104.575 690.06C103.155 690.06 101.855 691.1 101.855 693.12C101.855 695.14 103.155 696.22 104.575 696.22ZM104.575 687.96C107.495 687.96 109.635 690.14 109.635 693.12C109.635 696.12 107.495 698.3 104.575 698.3C101.675 698.3 99.535 696.12 99.535 693.12C99.535 690.14 101.675 687.96 104.575 687.96ZM118.068 696.92C117.588 697.8 116.448 698.28 115.308 698.28C112.988 698.28 111.628 696.56 111.628 694.4V688.26H113.948V693.98C113.948 695.18 114.508 696.2 115.908 696.2C117.248 696.2 117.948 695.3 117.948 694.02V688.26H120.268V696.22C120.268 697.02 120.328 697.64 120.368 698H118.148C118.108 697.78 118.068 697.32 118.068 696.92ZM126.049 685.28V688.26H128.069V690.32H126.049V694.84C126.049 695.7 126.429 696.06 127.289 696.06C127.609 696.06 127.989 696 128.089 695.98V697.9C127.949 697.96 127.509 698.12 126.669 698.12C124.869 698.12 123.749 697.04 123.749 695.22V690.32H121.949V688.26H122.449C123.489 688.26 123.949 687.6 123.949 686.74V685.28H126.049Z" fill="white"/>
</svg>
