<svg width="108" height="108" viewBox="0 0 108 108" fill="none" xmlns="http://www.w3.org/2000/svg">
<path opacity="0.2" fill-rule="evenodd" clip-rule="evenodd" d="M54 91.8C58.918 91.8 63.7879 90.8223 68.3315 88.9227C72.8751 87.023 77.0036 84.2387 80.4811 80.7286C83.9587 77.2186 86.7173 73.0515 88.5993 68.4654C90.4813 63.8793 91.45 58.964 91.45 54C91.45 49.036 90.4813 44.1207 88.5993 39.5346C86.7173 34.9485 83.9587 30.7814 80.4811 27.2714C77.0036 23.7613 72.8751 20.977 68.3315 19.0774C63.7879 17.1777 58.918 16.2 54 16.2C44.0676 16.2 34.5421 20.1825 27.5189 27.2714C20.4956 34.3602 16.55 43.9748 16.55 54C16.55 64.0252 20.4956 73.6398 27.5189 80.7286C34.5421 87.8175 44.0676 91.8 54 91.8ZM54 108C83.548 108 107.5 83.8242 107.5 54C107.5 24.1758 83.548 0 54 0C24.452 0 0.5 24.1758 0.5 54C0.5 83.8242 24.452 108 54 108Z" fill="#4055E2"/>
<path d="M0.5 54C0.5 24.1758 24.2281 0 53.5 0V16.2C43.6605 16.2 34.2239 20.1825 27.2663 27.2714C20.3087 34.3602 16.4 43.9748 16.4 54H0.5Z" fill="#4055E2"/>
<path d="M35.6 53.672C35.6 50.632 36.08 47.752 37.616 45.512C39.088 43.304 41.392 41.832 44.688 41.832C48.016 41.832 50.32 43.304 51.792 45.512C53.296 47.752 53.808 50.632 53.808 53.672C53.808 56.712 53.296 59.56 51.792 61.8C50.32 64.04 48.016 65.48 44.688 65.48C41.392 65.48 39.12 64.04 37.616 61.8C36.112 59.56 35.6 56.712 35.6 53.672ZM39.376 53.672C39.376 56.808 39.92 59.144 41.136 60.52C41.968 61.48 43.056 62.12 44.688 62.12C46.32 62.12 47.408 61.48 48.24 60.52C49.456 59.112 50 56.808 50 53.672C50 50.536 49.456 48.232 48.24 46.824C47.408 45.864 46.32 45.224 44.688 45.224C43.056 45.224 41.968 45.864 41.136 46.824C39.92 48.2 39.376 50.536 39.376 53.672ZM60.7132 50.696L56.9692 50.344C56.9052 50.024 56.8732 49.608 56.8732 49.224C56.8732 45.32 59.7852 41.832 64.8412 41.832C69.7372 41.832 72.6173 45.064 72.6173 48.872C72.6173 51.848 70.9532 54.248 68.3292 55.88L63.8812 58.696C62.6972 59.432 61.7052 60.296 61.3852 61.544H72.7453V65H56.6492C56.7132 61.192 58.1212 58.28 62.0252 55.816L65.7692 53.416C67.8172 52.136 68.7452 50.632 68.7452 48.936C68.7452 46.984 67.4332 45.192 64.7452 45.192C61.9292 45.192 60.6172 47.144 60.6172 49.576C60.6172 49.928 60.6812 50.312 60.7132 50.696Z" fill="white"/>
</svg>
